<svg width="324" height="309" viewBox="0 0 324 309" fill="none" xmlns="http://www.w3.org/2000/svg">
<rect width="324" height="309" rx="10" fill="white"/>
<path d="M27.9668 32.5449V34.3203H18.4746V32.5449H22.1133V31.0332H24.3457V32.5449H27.9668ZM23.2207 34.8301C25.541 34.8301 27.1582 36.0254 27.1582 37.7832C27.1582 39.541 25.541 40.7363 23.2207 40.7363C20.9004 40.7363 19.248 39.541 19.248 37.7832C19.248 36.0254 20.9004 34.8301 23.2207 34.8301ZM23.2207 36.5176C22.1484 36.5176 21.4277 36.957 21.4453 37.7832C21.4277 38.5918 22.1484 39.0137 23.2207 39.0137C24.293 39.0137 25.0312 38.5918 25.0312 37.7832C25.0312 36.957 24.293 36.5176 23.2207 36.5176ZM31.166 31.1211V35.2695H33.3281V37.0977H31.166V41.1582H28.916V31.1211H31.166ZM31.166 41.8262V47.1172H28.916V43.6191H20.3906V41.8262H31.166ZM48.6562 40.3496V42.1074H42.3984V47.1172H40.1836V42.1074H34.0137V40.3496H48.6562ZM37.9512 31.7363V33.582H44.666V31.7363H46.916V38.8027H35.7363V31.7363H37.9512ZM37.9512 37.0098H44.666V35.3398H37.9512V37.0098ZM64.2305 43.4082V45.2539H49.5879V43.4082H55.7578V40.1387H51.1348V32.2988H62.5957V40.1387H57.9902V43.4082H64.2305ZM53.3496 34.0918V38.3809H60.3809V34.0918H53.3496ZM82.6875 31.1387V42.6348H80.4375V31.1387H82.6875ZM83.1094 45.043V46.8359H71.9648V41.4746H74.2324V45.043H83.1094ZM73.916 32.1582C76.377 32.1582 78.293 33.8457 78.293 36.1836C78.293 38.5742 76.377 40.2441 73.916 40.2441C71.4551 40.2441 69.5391 38.5742 69.5391 36.1836C69.5391 33.8457 71.4551 32.1582 73.916 32.1582ZM73.916 34.1094C72.668 34.0918 71.7188 34.8828 71.7363 36.1836C71.7188 37.5195 72.668 38.293 73.916 38.293C75.1289 38.293 76.0781 37.5195 76.0781 36.1836C76.0781 34.8828 75.1289 34.0918 73.916 34.1094ZM90.9844 33.3887C90.9668 35.3926 92.1094 37.3262 94.7461 38.1172L93.6211 39.875C91.8018 39.2949 90.5449 38.1611 89.8242 36.6934C89.1035 38.2754 87.8027 39.5146 85.9219 40.1211L84.7969 38.3633C87.4688 37.502 88.6465 35.4277 88.6465 33.3887V31.8594H90.9844V33.3887ZM98.2441 41.3516V47.1172H95.9941V43.1445H87.2402V41.3516H98.2441ZM98.2441 31.1211V40.666H95.9941V31.1211H98.2441ZM110.461 35.4805C110.443 37.9238 111.744 40.7363 114.381 41.9492L113.133 43.707C111.349 42.8896 110.074 41.2549 109.371 39.3301C108.65 41.4482 107.341 43.2412 105.486 44.1113L104.186 42.3359C106.857 41.0879 108.193 38.1172 108.211 35.4805V34.4961H104.818V32.668H113.678V34.4961H110.461V35.4805ZM117.176 31.1211V37.2207H119.531V39.1016H117.176V47.1172H114.926V31.1211H117.176ZM132.732 31.1211V37.2559H135V39.1016H132.732V47.082H130.482V31.1211H132.732ZM128.461 32.7559C128.443 37.5371 126.58 41.6855 121.201 44.3223L119.936 42.5996C123.724 40.7012 125.754 38.1523 126.176 34.584H120.85V32.7559H128.461ZM141.908 34.2852C141.908 36.2012 143.086 38.1523 145.723 38.9434L144.58 40.7012C142.787 40.1387 141.521 38.9873 140.801 37.5371C140.071 39.1104 138.771 40.376 136.898 41L135.738 39.2422C138.393 38.3809 139.623 36.3066 139.623 34.2852V34.0566H136.336V32.2637H145.125V34.0566H141.908V34.2852ZM149.062 31.1387V42.7051H146.812V31.1387H149.062ZM149.484 45.043V46.8359H138.34V41.6504H140.607V45.043H149.484ZM163.916 31.1211V35.4805H166.078V37.3262H163.916V42.6875H161.666V31.1211H163.916ZM159.064 32.4043V34.1973H154.09V38.2402C156.981 38.2227 158.572 38.1348 160.365 37.748L160.594 39.541C158.59 39.9629 156.744 40.0508 153.193 40.0508H151.84V32.4043H159.064ZM164.496 45.043V46.8359H153.545V41.457H155.777V45.043H164.496Z" fill="black"/>
<line x1="20.5" y1="61" x2="307.5" y2="61" stroke="#DDDDDD"/>
<path d="M31.125 84.3125V93.6875C31.125 93.9361 31.0262 94.1746 30.8504 94.3504C30.6746 94.5262 30.4361 94.625 30.1875 94.625H20.8125C20.5639 94.625 20.3254 94.5262 20.1496 94.3504C19.9738 94.1746 19.875 93.9361 19.875 93.6875V84.3125C19.875 84.0639 19.9738 83.8254 20.1496 83.6496C20.3254 83.4738 20.5639 83.375 20.8125 83.375H30.1875C30.4361 83.375 30.6746 83.4738 30.8504 83.6496C31.0262 83.8254 31.125 84.0639 31.125 84.3125ZM30.1875 93.6875V84.3125H20.8125V93.6875H30.1875Z" fill="#AAAAAA"/>
<path d="M46.3145 83.7881V93.4131H45.2939V83.7881H46.3145ZM38.4082 90.792C39.2031 90.7866 40.1055 90.7812 41.0508 90.7598V89.793C39.9282 89.6426 39.1978 88.9819 39.2031 88.042C39.1978 86.957 40.1431 86.2427 41.5342 86.2373C42.9414 86.2427 43.9028 86.957 43.9082 88.042C43.9028 88.9712 43.1777 89.6265 42.0605 89.7876V90.7222C42.9521 90.6792 43.8545 90.6147 44.7031 90.502L44.7783 91.2646C42.6406 91.6191 40.3096 91.646 38.5479 91.6406L38.4082 90.792ZM38.6123 85.7539V84.9375H41.0508V83.8096H42.0713V84.9375H44.4883V85.7539H38.6123ZM40.1699 88.042C40.1592 88.6543 40.7285 89.0356 41.5342 89.0303C42.3667 89.0356 42.9307 88.6543 42.9307 88.042C42.9307 87.4243 42.3667 87.0322 41.5342 87.0322C40.7285 87.0322 40.1592 87.4243 40.1699 88.042ZM56.6699 91.3936V92.2314H47.8613V91.3936H51.75V89.2988H52.7598V91.3936H56.6699ZM48.291 88.8369C50.2676 88.5469 51.6909 87.4297 51.7393 86.0762H48.6562V85.249H51.75V83.96H52.7598V85.249H55.8535V86.0762H52.7705C52.8188 87.4297 54.2422 88.5469 56.2188 88.8369L55.832 89.6318C54.2207 89.3794 52.8779 88.6167 52.2495 87.4941C51.6265 88.6167 50.2891 89.3794 48.6777 89.6318L48.291 88.8369ZM65.3604 83.7881V93.4346H64.3398V83.7881H65.3604ZM57.9053 85.4854V84.6582H62.417V88.1709H58.958V90.2764C60.521 90.271 61.8799 90.1958 63.4912 89.9326L63.5879 90.7705C61.8853 91.0552 60.4351 91.1196 58.7324 91.125H57.916V87.3545H61.375V85.4854H57.9053ZM75.6836 91.4043V92.2637H66.875V91.4043H70.7529V89.7178H67.9492V86.6562H73.5996V85.3027H67.9277V84.4648H74.6094V87.4727H68.959V88.8799H74.835V89.7178H71.7627V91.4043H75.6836ZM85.4697 83.9814V87.6553H86.4902V83.7881H87.457V93.4131H86.4902V88.4932H85.4697V92.9512H84.5244V83.9814H85.4697ZM79.3145 90.9639V84.9805H81.3984V85.8184H80.249V90.0938C80.5874 90.0776 80.9849 90.0293 81.4307 89.9219L81.5166 90.7812C80.7432 90.9478 80.1523 90.9639 79.7119 90.9639H79.3145ZM81.7959 90.9639V84.9805H83.9336V85.8184H82.7197V90.0991C83.1279 90.0884 83.5898 90.04 84.0947 89.9004L84.1807 90.7598C83.4072 90.9531 82.7734 90.9639 82.2041 90.9639H81.7959ZM96.5449 83.7988V90.8779H95.5352V83.7988H96.5449ZM89.0576 85.2812V84.4648H93.4834V87.333H90.0781V88.7188C91.8452 88.708 93.0537 88.6543 94.4824 88.3965L94.5898 89.2344C93.0752 89.4976 91.7969 89.5513 89.8848 89.5566H89.0791V86.5596H92.4736V85.2812H89.0576ZM90.1855 93.209V90.3193H91.2061V92.3818H96.8135V93.209H90.1855ZM104.215 85.4961C104.209 86.71 105.08 87.897 106.535 88.3965L106.009 89.1914C104.929 88.8208 104.129 88.0474 103.71 87.0967C103.291 88.1548 102.448 89.0034 101.304 89.4062L100.777 88.6006C102.254 88.0957 103.178 86.812 103.173 85.5068V85.2383H101.089V84.4111H106.277V85.2383H104.215V85.4961ZM102.271 90.8564V90.0293H108.791V93.4131H107.771V90.8564H102.271ZM105.987 87.0752V86.2373H107.771V83.7881H108.791V89.5459H107.771V87.0752H105.987ZM118.244 83.7881V93.4346H117.224V83.7881H118.244ZM110.606 87.8809C110.606 85.8237 111.643 84.5132 113.099 84.5078C114.527 84.5132 115.58 85.8237 115.58 87.8809C115.58 89.9595 114.527 91.27 113.099 91.2646C111.643 91.27 110.606 89.9595 110.606 87.8809ZM111.595 87.8809C111.589 89.4116 112.202 90.3516 113.099 90.3516C113.979 90.3516 114.592 89.4116 114.592 87.8809C114.592 86.3716 113.979 85.4263 113.099 85.4209C112.202 85.4263 111.589 86.3716 111.595 87.8809ZM125.807 90.1475C125.807 90.9746 126.215 91.8501 127.09 92.3711C127.971 91.8071 128.406 90.8887 128.406 90.1475V89.6855H129.405V90.1475C129.4 91.1465 130.061 92.1133 131.317 92.5215L130.812 93.2734C129.862 92.9458 129.212 92.3013 128.879 91.5171C128.573 92.2905 127.998 92.9941 127.117 93.3594C126.193 93.0103 125.608 92.3281 125.312 91.5439C124.963 92.3013 124.33 92.9404 123.422 93.2734L122.906 92.5215C124.142 92.0811 124.813 91.0767 124.818 90.1475V89.6855H125.807V90.1475ZM122.659 86.6025C122.665 85.2544 123.75 84.3306 125.227 84.3252C126.698 84.3306 127.783 85.2544 127.783 86.6025C127.783 87.9346 126.698 88.8584 125.227 88.8584C123.75 88.8584 122.665 87.9346 122.659 86.6025ZM123.658 86.6025C123.653 87.4404 124.313 88.0098 125.227 88.0098C126.129 88.0098 126.784 87.4404 126.784 86.6025C126.784 85.7593 126.129 85.1899 125.227 85.1953C124.313 85.1899 123.653 85.7593 123.658 86.6025ZM129.427 89.2773V83.7988H130.447V89.2773H129.427ZM139.471 83.7881V87.5156H141.018V88.3535H139.471V93.4346H138.45V83.7881H139.471ZM132.381 91.0391V84.7119H136.882V85.5391H133.401V90.1904C135.018 90.1851 136.227 90.1152 137.602 89.8682L137.73 90.7275C136.221 90.9961 134.943 91.0444 133.154 91.0391H132.381ZM142.575 92.5752C142.156 92.5698 141.807 92.2314 141.812 91.8125C141.807 91.3936 142.156 91.0498 142.575 91.0498C142.989 91.0498 143.333 91.3936 143.338 91.8125C143.333 92.2314 142.989 92.5698 142.575 92.5752Z" fill="black"/>
<path d="M31.125 107.312V116.688C31.125 116.936 31.0262 117.175 30.8504 117.35C30.6746 117.526 30.4361 117.625 30.1875 117.625H20.8125C20.5639 117.625 20.3254 117.526 20.1496 117.35C19.9738 117.175 19.875 116.936 19.875 116.688V107.312C19.875 107.064 19.9738 106.825 20.1496 106.65C20.3254 106.474 20.5639 106.375 20.8125 106.375H30.1875C30.4361 106.375 30.6746 106.474 30.8504 106.65C31.0262 106.825 31.125 107.064 31.125 107.312ZM30.1875 116.688V107.312H20.8125V116.688H30.1875Z" fill="#AAAAAA"/>
<path d="M46.6152 106.788V116.413H45.6377V111.439H44.3916V115.919H43.457V106.981H44.3916V110.602H45.6377V106.788H46.6152ZM38.6768 114.104V107.948H42.2861V108.775H39.6973V113.233C40.8789 113.228 41.7705 113.174 42.8018 112.976L42.877 113.813C41.7222 114.055 40.7231 114.093 39.3213 114.104H38.6768ZM55.4023 106.788V110.816H56.8525V111.676H55.4023V116.413H54.3818V106.788H55.4023ZM47.7432 113.792C48.5005 113.792 49.3813 113.792 50.2998 113.765V112.788C49.2148 112.626 48.5059 111.971 48.5166 111.042C48.5059 109.957 49.4458 109.243 50.8154 109.237C52.1797 109.243 53.1304 109.957 53.1357 111.042C53.1304 111.971 52.4106 112.632 51.3203 112.788V113.728C52.1743 113.685 53.0337 113.615 53.834 113.502L53.8984 114.254C51.8145 114.625 49.564 114.646 47.9043 114.641L47.7432 113.792ZM47.9258 108.743V107.927H50.2998V106.81H51.3203V107.927H53.6943V108.743H47.9258ZM49.4727 111.042C49.4727 111.654 50.0098 112.036 50.8154 112.03C51.6211 112.036 52.1528 111.654 52.1582 111.042C52.1528 110.424 51.6211 110.032 50.8154 110.032C50.0098 110.032 49.4727 110.424 49.4727 111.042ZM67.8525 111.225V112.041H64.9414V114.394H68.8623V115.231H60.0537V114.394H63.9316V112.041H61.1494V107.529H67.7666V108.356H62.1699V111.225H67.8525ZM78.3369 111.246V112.073H74.4482V112.997C76.21 113.094 77.2573 113.685 77.2627 114.694C77.2573 115.785 76.0112 116.397 73.9434 116.392C71.8486 116.397 70.6025 115.785 70.6025 114.694C70.6025 113.685 71.6499 113.088 73.4385 112.997V112.073H69.5605V111.246H78.3369ZM70.0225 109.936C71.752 109.758 73.1162 108.974 73.2559 108.045H70.3662V107.229H77.5527V108.045H74.6309C74.7705 108.979 76.124 109.758 77.8857 109.936L77.5205 110.741C75.8501 110.548 74.4697 109.844 73.9487 108.824C73.417 109.844 72.0474 110.548 70.377 110.741L70.0225 109.936ZM71.6338 114.694C71.6284 115.28 72.4717 115.618 73.9434 115.607C75.3936 115.618 76.2422 115.28 76.2422 114.694C76.2422 114.098 75.3936 113.776 73.9434 113.771C72.4717 113.776 71.6284 114.098 71.6338 114.694ZM89.4443 107.271V108.12C89.4497 109.049 89.4497 110.064 89.1758 111.482H90.5508V112.31H81.7529V111.482H88.1445C88.2627 110.924 88.3325 110.424 88.3701 109.962L82.7412 110.215L82.6123 109.366L88.4185 109.205C88.4346 108.818 88.4346 108.458 88.4346 108.12V108.109H82.8594V107.271H89.4443ZM82.8379 116.209V113.19H83.8584V115.382H89.6377V116.209H82.8379ZM100.068 114.351V115.188H91.2598V114.351H95.1162V112.062H96.126V114.351H100.068ZM91.5605 111.396C93.4136 111.085 95.0679 109.656 95.0732 108.131V107.4H96.1475V108.131C96.1475 109.656 97.8232 111.085 99.6816 111.396L99.2412 112.234C97.6782 111.928 96.2495 110.961 95.6157 109.646C94.9819 110.956 93.564 111.928 92.0117 112.234L91.5605 111.396ZM108.759 106.788V116.435H107.738V106.788H108.759ZM101.304 108.485V107.658H105.815V111.171H102.356V113.276C103.919 113.271 105.278 113.196 106.89 112.933L106.986 113.771C105.284 114.055 103.833 114.12 102.131 114.125H101.314V110.354H104.773V108.485H101.304ZM119.082 114.404V115.264H110.273V114.404H114.151V112.718H111.348V109.656H116.998V108.303H111.326V107.465H118.008V110.473H112.357V111.88H118.233V112.718H115.161V114.404H119.082ZM130.007 106.788V110.816H131.457V111.676H130.007V116.413H128.986V106.788H130.007ZM122.348 113.792C123.105 113.792 123.986 113.792 124.904 113.765V112.788C123.819 112.626 123.11 111.971 123.121 111.042C123.11 109.957 124.05 109.243 125.42 109.237C126.784 109.243 127.735 109.957 127.74 111.042C127.735 111.971 127.015 112.632 125.925 112.788V113.728C126.779 113.685 127.638 113.615 128.438 113.502L128.503 114.254C126.419 114.625 124.168 114.646 122.509 114.641L122.348 113.792ZM122.53 108.743V107.927H124.904V106.81H125.925V107.927H128.299V108.743H122.53ZM124.077 111.042C124.077 111.654 124.614 112.036 125.42 112.03C126.226 112.036 126.757 111.654 126.763 111.042C126.757 110.424 126.226 110.032 125.42 110.032C124.614 110.032 124.077 110.424 124.077 111.042ZM140.771 111.203V111.987H131.962V111.203H140.771ZM133.004 113.395V112.664H139.686V114.78H134.035V115.575H139.986V116.295H133.015V114.104H138.676V113.395H133.004ZM133.068 107.755V107.035H139.664V109.119H134.1V109.85H139.825V110.569H133.09V108.442H138.644V107.755H133.068ZM152.404 106.788V116.413H151.427V111.482H150.191V115.919H149.235V106.981H150.191V110.645H151.427V106.788H152.404ZM144.616 113.964V107.927H145.637V113.067C146.523 113.056 147.495 112.986 148.591 112.771L148.698 113.663C147.377 113.899 146.276 113.969 145.239 113.964H144.616ZM157.088 113.137C157.088 113.969 157.501 114.845 158.372 115.376C159.252 114.802 159.671 113.867 159.677 113.137V112.621H160.676V113.137C160.676 114.13 161.331 115.119 162.609 115.521L162.083 116.284C161.138 115.946 160.493 115.301 160.16 114.506C159.854 115.28 159.279 116 158.388 116.37C157.475 116.021 156.889 115.339 156.588 114.549C156.245 115.307 155.605 115.946 154.703 116.284L154.209 115.521C155.439 115.092 156.1 114.071 156.11 113.137V112.621H157.088V113.137ZM153.822 109.592C153.817 108.26 154.886 107.314 156.336 107.314C157.582 107.314 158.57 108.05 158.791 109.141H160.676V106.788H161.696V112.245H160.676V109.979H158.807C158.608 111.096 157.609 111.858 156.336 111.858C154.886 111.858 153.817 110.918 153.822 109.592ZM154.8 109.592C154.794 110.424 155.444 111.01 156.336 111.01C157.206 111.01 157.856 110.424 157.861 109.592C157.856 108.743 157.206 108.168 156.336 108.174C155.444 108.168 154.794 108.743 154.8 109.592ZM170.677 106.788V110.516H172.224V111.354H170.677V116.435H169.656V106.788H170.677ZM163.587 114.039V107.712H168.088V108.539H164.607V113.19C166.224 113.185 167.433 113.115 168.808 112.868L168.937 113.728C167.427 113.996 166.149 114.044 164.36 114.039H163.587ZM173.781 115.575C173.362 115.57 173.013 115.231 173.019 114.812C173.013 114.394 173.362 114.05 173.781 114.05C174.195 114.05 174.539 114.394 174.544 114.812C174.539 115.231 174.195 115.57 173.781 115.575Z" fill="black"/>
<path d="M31.125 130.312V139.688C31.125 139.936 31.0262 140.175 30.8504 140.35C30.6746 140.526 30.4361 140.625 30.1875 140.625H20.8125C20.5639 140.625 20.3254 140.526 20.1496 140.35C19.9738 140.175 19.875 139.936 19.875 139.688V130.312C19.875 130.064 19.9738 129.825 20.1496 129.65C20.3254 129.474 20.5639 129.375 20.8125 129.375H30.1875C30.4361 129.375 30.6746 129.474 30.8504 129.65C31.0262 129.825 31.125 130.064 31.125 130.312ZM30.1875 139.688V130.312H20.8125V139.688H30.1875Z" fill="#AAAAAA"/>
<path d="M47.1309 134.482V135.31H38.3545V134.482H42.2324V133.623C40.4224 133.521 39.2944 132.86 39.2998 131.808C39.2944 130.647 40.6318 129.981 42.7373 129.981C44.8481 129.981 46.1694 130.647 46.1748 131.808C46.1694 132.866 45.0469 133.526 43.2207 133.623V134.482H47.1309ZM39.0098 138.575C40.8628 138.323 42.2163 137.367 42.2217 136.158V135.89H43.2529V136.158C43.2476 137.367 44.6011 138.323 46.4756 138.575L46.0781 139.37C44.5742 139.134 43.3228 138.473 42.7373 137.479C42.1465 138.473 40.895 139.134 39.3965 139.37L39.0098 138.575ZM40.3525 131.808C40.3472 132.468 41.2549 132.833 42.7373 132.839C44.209 132.833 45.1274 132.468 45.1221 131.808C45.1274 131.147 44.209 130.766 42.7373 130.766C41.2549 130.766 40.3472 131.147 40.3525 131.808ZM51.1592 132.882C51.1592 134.364 52.0669 135.933 53.501 136.62L52.9209 137.394C51.8735 136.899 51.084 135.895 50.6758 134.719C50.2515 135.992 49.4136 137.055 48.3125 137.565L47.7432 136.781C49.2095 136.11 50.1548 134.466 50.1602 132.882V132.248H48.0332V131.432H50.1494V129.981H51.1807V131.432H53.2754V132.248H51.1592V132.882ZM54.3389 139.413V129.788H55.3594V133.666H56.9062V134.525H55.3594V139.413H54.3389ZM65.3496 129.799V135.503H64.3291V129.799H65.3496ZM57.8516 131.185V130.368H62.2773V133.075H58.8721V134.235C60.5586 134.235 61.7886 134.187 63.2549 133.945L63.3838 134.783C61.8101 135.025 60.4995 135.079 58.6787 135.073H57.873V132.28H61.2676V131.185H57.8516ZM59.0225 139.295V135.986H65.3496V139.295H59.0225ZM60.0322 138.468H64.3506V136.803H60.0322V138.468ZM71.2578 129.949C73.4277 129.944 74.6899 130.529 74.6953 131.604C74.6899 132.683 73.4277 133.269 71.2578 133.269C69.0879 133.269 67.8149 132.683 67.8203 131.604C67.8149 130.529 69.0879 129.944 71.2578 129.949ZM66.875 134.676V133.859H75.6514V134.676H66.875ZM67.9277 136.18V135.417H74.5449V137.673H68.9375V138.532H74.8135V139.316H67.9385V136.932H73.5352V136.18H67.9277ZM68.8838 131.604C68.8784 132.2 69.7271 132.506 71.2578 132.506C72.7993 132.506 73.6479 132.2 73.6426 131.604C73.6479 131.034 72.7993 130.701 71.2578 130.701C69.7271 130.701 68.8784 131.034 68.8838 131.604ZM87.3281 129.788V139.413H86.3506V129.788H87.3281ZM78.9277 136.76C80.292 135.938 80.9849 134.187 80.9902 132.474V131.7H79.2178V130.873H83.6221V131.7H81.9678V132.474C81.9678 134.117 82.6338 135.766 83.9873 136.545L83.375 137.297C82.4565 136.749 81.8281 135.766 81.4897 134.606C81.146 135.863 80.4907 136.937 79.5508 137.522L78.9277 136.76ZM82.9131 134.031V133.193H84.4062V129.992H85.373V138.93H84.4062V134.031H82.9131ZM96.1367 129.799V132.893H97.5332V133.741H96.1367V136.996H95.1162V129.799H96.1367ZM88.585 131.743V130.916H90.9482V129.788H91.9688V130.916H94.3213V131.743H88.585ZM89.1113 134.021C89.106 132.919 90.0566 132.2 91.4531 132.205C92.8335 132.2 93.7842 132.919 93.7842 134.021C93.7842 135.111 92.8335 135.82 91.4531 135.825C90.0566 135.82 89.106 135.111 89.1113 134.021ZM90.0352 139.209V136.427H91.0557V138.382H96.5449V139.209H90.0352ZM90.0996 134.021C90.0889 134.649 90.6367 135.036 91.4531 135.03C92.2695 135.036 92.8174 134.649 92.8281 134.021C92.8174 133.387 92.2695 132.995 91.4531 132.989C90.6367 132.995 90.0889 133.387 90.0996 134.021ZM106.288 129.799V135.75H105.321V133.215H104.226V135.61H103.27V129.938H104.226V132.388H105.321V129.799H106.288ZM98.0273 131.646V130.83H99.9717V129.831H100.981V130.83H102.894V131.646H98.0273ZM98.4033 133.741C98.4033 132.726 99.2627 132.076 100.466 132.076C101.696 132.076 102.55 132.726 102.55 133.741C102.55 134.724 101.696 135.396 100.466 135.396C99.2627 135.396 98.4033 134.724 98.4033 133.741ZM98.6719 138.521C99.8911 138.135 100.579 137.189 100.584 136.319V136.029H101.583V136.319C101.578 137.104 101.975 137.92 102.834 138.403C103.705 137.877 104.129 137.007 104.129 136.319V136.029H105.139V136.319C105.133 137.243 105.805 138.167 107.051 138.521L106.567 139.295C105.611 138.983 104.961 138.36 104.623 137.598C104.328 138.344 103.753 139.037 102.861 139.381C101.938 139.048 101.357 138.398 101.062 137.641C100.713 138.366 100.063 138.978 99.1553 139.295L98.6719 138.521ZM99.3164 133.741C99.3164 134.289 99.7837 134.638 100.466 134.644C101.159 134.638 101.631 134.289 101.626 133.741C101.631 133.167 101.159 132.823 100.466 132.828C99.7837 132.823 99.3164 133.167 99.3164 133.741ZM115.086 129.788V133.516H116.633V134.354H115.086V139.435H114.065V129.788H115.086ZM107.996 137.039V130.712H112.497V131.539H109.017V136.19C110.633 136.185 111.842 136.115 113.217 135.868L113.346 136.728C111.836 136.996 110.558 137.044 108.77 137.039H107.996ZM118.19 138.575C117.771 138.57 117.422 138.231 117.428 137.812C117.422 137.394 117.771 137.05 118.19 137.05C118.604 137.05 118.948 137.394 118.953 137.812C118.948 138.231 118.604 138.57 118.19 138.575Z" fill="black"/>
<path d="M31.125 153.312V162.688C31.125 162.936 31.0262 163.175 30.8504 163.35C30.6746 163.526 30.4361 163.625 30.1875 163.625H20.8125C20.5639 163.625 20.3254 163.526 20.1496 163.35C19.9738 163.175 19.875 162.936 19.875 162.688V153.312C19.875 153.064 19.9738 152.825 20.1496 152.65C20.3254 152.474 20.5639 152.375 20.8125 152.375H30.1875C30.4361 152.375 30.6746 152.474 30.8504 152.65C31.0262 152.825 31.125 153.064 31.125 153.312ZM30.1875 162.688V153.312H20.8125V162.688H30.1875Z" fill="#AAAAAA"/>
<path d="M46.3359 152.799V159.889H45.3154V152.799H46.3359ZM38.5156 157.966C40.0034 157.499 40.9165 156.312 40.9111 155.033V154.84H38.7734V154.023H40.9111V152.831H41.9424V154.023H44.0586V154.84H41.9316V155.033C41.9263 156.242 42.8608 157.348 44.3486 157.794L43.8545 158.6C42.7212 158.25 41.8779 157.525 41.4429 156.596C41.0132 157.601 40.1699 158.396 39.0205 158.761L38.5156 157.966ZM40.041 162.209V159.233H41.0723V161.382H46.626V162.209H40.041ZM55.5205 153.39V154.238C55.5205 155.151 55.5205 156.145 55.252 157.515H56.6377V158.353H52.7383V162.424H51.707V158.353H47.8613V157.515H54.2207C54.5054 156.14 54.5054 155.135 54.5107 154.238V154.228H48.9355V153.39H55.5205ZM66.1553 156.73V157.547H57.3682V156.73H66.1553ZM58.4209 159.094V158.31H65.0381V160.641H59.4307V161.5H65.3066V162.306H58.4316V159.889H64.0283V159.094H58.4209ZM58.5176 156.032V153.067H65.0166V153.895H59.5381V155.216H65.1133V156.032H58.5176ZM71.2578 152.949C73.4277 152.944 74.6899 153.529 74.6953 154.604C74.6899 155.683 73.4277 156.269 71.2578 156.269C69.0879 156.269 67.8149 155.683 67.8203 154.604C67.8149 153.529 69.0879 152.944 71.2578 152.949ZM66.875 157.676V156.859H75.6514V157.676H66.875ZM67.9277 159.18V158.417H74.5449V160.673H68.9375V161.532H74.8135V162.316H67.9385V159.932H73.5352V159.18H67.9277ZM68.8838 154.604C68.8784 155.2 69.7271 155.506 71.2578 155.506C72.7993 155.506 73.6479 155.2 73.6426 154.604C73.6479 154.034 72.7993 153.701 71.2578 153.701C69.7271 153.701 68.8784 154.034 68.8838 154.604ZM86.7266 153.186V156.44H83.9551V157.493H87.8438V158.32H79.0674V157.493H82.9561V156.44H80.1846V153.186H86.7266ZM79.7227 161.554C81.5757 161.301 82.9292 160.351 82.9346 159.147V158.868H83.9658V159.147C83.9604 160.351 85.314 161.301 87.1885 161.554L86.8018 162.359C85.2925 162.123 84.0356 161.457 83.4502 160.469C82.8594 161.457 81.6079 162.123 80.0986 162.359L79.7227 161.554ZM81.1836 155.624H85.7168V153.991H81.1836V155.624ZM96.1367 153.637V158.127H91.6357V153.637H96.1367ZM92.6348 157.321H95.1377V154.464H92.6348V157.321ZM92.7207 162.209V159.158H93.7412V161.382H99.2305V162.209H92.7207ZM97.8018 159.835V152.777H98.8223V155.656H100.219V156.516H98.8223V159.835H97.8018ZM109.758 156.569V157.407H108.265V162.402H107.244V152.788H108.265V156.569H109.758ZM101.132 159.985V153.723H102.142V159.137C103.484 159.131 104.886 159.019 106.417 158.707L106.535 159.566C104.886 159.894 103.372 159.991 101.927 159.985H101.132ZM118.545 152.788V162.413H117.578V152.788H118.545ZM110.241 159.631C112.282 158.417 113.26 156.8 113.437 154.818H110.692V153.98H114.452C114.447 154.92 114.318 155.817 114.022 156.655H115.548V153.035H116.515V161.94H115.548V157.472H113.668C113.099 158.589 112.18 159.566 110.821 160.361L110.241 159.631ZM130.673 152.799V158.75H129.706V156.215H128.61V158.61H127.654V152.938H128.61V155.388H129.706V152.799H130.673ZM122.412 154.646V153.83H124.356V152.831H125.366V153.83H127.278V154.646H122.412ZM122.788 156.741C122.788 155.726 123.647 155.076 124.851 155.076C126.081 155.076 126.935 155.726 126.935 156.741C126.935 157.724 126.081 158.396 124.851 158.396C123.647 158.396 122.788 157.724 122.788 156.741ZM123.057 161.521C124.276 161.135 124.963 160.189 124.969 159.319V159.029H125.968V159.319C125.962 160.104 126.36 160.92 127.219 161.403C128.089 160.877 128.514 160.007 128.514 159.319V159.029H129.523V159.319C129.518 160.243 130.189 161.167 131.436 161.521L130.952 162.295C129.996 161.983 129.346 161.36 129.008 160.598C128.712 161.344 128.138 162.037 127.246 162.381C126.322 162.048 125.742 161.398 125.447 160.641C125.098 161.366 124.448 161.978 123.54 162.295L123.057 161.521ZM123.701 156.741C123.701 157.289 124.168 157.638 124.851 157.644C125.543 157.638 126.016 157.289 126.011 156.741C126.016 156.167 125.543 155.823 124.851 155.828C124.168 155.823 123.701 156.167 123.701 156.741ZM139.471 152.788V156.516H141.018V157.354H139.471V162.435H138.45V152.788H139.471ZM132.381 160.039V153.712H136.882V154.539H133.401V159.19C135.018 159.185 136.227 159.115 137.602 158.868L137.73 159.728C136.221 159.996 134.943 160.044 133.154 160.039H132.381ZM142.575 161.575C142.156 161.57 141.807 161.231 141.812 160.812C141.807 160.394 142.156 160.05 142.575 160.05C142.989 160.05 143.333 160.394 143.338 160.812C143.333 161.231 142.989 161.57 142.575 161.575Z" fill="black"/>
<path d="M31.125 176.312V185.688C31.125 185.936 31.0262 186.175 30.8504 186.35C30.6746 186.526 30.4361 186.625 30.1875 186.625H20.8125C20.5639 186.625 20.3254 186.526 20.1496 186.35C19.9738 186.175 19.875 185.936 19.875 185.688V176.312C19.875 176.064 19.9738 175.825 20.1496 175.65C20.3254 175.474 20.5639 175.375 20.8125 175.375H30.1875C30.4361 175.375 30.6746 175.474 30.8504 175.65C31.0262 175.825 31.125 176.064 31.125 176.312ZM30.1875 185.688V176.312H20.8125V185.688H30.1875Z" fill="#AAAAAA"/>
<path d="M47.1523 180.654V181.481H43.3281V183.351H42.3184V181.481H38.3438V180.654H47.1523ZM39.4395 185.209V182.438H40.46V184.382H46.1748V185.209H39.4395ZM39.4717 179.655V176.239H46.0137V179.655H39.4717ZM40.4707 178.85H45.0039V177.045H40.4707V178.85ZM52.2441 175.949C54.4141 175.944 55.6763 176.529 55.6816 177.604C55.6763 178.683 54.4141 179.269 52.2441 179.269C50.0742 179.269 48.8013 178.683 48.8066 177.604C48.8013 176.529 50.0742 175.944 52.2441 175.949ZM47.8613 180.676V179.859H56.6377V180.676H47.8613ZM48.9141 182.18V181.417H55.5312V183.673H49.9238V184.532H55.7998V185.316H48.9248V182.932H54.5215V182.18H48.9141ZM49.8701 177.604C49.8647 178.2 50.7134 178.506 52.2441 178.506C53.7856 178.506 54.6343 178.2 54.6289 177.604C54.6343 177.034 53.7856 176.701 52.2441 176.701C50.7134 176.701 49.8647 177.034 49.8701 177.604ZM65.4141 176.325V176.959C65.4033 177.689 65.4033 178.667 65.1562 179.978L64.1465 179.902C64.2324 179.451 64.2915 179.043 64.3237 178.672L60.5264 178.925L60.3867 178.098L64.3774 177.915C64.3882 177.641 64.3936 177.389 64.3936 177.152H60.623V176.325H65.4141ZM59.9785 180.611C60.5908 180.611 61.2837 180.606 62.0088 180.59V179.29H63.0078V180.558C64.0283 180.515 65.0649 180.45 66.0156 180.332L66.0801 181.041C64.0713 181.369 61.7939 181.422 60.0752 181.428L59.9785 180.611ZM61.2354 183.684C61.2354 182.62 62.46 182.008 64.4902 182.008C66.5205 182.008 67.7451 182.62 67.7451 183.684C67.7451 184.736 66.5205 185.333 64.4902 185.338C62.46 185.333 61.2354 184.736 61.2354 183.684ZM62.2773 183.684C62.272 184.231 63.0884 184.554 64.4902 184.554C65.876 184.554 66.6924 184.231 66.7031 183.684C66.6924 183.109 65.876 182.803 64.4902 182.803C63.0884 182.803 62.272 183.109 62.2773 183.684ZM66.6279 181.954V175.788H67.6699V178.452H69.002V179.301H67.6699V181.954H66.6279ZM79.8086 175.788V178.012H81.2051V178.85H79.8086V181.191H78.7881V175.788H79.8086ZM72.6758 180.697V176.4H76.9512V177.238H73.6855V179.849C75.5601 179.843 76.6128 179.784 77.8213 179.526L77.9395 180.364C76.6396 180.627 75.501 180.697 73.4385 180.697H72.6758ZM73.6855 185.295V181.707H79.8945V182.534H74.7061V184.468H80.0664V185.295H73.6855ZM89.541 176.712V177.657C89.5356 178.844 89.5356 180.176 89.1758 182.147L88.1445 182.04C88.5151 180.176 88.5151 178.812 88.5205 177.657V177.539H82.6768V176.712H89.541ZM81.7529 184.113V183.265H85.0938V179.87H86.1035V183.265H90.5293V184.113H81.7529ZM98.4033 181.782C100.385 181.782 101.594 182.448 101.594 183.587C101.594 184.742 100.385 185.408 98.4033 185.413C96.3999 185.408 95.1699 184.742 95.1699 183.587C95.1699 182.448 96.3999 181.782 98.4033 181.782ZM94.3213 180.858V176.39H95.3203V177.775H97.8447V176.39H98.8545V180.858H94.3213ZM95.3203 180.042H97.8447V178.581H95.3203V180.042ZM96.1904 183.587C96.1851 184.231 97.0122 184.597 98.4033 184.597C99.7837 184.597 100.6 184.231 100.595 183.587C100.6 182.948 99.7837 182.588 98.4033 182.588C97.0122 182.588 96.1851 182.948 96.1904 183.587ZM100.487 181.535V175.788H101.508V178.141H102.904V179.011H101.508V181.535H100.487ZM107.835 175.949C110.005 175.944 111.267 176.529 111.272 177.604C111.267 178.683 110.005 179.269 107.835 179.269C105.665 179.269 104.392 178.683 104.397 177.604C104.392 176.529 105.665 175.944 107.835 175.949ZM103.452 180.676V179.859H112.229V180.676H103.452ZM104.505 182.18V181.417H111.122V183.673H105.515V184.532H111.391V185.316H104.516V182.932H110.112V182.18H104.505ZM105.461 177.604C105.456 178.2 106.304 178.506 107.835 178.506C109.376 178.506 110.225 178.2 110.22 177.604C110.225 177.034 109.376 176.701 107.835 176.701C106.304 176.701 105.456 177.034 105.461 177.604ZM124.636 179.569V180.407H123.143V185.402H122.122V175.788H123.143V179.569H124.636ZM116.01 182.985V176.723H117.02V182.137C118.362 182.131 119.764 182.019 121.295 181.707L121.413 182.566C119.764 182.894 118.25 182.991 116.805 182.985H116.01ZM132.714 175.777V178.108H134.11V178.946H132.714V181.159H131.693V175.777H132.714ZM125.13 180.558C127.423 179.94 128.777 178.721 128.954 177.206H125.581V176.379H130.071C130.071 178.855 128.385 180.622 125.517 181.374L125.13 180.558ZM125.517 184.564C126.741 184.113 127.418 183.104 127.418 182.158V181.524H128.396V182.158C128.39 182.996 128.793 183.872 129.668 184.414C130.56 183.829 130.968 182.899 130.974 182.158V181.524H131.973V182.158C131.973 183.173 132.628 184.146 133.885 184.564L133.369 185.306C132.424 184.973 131.79 184.328 131.468 183.533C131.167 184.312 130.592 185.026 129.695 185.392C128.766 185.048 128.186 184.366 127.891 183.565C127.552 184.333 126.924 184.973 126.032 185.306L125.517 184.564ZM142.156 175.788V179.516H143.703V180.354H142.156V185.435H141.136V175.788H142.156ZM135.066 183.039V176.712H139.567V177.539H136.087V182.19C137.704 182.185 138.912 182.115 140.287 181.868L140.416 182.728C138.907 182.996 137.628 183.044 135.84 183.039H135.066ZM145.261 184.575C144.842 184.57 144.493 184.231 144.498 183.812C144.493 183.394 144.842 183.05 145.261 183.05C145.674 183.05 146.018 183.394 146.023 183.812C146.018 184.231 145.674 184.57 145.261 184.575Z" fill="black"/>
<path d="M31.125 199.312V208.688C31.125 208.936 31.0262 209.175 30.8504 209.35C30.6746 209.526 30.4361 209.625 30.1875 209.625H20.8125C20.5639 209.625 20.3254 209.526 20.1496 209.35C19.9738 209.175 19.875 208.936 19.875 208.688V199.312C19.875 199.064 19.9738 198.825 20.1496 198.65C20.3254 198.474 20.5639 198.375 20.8125 198.375H30.1875C30.4361 198.375 30.6746 198.474 30.8504 198.65C31.0262 198.825 31.125 199.064 31.125 199.312ZM30.1875 208.688V199.312H20.8125V208.688H30.1875Z" fill="#AAAAAA"/>
<path d="M47.1309 204.213V205.04H43.2207V208.402H42.2217V205.04H38.3545V204.213H47.1309ZM38.8486 202.677C40.6426 202.43 42.1357 201.361 42.168 200.174H39.1709V199.357H46.3037V200.174H43.3281C43.3442 201.361 44.8267 202.43 46.6475 202.677L46.2715 203.482C44.6924 203.235 43.3281 202.457 42.7427 201.361C42.1519 202.457 40.793 203.235 39.2354 203.482L38.8486 202.677ZM51.0195 199.229C52.4697 199.223 53.5171 200.034 53.5225 201.227C53.5171 202.408 52.4697 203.225 51.0195 203.214C49.5747 203.225 48.5327 202.408 48.5381 201.227C48.5327 200.034 49.5747 199.223 51.0195 199.229ZM47.8506 203.966C49.6284 203.966 52.083 203.928 54.1885 203.611L54.2637 204.374C53.3828 204.541 52.4751 204.643 51.5889 204.702V208.112H50.5684V204.761C49.6338 204.804 48.7529 204.809 47.9902 204.814L47.8506 203.966ZM49.5264 201.227C49.5156 201.925 50.144 202.387 51.0195 202.376C51.9165 202.387 52.5449 201.925 52.5449 201.227C52.5449 200.523 51.9165 200.05 51.0195 200.056C50.144 200.05 49.5156 200.523 49.5264 201.227ZM54.8545 208.413V198.799H55.8643V208.413H54.8545ZM60.5049 199.476C62.0249 199.47 63.1206 200.41 63.126 201.764C63.1206 203.117 62.0249 204.057 60.5049 204.062C58.9902 204.057 57.8784 203.117 57.8838 201.764C57.8784 200.41 58.9902 199.47 60.5049 199.476ZM57.4219 205.513C59.1729 205.513 61.6006 205.497 63.7061 205.19L63.7812 205.932C61.606 206.351 59.2695 206.361 57.5508 206.361L57.4219 205.513ZM58.8936 201.764C58.8828 202.618 59.5703 203.171 60.5049 203.171C61.4395 203.171 62.127 202.618 62.127 201.764C62.127 200.92 61.4395 200.356 60.5049 200.356C59.5703 200.356 58.8828 200.92 58.8936 201.764ZM64.3076 208.435V198.788H65.3281V208.435H64.3076ZM78.3369 202.773V203.59H74.4482V204.428H77.2305V206.684H71.623V207.532H77.499V208.316H70.624V205.942H76.2207V205.212H70.6133V204.428H73.4277V203.59H69.5605V202.773H78.3369ZM70.6885 202.064V199.1H77.209V202.064H70.6885ZM71.6875 201.259H76.1885V199.905H71.6875V201.259ZM87.0918 198.799V205.889H86.0713V202.548H84.0732V201.699H86.0713V198.799H87.0918ZM79.207 203.998C81.3501 203.305 82.8057 202 83.0151 200.367H79.7012V199.519H84.1377C84.127 202.032 82.4028 203.923 79.6367 204.814L79.207 203.998ZM80.8936 208.209V205.158H81.9248V207.382H87.3389V208.209H80.8936ZM92.957 198.949C95.127 198.944 96.3892 199.529 96.3945 200.604C96.3892 201.683 95.127 202.269 92.957 202.269C90.7871 202.269 89.5142 201.683 89.5195 200.604C89.5142 199.529 90.7871 198.944 92.957 198.949ZM88.5742 203.676V202.859H97.3506V203.676H88.5742ZM89.627 205.18V204.417H96.2441V206.673H90.6367V207.532H96.5127V208.316H89.6377V205.932H95.2344V205.18H89.627ZM90.583 200.604C90.5776 201.2 91.4263 201.506 92.957 201.506C94.4985 201.506 95.3472 201.2 95.3418 200.604C95.3472 200.034 94.4985 199.701 92.957 199.701C91.4263 199.701 90.5776 200.034 90.583 200.604ZM105.751 199.54V200.378H102.346V203.601C103.957 203.601 105.031 203.547 106.267 203.311L106.374 204.138C105.031 204.374 103.871 204.438 102.077 204.438H101.336V199.54H105.751ZM102.518 208.263V205.266H103.549V207.436H109.038V208.263H102.518ZM105.149 202.226V201.409H107.771V198.799H108.791V205.813H107.771V202.226H105.149ZM113.818 201.624C113.813 203.235 114.871 204.9 116.354 205.534L115.795 206.329C114.662 205.83 113.759 204.766 113.313 203.482C112.868 204.857 111.965 206.028 110.843 206.576L110.252 205.771C111.702 205.088 112.776 203.284 112.787 201.624V200.604H110.585V199.755H116.01V200.604H113.818V201.624ZM117.224 208.413V198.788H118.244V208.413H117.224ZM127.794 198.788V208.413H126.784V203.439H124.625V202.602H126.784V198.788H127.794ZM119.759 205.824C122.31 204.578 123.443 202.843 123.621 200.636H120.188V199.819H124.657C124.646 202.607 123.562 205.013 120.296 206.63L119.759 205.824ZM138.278 202.569V203.407H136.785V208.402H135.765V198.788H136.785V202.569H138.278ZM129.652 205.985V199.723H130.662V205.137C132.005 205.131 133.407 205.019 134.938 204.707L135.056 205.566C133.407 205.894 131.892 205.991 130.447 205.985H129.652ZM150.277 204.449V205.255H146.346V208.413H145.347V205.255H141.469V204.449H150.277ZM142.564 203.354V199.175H143.574V200.432H148.15V199.175H149.171V203.354H142.564ZM143.574 202.537H148.15V201.248H143.574V202.537ZM154.628 199.229C154.628 200.12 155.503 200.888 156.895 201.173L156.454 201.936C155.353 201.699 154.531 201.151 154.112 200.41C153.704 201.21 152.872 201.817 151.738 202.086L151.298 201.312C152.694 200.996 153.57 200.185 153.564 199.229V198.938H154.628V199.229ZM150.933 202.548C152.716 202.542 155.09 202.521 157.131 202.258L157.185 202.956C156.288 203.106 155.358 203.198 154.445 203.251V204.771H153.436V203.294C152.587 203.327 151.781 203.332 151.062 203.332L150.933 202.548ZM151.491 207.521C152.727 207.162 153.409 206.243 153.414 205.319V205.158H154.381V205.319C154.386 206.071 154.8 206.915 155.681 207.419C156.54 206.909 156.959 206.066 156.97 205.319V205.158H157.979V205.319C157.974 206.243 158.64 207.162 159.892 207.521L159.397 208.295C158.452 207.989 157.802 207.376 157.464 206.625C157.163 207.371 156.578 208.037 155.681 208.37C154.773 208.037 154.193 207.382 153.897 206.635C153.559 207.382 152.915 207.989 151.985 208.295L151.491 207.521ZM156.003 204.32V203.611H157.979V198.788H159V204.847H157.979V204.32H156.003ZM167.991 198.788V202.516H169.538V203.354H167.991V208.435H166.971V198.788H167.991ZM160.901 206.039V199.712H165.402V200.539H161.922V205.19C163.539 205.185 164.747 205.115 166.122 204.868L166.251 205.728C164.742 205.996 163.463 206.044 161.675 206.039H160.901ZM171.096 207.575C170.677 207.57 170.328 207.231 170.333 206.812C170.328 206.394 170.677 206.05 171.096 206.05C171.509 206.05 171.853 206.394 171.858 206.812C171.853 207.231 171.509 207.57 171.096 207.575Z" fill="black"/>
<path d="M31.125 222.312V231.688C31.125 231.936 31.0262 232.175 30.8504 232.35C30.6746 232.526 30.4361 232.625 30.1875 232.625H20.8125C20.5639 232.625 20.3254 232.526 20.1496 232.35C19.9738 232.175 19.875 231.936 19.875 231.688V222.312C19.875 222.064 19.9738 221.825 20.1496 221.65C20.3254 221.474 20.5639 221.375 20.8125 221.375H30.1875C30.4361 221.375 30.6746 221.474 30.8504 221.65C31.0262 221.825 31.125 222.064 31.125 222.312ZM30.1875 231.688V222.312H20.8125V231.688H30.1875Z" fill="#AAAAAA"/>
<path d="M44.7568 221.981V225.655H45.7773V221.788H46.7441V231.413H45.7773V226.493H44.7568V230.951H43.8115V221.981H44.7568ZM38.6016 228.964V222.98H40.6855V223.818H39.5361V228.094C39.8745 228.078 40.272 228.029 40.7178 227.922L40.8037 228.781C40.0303 228.948 39.4395 228.964 38.999 228.964H38.6016ZM41.083 228.964V222.98H43.2207V223.818H42.0068V228.099C42.415 228.088 42.877 228.04 43.3818 227.9L43.4678 228.76C42.6943 228.953 42.0605 228.964 41.4912 228.964H41.083ZM55.8535 221.788V231.435H54.833V221.788H55.8535ZM48.3984 223.485V222.658H52.9102V226.171H49.4512V228.276C51.0142 228.271 52.373 228.196 53.9844 227.933L54.0811 228.771C52.3784 229.055 50.9282 229.12 49.2256 229.125H48.4092V225.354H51.8682V223.485H48.3984ZM60.9131 224.624C60.9077 226.235 61.9658 227.9 63.4482 228.534L62.8896 229.329C61.7563 228.83 60.854 227.766 60.4082 226.482C59.9624 227.857 59.0601 229.028 57.9375 229.576L57.3467 228.771C58.7969 228.088 59.8711 226.284 59.8818 224.624V223.604H57.6797V222.755H63.1045V223.604H60.9131V224.624ZM64.3184 231.413V221.788H65.3389V231.413H64.3184ZM74.6631 224.603V225.419H68.0352V222.132H69.0449V224.603H74.6631ZM66.8643 227.449V226.633H75.6729V227.449H66.8643ZM67.96 231.188V228.362H68.9805V230.35H74.7275V231.188H67.96ZM81.7422 222.304C83.1978 222.309 84.2666 223.233 84.2666 224.538C84.2666 225.849 83.1978 226.767 81.7422 226.772C80.292 226.767 79.207 225.849 79.2178 224.538C79.207 223.233 80.292 222.309 81.7422 222.304ZM80.0342 231.155V227.578H81.0332V230.317C81.5972 230.291 82.2471 230.21 82.8594 230.006L83.0098 230.812C82.1128 231.118 81.248 231.155 80.5283 231.155H80.0342ZM80.2061 224.538C80.2007 225.36 80.8721 225.935 81.7422 225.935C82.6177 225.935 83.2783 225.36 83.2783 224.538C83.2783 223.722 82.6177 223.152 81.7422 223.152C80.8721 223.152 80.2007 223.722 80.2061 224.538ZM82.6768 228.395V227.61H84.6211V226.826H85.6201V227.61H87.5322V228.395H82.6768ZM83.2891 230.049C83.2783 229.211 84.0195 228.679 85.1045 228.674C86.168 228.679 86.9199 229.211 86.9199 230.049C86.9199 230.876 86.168 231.397 85.1045 231.392C84.0195 231.397 83.2783 230.876 83.2891 230.049ZM84.1914 230.049C84.1914 230.441 84.5728 230.683 85.1045 230.683C85.6255 230.683 86.0015 230.441 86.0068 230.049C86.0015 229.657 85.6255 229.404 85.1045 229.404C84.5728 229.404 84.1914 229.657 84.1914 230.049ZM85.6094 226.579V221.788H86.6299V223.894H88.0264V224.742H86.6299V226.579H85.6094ZM91.2812 222.336C92.7583 222.336 93.8379 223.265 93.8486 224.624C93.8379 225.967 92.7583 226.907 91.2812 226.901C89.8096 226.907 88.7139 225.967 88.7246 224.624C88.7139 223.265 89.8096 222.336 91.2812 222.336ZM88.9287 230.532C90.1479 230.092 90.8354 229.071 90.8301 228.137V227.653H91.8076V228.137C91.8022 228.969 92.2104 229.839 93.0859 230.376C93.9722 229.796 94.3911 228.867 94.3965 228.137V227.653H95.3955V228.137C95.3955 229.141 96.0508 230.119 97.3076 230.532L96.792 231.295C95.8521 230.951 95.2129 230.307 94.8853 229.517C94.5791 230.291 94.0044 231.01 93.1074 231.381C92.189 231.026 91.6089 230.339 91.3135 229.549C90.9644 230.312 90.3306 230.957 89.4336 231.295L88.9287 230.532ZM89.7236 224.624C89.7129 225.478 90.3789 226.042 91.2812 226.053C92.1836 226.042 92.8442 225.478 92.8496 224.624C92.8442 223.775 92.1836 223.19 91.2812 223.195C90.3789 223.19 89.7129 223.775 89.7236 224.624ZM95.1162 227.234V221.788H96.1367V224.022H97.5332V224.86H96.1367V227.234H95.1162ZM101.626 224.624C101.621 226.235 102.679 227.9 104.161 228.534L103.603 229.329C102.469 228.83 101.567 227.766 101.121 226.482C100.675 227.857 99.7729 229.028 98.6504 229.576L98.0596 228.771C99.5098 228.088 100.584 226.284 100.595 224.624V223.604H98.3926V222.755H103.817V223.604H101.626V224.624ZM105.031 231.413V221.788H106.052V231.413H105.031ZM112.465 222.637V227.127H107.964V222.637H112.465ZM108.963 226.321H111.466V223.464H108.963V226.321ZM109.049 231.209V228.158H110.069V230.382H115.559V231.209H109.049ZM114.13 228.835V221.777H115.15V224.656H116.547V225.516H115.15V228.835H114.13ZM122.938 222.229C124.389 222.223 125.436 223.034 125.441 224.227C125.436 225.408 124.389 226.225 122.938 226.214C121.494 226.225 120.452 225.408 120.457 224.227C120.452 223.034 121.494 222.223 122.938 222.229ZM119.77 226.966C121.547 226.966 124.002 226.928 126.107 226.611L126.183 227.374C125.302 227.541 124.394 227.643 123.508 227.702V231.112H122.487V227.761C121.553 227.804 120.672 227.809 119.909 227.814L119.77 226.966ZM121.445 224.227C121.435 224.925 122.063 225.387 122.938 225.376C123.835 225.387 124.464 224.925 124.464 224.227C124.464 223.523 123.835 223.05 122.938 223.056C122.063 223.05 121.435 223.523 121.445 224.227ZM126.773 231.413V221.799H127.783V231.413H126.773ZM134.712 222.712V223.528H129.298V222.712H131.554V221.702H132.563V222.712H134.712ZM129.835 225.677C129.835 224.64 130.737 223.942 132.048 223.937C133.342 223.942 134.266 224.64 134.271 225.677C134.266 226.724 133.342 227.412 132.048 227.417C130.737 227.412 129.835 226.724 129.835 225.677ZM130.791 225.677C130.786 226.273 131.285 226.654 132.048 226.654C132.8 226.654 133.315 226.273 133.326 225.677C133.315 225.091 132.8 224.715 132.048 224.721C131.285 224.715 130.786 225.091 130.791 225.677ZM130.974 231.295V227.879H131.983V228.792H136.302V227.879H137.312V231.295H130.974ZM131.983 230.489H136.302V229.576H131.983V230.489ZM134.733 226.687V225.859H136.291V224.807H134.744V223.969H136.291V221.788H137.312V227.492H136.291V226.687H134.733ZM146.356 221.799V224.893H147.753V225.741H146.356V228.996H145.336V221.799H146.356ZM138.805 223.743V222.916H141.168V221.788H142.188V222.916H144.541V223.743H138.805ZM139.331 226.021C139.326 224.919 140.276 224.2 141.673 224.205C143.053 224.2 144.004 224.919 144.004 226.021C144.004 227.111 143.053 227.82 141.673 227.825C140.276 227.82 139.326 227.111 139.331 226.021ZM140.255 231.209V228.427H141.275V230.382H146.765V231.209H140.255ZM140.319 226.021C140.309 226.649 140.856 227.036 141.673 227.03C142.489 227.036 143.037 226.649 143.048 226.021C143.037 225.387 142.489 224.995 141.673 224.989C140.856 224.995 140.309 225.387 140.319 226.021ZM154.435 223.496C154.429 224.71 155.299 225.897 156.755 226.396L156.229 227.191C155.149 226.821 154.349 226.047 153.93 225.097C153.511 226.155 152.667 227.003 151.523 227.406L150.997 226.601C152.474 226.096 153.398 224.812 153.393 223.507V223.238H151.309V222.411H156.497V223.238H154.435V223.496ZM152.49 228.856V228.029H159.011V231.413H157.99V228.856H152.49ZM156.207 225.075V224.237H157.99V221.788H159.011V227.546H157.99V225.075H156.207ZM168.464 221.788V231.435H167.443V221.788H168.464ZM160.826 225.881C160.826 223.824 161.863 222.513 163.318 222.508C164.747 222.513 165.8 223.824 165.8 225.881C165.8 227.959 164.747 229.27 163.318 229.265C161.863 229.27 160.826 227.959 160.826 225.881ZM161.814 225.881C161.809 227.412 162.421 228.352 163.318 228.352C164.199 228.352 164.812 227.412 164.812 225.881C164.812 224.372 164.199 223.426 163.318 223.421C162.421 223.426 161.809 224.372 161.814 225.881ZM176.026 228.147C176.026 228.975 176.435 229.85 177.31 230.371C178.191 229.807 178.626 228.889 178.626 228.147V227.686H179.625V228.147C179.62 229.146 180.28 230.113 181.537 230.521L181.032 231.273C180.082 230.946 179.432 230.301 179.099 229.517C178.792 230.291 178.218 230.994 177.337 231.359C176.413 231.01 175.828 230.328 175.532 229.544C175.183 230.301 174.549 230.94 173.642 231.273L173.126 230.521C174.361 230.081 175.033 229.077 175.038 228.147V227.686H176.026V228.147ZM172.879 224.603C172.884 223.254 173.969 222.331 175.446 222.325C176.918 222.331 178.003 223.254 178.003 224.603C178.003 225.935 176.918 226.858 175.446 226.858C173.969 226.858 172.884 225.935 172.879 224.603ZM173.878 224.603C173.873 225.44 174.533 226.01 175.446 226.01C176.349 226.01 177.004 225.44 177.004 224.603C177.004 223.759 176.349 223.19 175.446 223.195C174.533 223.19 173.873 223.759 173.878 224.603ZM179.646 227.277V221.799H180.667V227.277H179.646ZM189.69 221.788V225.516H191.237V226.354H189.69V231.435H188.67V221.788H189.69ZM182.601 229.039V222.712H187.102V223.539H183.621V228.19C185.238 228.185 186.446 228.115 187.821 227.868L187.95 228.728C186.441 228.996 185.163 229.044 183.374 229.039H182.601ZM192.795 230.575C192.376 230.57 192.027 230.231 192.032 229.812C192.027 229.394 192.376 229.05 192.795 229.05C193.208 229.05 193.552 229.394 193.558 229.812C193.552 230.231 193.208 230.57 192.795 230.575Z" fill="black"/>
<path d="M31.125 245.312V254.688C31.125 254.936 31.0262 255.175 30.8504 255.35C30.6746 255.526 30.4361 255.625 30.1875 255.625H20.8125C20.5639 255.625 20.3254 255.526 20.1496 255.35C19.9738 255.175 19.875 254.936 19.875 254.688V245.312C19.875 245.064 19.9738 244.825 20.1496 244.65C20.3254 244.474 20.5639 244.375 20.8125 244.375H30.1875C30.4361 244.375 30.6746 244.474 30.8504 244.65C31.0262 244.825 31.125 245.064 31.125 245.312ZM30.1875 254.688V245.312H20.8125V254.688H30.1875Z" fill="#AAAAAA"/>
<path d="M41.083 245.11C42.5332 245.121 43.6021 246.007 43.6074 247.27C43.6021 248.537 42.5332 249.418 41.083 249.418C39.6167 249.418 38.5532 248.537 38.5479 247.27C38.5532 246.007 39.6167 245.121 41.083 245.11ZM39.5469 247.27C39.5415 248.064 40.1968 248.591 41.083 248.591C41.9639 248.591 42.6191 248.064 42.6191 247.27C42.6191 246.485 41.9639 245.959 41.083 245.97C40.1968 245.959 39.5415 246.485 39.5469 247.27ZM40.0088 250.943V250.127H46.3359V252.555H41.0293V253.479H46.6582V254.295H40.041V251.792H45.3262V250.943H40.0088ZM45.3154 249.687V244.788H46.3359V249.687H45.3154ZM55.8857 244.788V250.514H54.8652V248.075H53.0713V247.237H54.8652V244.788H55.8857ZM47.8613 249.644C49.3545 249.123 50.2729 247.823 50.2676 246.496V246.281H48.1836V245.454H53.3721V246.281H51.3096V246.485C51.3042 247.705 52.1743 248.892 53.6299 249.386L53.1035 250.191C52.0239 249.821 51.229 249.047 50.8101 248.097C50.3911 249.171 49.5479 250.036 48.3984 250.46L47.8613 249.644ZM49.4082 252.598C49.4028 251.454 50.6382 250.788 52.6631 250.782C54.6772 250.788 55.9126 251.454 55.918 252.598C55.9126 253.742 54.6772 254.408 52.6631 254.413C50.6382 254.408 49.4028 253.742 49.4082 252.598ZM50.418 252.598C50.4126 253.248 51.2505 253.618 52.6631 253.607C54.0649 253.618 54.9028 253.248 54.9082 252.598C54.9028 251.942 54.0649 251.572 52.6631 251.577C51.2505 251.572 50.4126 251.942 50.418 252.598ZM61.751 244.949C63.9209 244.944 65.1831 245.529 65.1885 246.604C65.1831 247.683 63.9209 248.269 61.751 248.269C59.5811 248.269 58.3081 247.683 58.3135 246.604C58.3081 245.529 59.5811 244.944 61.751 244.949ZM57.3682 249.676V248.859H66.1445V249.676H57.3682ZM58.4209 251.18V250.417H65.0381V252.673H59.4307V253.532H65.3066V254.316H58.4316V251.932H64.0283V251.18H58.4209ZM59.377 246.604C59.3716 247.2 60.2202 247.506 61.751 247.506C63.2925 247.506 64.1411 247.2 64.1357 246.604C64.1411 246.034 63.2925 245.701 61.751 245.701C60.2202 245.701 59.3716 246.034 59.377 246.604ZM78.3369 249.848V250.653H69.5391V249.848H73.4277V249.01H70.6885V245.046H77.2627V245.852H71.7197V246.636H77.0156V247.398H71.7197V248.215H77.3271V249.01H74.4482V249.848H78.3369ZM70.6025 252.845C70.6025 251.835 71.8003 251.282 73.9434 251.287C76.0542 251.282 77.2573 251.835 77.2627 252.845C77.2573 253.86 76.0542 254.397 73.9434 254.392C71.8003 254.397 70.6025 253.86 70.6025 252.845ZM71.623 252.845C71.6177 253.366 72.4233 253.629 73.9434 253.618C75.4419 253.629 76.2422 253.366 76.2422 252.845C76.2422 252.324 75.4419 252.05 73.9434 252.05C72.4233 252.05 71.6177 252.324 71.623 252.845ZM87.3281 244.788V254.413H86.3506V244.788H87.3281ZM78.9277 251.76C80.292 250.938 80.9849 249.187 80.9902 247.474V246.7H79.2178V245.873H83.6221V246.7H81.9678V247.474C81.9678 249.117 82.6338 250.766 83.9873 251.545L83.375 252.297C82.4565 251.749 81.8281 250.766 81.4897 249.606C81.146 250.863 80.4907 251.937 79.5508 252.522L78.9277 251.76ZM82.9131 249.031V248.193H84.4062V244.992H85.373V253.93H84.4062V249.031H82.9131ZM96.0723 244.788V248.688H97.6191V249.536H96.0723V254.413H95.0625V244.788H96.0723ZM88.5205 247.13V246.292H90.8945V244.917H91.915V246.292H94.2246V247.13H88.5205ZM89.0146 250.073C89.0146 248.763 90.0244 247.839 91.4102 247.839C92.7905 247.839 93.8003 248.763 93.8057 250.073C93.8003 251.395 92.7905 252.313 91.4102 252.318C90.0244 252.313 89.0146 251.395 89.0146 250.073ZM89.9922 250.073C89.9868 250.911 90.5884 251.47 91.4102 251.459C92.2266 251.47 92.8228 250.911 92.8281 250.073C92.8228 249.251 92.2266 248.682 91.4102 248.677C90.5884 248.682 89.9868 249.251 89.9922 250.073ZM105.869 245.712V246.657C105.864 247.844 105.864 249.176 105.504 251.147L104.473 251.04C104.843 249.176 104.843 247.812 104.849 246.657V246.539H99.0049V245.712H105.869ZM98.0811 253.113V252.265H101.422V248.87H102.432V252.265H106.857V253.113H98.0811ZM117.836 244.788V247.635H119.232V248.483H117.836V251.781H116.805V244.788H117.836ZM110.263 249.912C112.519 249.235 113.915 247.952 114.114 246.367H110.671V245.519H115.226C115.226 248.043 113.507 249.875 110.692 250.729L110.263 249.912ZM111.724 254.209V251.062H112.755V253.382H118.233V254.209H111.724ZM127.794 244.788V250.062H126.784V247.398H124.754V246.561H126.784V244.788H127.794ZM119.77 249.214C121.252 248.72 122.149 247.468 122.154 246.131V245.143H123.164V246.195C123.164 247.431 124.04 248.569 125.474 249.021L124.958 249.826C123.884 249.461 123.078 248.725 122.659 247.785C122.235 248.811 121.418 249.622 120.296 250.02L119.77 249.214ZM121.531 254.295V250.503H122.541V251.588H126.784V250.503H127.794V254.295H121.531ZM122.541 253.468H126.784V252.383H122.541V253.468ZM137.494 244.799V250.75H136.527V248.215H135.432V250.61H134.476V244.938H135.432V247.388H136.527V244.799H137.494ZM129.233 246.646V245.83H131.178V244.831H132.188V245.83H134.1V246.646H129.233ZM129.609 248.741C129.609 247.726 130.469 247.076 131.672 247.076C132.902 247.076 133.756 247.726 133.756 248.741C133.756 249.724 132.902 250.396 131.672 250.396C130.469 250.396 129.609 249.724 129.609 248.741ZM129.878 253.521C131.097 253.135 131.785 252.189 131.79 251.319V251.029H132.789V251.319C132.784 252.104 133.181 252.92 134.041 253.403C134.911 252.877 135.335 252.007 135.335 251.319V251.029H136.345V251.319C136.339 252.243 137.011 253.167 138.257 253.521L137.773 254.295C136.817 253.983 136.167 253.36 135.829 252.598C135.534 253.344 134.959 254.037 134.067 254.381C133.144 254.048 132.563 253.398 132.268 252.641C131.919 253.366 131.269 253.978 130.361 254.295L129.878 253.521ZM130.522 248.741C130.522 249.289 130.99 249.638 131.672 249.644C132.365 249.638 132.837 249.289 132.832 248.741C132.837 248.167 132.365 247.823 131.672 247.828C130.99 247.823 130.522 248.167 130.522 248.741ZM146.292 244.788V248.516H147.839V249.354H146.292V254.435H145.271V244.788H146.292ZM139.202 252.039V245.712H143.703V246.539H140.223V251.19C141.839 251.185 143.048 251.115 144.423 250.868L144.552 251.728C143.042 251.996 141.764 252.044 139.976 252.039H139.202ZM149.396 253.575C148.978 253.57 148.628 253.231 148.634 252.812C148.628 252.394 148.978 252.05 149.396 252.05C149.81 252.05 150.154 252.394 150.159 252.812C150.154 253.231 149.81 253.57 149.396 253.575Z" fill="black"/>
<path d="M31.125 268.312V277.688C31.125 277.936 31.0262 278.175 30.8504 278.35C30.6746 278.526 30.4361 278.625 30.1875 278.625H20.8125C20.5639 278.625 20.3254 278.526 20.1496 278.35C19.9738 278.175 19.875 277.936 19.875 277.688V268.312C19.875 268.064 19.9738 267.825 20.1496 267.65C20.3254 267.474 20.5639 267.375 20.8125 267.375H30.1875C30.4361 267.375 30.6746 267.474 30.8504 267.65C31.0262 267.825 31.125 268.064 31.125 268.312ZM30.1875 277.688V268.312H20.8125V277.688H30.1875Z" fill="#AAAAAA"/>
<path d="M42.7373 267.992C44.8481 267.987 46.1694 268.674 46.1748 269.84C46.1694 270.984 44.8481 271.661 42.7373 271.655C40.6318 271.661 39.2944 270.984 39.2998 269.84C39.2944 268.674 40.6318 267.987 42.7373 267.992ZM38.3545 273.224V272.396H47.1309V273.224H38.3545ZM39.4072 277.295V274.083H46.0566V277.295H39.4072ZM40.3525 269.84C40.3472 270.479 41.2549 270.855 42.7373 270.86C44.209 270.855 45.1274 270.479 45.1221 269.84C45.1274 269.174 44.209 268.792 42.7373 268.798C41.2549 268.792 40.3472 269.174 40.3525 269.84ZM40.417 276.468H45.0684V274.899H40.417V276.468ZM51.3633 269.174C51.3579 270.506 52.2603 271.725 53.748 272.214L53.2324 273.02C52.1152 272.633 51.2827 271.849 50.8477 270.844C50.418 271.918 49.5693 272.772 48.4307 273.181L47.915 272.386C49.4136 271.854 50.3159 270.549 50.3213 269.174V268.25H51.3633V269.174ZM49.3223 274.856V274.029H55.8428V277.413H54.8223V274.856H49.3223ZM54.8223 273.567V267.788H55.8428V273.567H54.8223ZM61.751 267.949C63.9209 267.944 65.1831 268.529 65.1885 269.604C65.1831 270.683 63.9209 271.269 61.751 271.269C59.5811 271.269 58.3081 270.683 58.3135 269.604C58.3081 268.529 59.5811 267.944 61.751 267.949ZM57.3682 272.676V271.859H66.1445V272.676H57.3682ZM58.4209 274.18V273.417H65.0381V275.673H59.4307V276.532H65.3066V277.316H58.4316V274.932H64.0283V274.18H58.4209ZM59.377 269.604C59.3716 270.2 60.2202 270.506 61.751 270.506C63.2925 270.506 64.1411 270.2 64.1357 269.604C64.1411 269.034 63.2925 268.701 61.751 268.701C60.2202 268.701 59.3716 269.034 59.377 269.604ZM77.585 273.976V277.424H76.5645V274.792H71.0645V273.976H77.585ZM69.7002 270.646C69.6948 269.287 70.7744 268.32 72.2246 268.325C73.5029 268.32 74.4912 269.093 74.6899 270.227H76.5645V267.788H77.585V273.46H76.5645V271.064H74.6899C74.4912 272.208 73.5029 272.982 72.2246 272.977C70.7744 272.982 69.6948 272.015 69.7002 270.646ZM70.6777 270.646C70.6724 271.526 71.3384 272.112 72.2246 272.117C73.0894 272.112 73.75 271.526 73.75 270.646C73.75 269.786 73.0894 269.19 72.2246 269.185C71.3384 269.19 70.6724 269.786 70.6777 270.646ZM82.6123 270.624C82.6069 272.235 83.665 273.9 85.1475 274.534L84.5889 275.329C83.4556 274.83 82.5532 273.766 82.1074 272.482C81.6616 273.857 80.7593 275.028 79.6367 275.576L79.0459 274.771C80.4961 274.088 81.5703 272.284 81.5811 270.624V269.604H79.3789V268.755H84.8037V269.604H82.6123V270.624ZM86.0176 277.413V267.788H87.0381V277.413H86.0176ZM97.3828 275.404V276.264H88.5742V275.404H92.4521V273.718H89.6484V270.656H95.2988V269.303H89.627V268.465H96.3086V271.473H90.6582V272.88H96.5342V273.718H93.4619V275.404H97.3828ZM108.791 273.976V277.424H107.771V274.792H102.271V273.976H108.791ZM101.207 272.858V268.497H105.676V270.173H107.771V267.788H108.791V273.46H107.771V271H105.676V272.858H101.207ZM102.217 272.042H104.677V269.324H102.217V272.042ZM118.255 267.799V274.792H117.234V267.799H118.255ZM110.467 270.828C110.472 269.437 111.579 268.449 113.034 268.443C114.484 268.449 115.591 269.437 115.591 270.828C115.591 272.241 114.484 273.224 113.034 273.224C111.579 273.224 110.472 272.241 110.467 270.828ZM111.466 270.828C111.46 271.736 112.137 272.332 113.034 272.332C113.915 272.332 114.592 271.736 114.592 270.828C114.592 269.942 113.915 269.335 113.034 269.335C112.137 269.335 111.46 269.942 111.466 270.828ZM111.96 277.209V274.083H112.991V276.382H118.545V277.209H111.96ZM125.914 269.496C125.909 270.71 126.779 271.897 128.234 272.396L127.708 273.191C126.628 272.821 125.828 272.047 125.409 271.097C124.99 272.155 124.147 273.003 123.003 273.406L122.477 272.601C123.954 272.096 124.877 270.812 124.872 269.507V269.238H122.788V268.411H127.977V269.238H125.914V269.496ZM123.97 274.856V274.029H130.49V277.413H129.47V274.856H123.97ZM127.687 271.075V270.237H129.47V267.788H130.49V273.546H129.47V271.075H127.687ZM139.943 267.788V277.435H138.923V267.788H139.943ZM132.306 271.881C132.306 269.824 133.342 268.513 134.798 268.508C136.227 268.513 137.279 269.824 137.279 271.881C137.279 273.959 136.227 275.27 134.798 275.265C133.342 275.27 132.306 273.959 132.306 271.881ZM133.294 271.881C133.289 273.412 133.901 274.352 134.798 274.352C135.679 274.352 136.291 273.412 136.291 271.881C136.291 270.372 135.679 269.426 134.798 269.421C133.901 269.426 133.289 270.372 133.294 271.881ZM147.506 274.147C147.506 274.975 147.914 275.85 148.79 276.371C149.67 275.807 150.105 274.889 150.105 274.147V273.686H151.104V274.147C151.099 275.146 151.76 276.113 153.017 276.521L152.512 277.273C151.561 276.946 150.911 276.301 150.578 275.517C150.272 276.291 149.697 276.994 148.816 277.359C147.893 277.01 147.307 276.328 147.012 275.544C146.663 276.301 146.029 276.94 145.121 277.273L144.605 276.521C145.841 276.081 146.512 275.077 146.518 274.147V273.686H147.506V274.147ZM144.358 270.603C144.364 269.254 145.449 268.331 146.926 268.325C148.397 268.331 149.482 269.254 149.482 270.603C149.482 271.935 148.397 272.858 146.926 272.858C145.449 272.858 144.364 271.935 144.358 270.603ZM145.357 270.603C145.352 271.44 146.013 272.01 146.926 272.01C147.828 272.01 148.483 271.44 148.483 270.603C148.483 269.759 147.828 269.19 146.926 269.195C146.013 269.19 145.352 269.759 145.357 270.603ZM151.126 273.277V267.799H152.146V273.277H151.126ZM161.17 267.788V271.516H162.717V272.354H161.17V277.435H160.149V267.788H161.17ZM154.08 275.039V268.712H158.581V269.539H155.101V274.19C156.717 274.185 157.926 274.115 159.301 273.868L159.43 274.728C157.92 274.996 156.642 275.044 154.854 275.039H154.08ZM164.274 276.575C163.855 276.57 163.506 276.231 163.512 275.812C163.506 275.394 163.855 275.05 164.274 275.05C164.688 275.05 165.032 275.394 165.037 275.812C165.032 276.231 164.688 276.57 164.274 276.575Z" fill="black"/>
</svg>
