<svg width="266" height="21" viewBox="0 0 266 21" fill="none" xmlns="http://www.w3.org/2000/svg">
<rect x="0.5" y="0.5" width="52" height="20" rx="10" stroke="#888888"/>
<path d="M15.6416 6.22266V14H14.4492V7.4043H14.4062L12.5479 8.61816V7.49023L14.4814 6.22266H15.6416ZM20.5723 6.22266V14H19.3799V7.4043H19.3369L17.4785 8.61816V7.49023L19.4121 6.22266H20.5723ZM30.4551 5.28809V14.9131H29.4775V9.91797H28.2852V14.4512H27.3291V5.5459H28.2852V9.09082H29.4775V5.28809H30.4551ZM22.1836 12.1631C24.3213 10.9492 25.2183 9.31104 25.3794 7.35059H22.5918V6.5127H26.373C26.3677 9.04248 25.5298 11.3198 22.7744 12.8721L22.1836 12.1631ZM39.7256 5.29883V10.9385H38.7051V10.4766H36.8252V9.83203H38.7051V5.29883H39.7256ZM31.7012 8.84375C33.5649 8.84912 35.9175 8.82764 37.9961 8.60742L38.0498 9.2627C37.1421 9.3916 36.1968 9.4668 35.2783 9.51514V10.96H34.2686V9.55273C33.4038 9.57959 32.5713 9.57959 31.8193 9.57422L31.7012 8.84375ZM32.4209 6.91016C32.4155 6.0293 33.3662 5.45996 34.8271 5.45996C36.2612 5.45996 37.2227 6.0293 37.2334 6.91016C37.2227 7.80713 36.2612 8.34961 34.8271 8.34961C33.3662 8.34961 32.4155 7.80713 32.4209 6.91016ZM33.1406 11.9697V11.2607H39.7256V13.334H34.1826V14.0752H40.0156V14.8164H33.1836V12.6572H38.7158V11.9697H33.1406ZM33.377 6.91016C33.3716 7.3667 33.9409 7.66211 34.8271 7.66211C35.7026 7.66211 36.2666 7.3667 36.2666 6.91016C36.2666 6.44824 35.7026 6.14746 34.8271 6.14746C33.9409 6.14746 33.3716 6.44824 33.377 6.91016Z" fill="#222222"/>
<rect x="57.5" y="0.5" width="43" height="20" rx="10" stroke="#888888"/>
<path d="M76.917 5.29883V7.43652H78.3242V8.28516H76.917V10.7236H75.8965V5.29883H76.917ZM69.7949 10.0684V5.77148H70.8154V9.21973C72.1206 9.20898 73.4795 9.09619 74.9619 8.80078L75.0908 9.63867C73.4688 9.96631 71.9971 10.063 70.5791 10.0684H69.7949ZM70.751 14.7842V11.2285H76.917V14.7842H70.751ZM71.75 13.9678H75.9287V12.0234H71.75V13.9678ZM81.4395 6.00781C82.8789 6.01318 83.9048 7.32373 83.9102 9.38086C83.9048 11.4595 82.8789 12.77 81.4395 12.7646C80 12.77 78.9741 11.4595 78.9795 9.38086C78.9741 7.32373 80 6.01318 81.4395 6.00781ZM79.957 9.38086C79.9517 10.9116 80.564 11.8516 81.4395 11.8516C82.3311 11.8516 82.9326 10.9116 82.9326 9.38086C82.9326 7.87158 82.3311 6.92627 81.4395 6.9209C80.564 6.92627 79.9517 7.87158 79.957 9.38086ZM85.3389 14.9131V5.28809H86.3594V9.05859H87.9062V9.91797H86.3594V14.9131H85.3389Z" fill="#222222"/>
<path d="M115.816 9.93V10.84H105.416V9.93H115.816ZM106.638 12.504V11.646H114.542V14.142H107.86V15.078H114.88V15.936H106.664V13.336H113.346V12.504H106.638ZM106.716 5.848V4.99H114.516V7.46H107.938V8.318H114.698V9.176H106.742V6.654H113.294V5.848H106.716ZM123.569 5.224C125.272 5.224 126.507 6.173 126.507 7.59C126.507 8.981 125.272 9.943 123.569 9.93C121.853 9.943 120.618 8.981 120.631 7.59C120.618 6.173 121.853 5.224 123.569 5.224ZM119.825 10.814C121.918 10.827 124.817 10.775 127.313 10.398L127.391 11.308C126.364 11.503 125.285 11.62 124.245 11.698V15.728H123.023V11.763C121.918 11.815 120.878 11.828 119.981 11.828L119.825 10.814ZM121.801 7.59C121.788 8.409 122.529 8.955 123.569 8.942C124.622 8.955 125.363 8.409 125.363 7.59C125.363 6.758 124.622 6.199 123.569 6.212C122.529 6.199 121.788 6.758 121.801 7.59ZM128.093 16.092V4.704H129.289V16.092H128.093ZM140.005 4.704V8.37H141.643V9.384H140.005V13.232H138.809V4.704H140.005ZM131.087 7.018V6.03H133.869V4.704H135.065V6.03H137.847V7.018H131.087ZM131.711 9.722C131.698 8.409 132.816 7.551 134.467 7.564C136.105 7.551 137.223 8.409 137.223 9.722C137.223 10.996 136.105 11.841 134.467 11.828C132.816 11.841 131.698 10.996 131.711 9.722ZM132.803 15.832V12.556H133.999V14.87H140.499V15.832H132.803ZM132.855 9.722C132.855 10.45 133.505 10.905 134.467 10.892C135.429 10.905 136.079 10.45 136.079 9.722C136.079 8.955 135.429 8.487 134.467 8.5C133.505 8.487 132.855 8.955 132.855 9.722Z" fill="black"/>
<rect x="154.5" y="0.5" width="62" height="20" rx="10" stroke="#DF1486"/>
<path d="M170.737 5.86816C172.794 5.87354 174.293 6.88867 174.293 8.4248C174.293 9.86426 173.036 10.8257 171.242 10.9707V12.8613H175.163V13.71H166.354V12.8613H170.232V10.9707C168.449 10.8257 167.187 9.86426 167.192 8.4248C167.187 6.88867 168.691 5.87354 170.737 5.86816ZM168.181 8.4248C168.181 9.50439 169.255 10.1758 170.737 10.1865C172.23 10.1758 173.299 9.50439 173.305 8.4248C173.299 7.38281 172.23 6.69531 170.737 6.70605C169.255 6.69531 168.181 7.38281 168.181 8.4248ZM183.424 5.28809V7.55469H184.82V8.40332H183.424V10.7236H182.403V5.28809H183.424ZM175.818 10.0469C178.123 9.43994 179.476 8.23145 179.664 6.72754H176.27V5.88965H180.771C180.765 8.35498 179.095 10.0898 176.227 10.8633L175.818 10.0469ZM177.258 14.7842V11.1318H183.424V14.7842H177.258ZM178.278 13.9678H182.414V11.9805H178.278V13.9678ZM188.72 8.12402C188.714 9.64404 189.719 11.3413 191.18 12.0342L190.6 12.8291C189.52 12.3135 188.661 11.2285 188.226 9.97168C187.785 11.3413 186.883 12.5283 185.787 13.0762L185.186 12.2705C186.646 11.5669 187.705 9.75146 187.71 8.12402V7.10352H185.54V6.25488H190.814V7.10352H188.72V8.12402ZM191.846 14.9131V5.28809H192.866V9.10156H194.413V9.96094H192.866V14.9131H191.846ZM202.566 5.73926V6.40527C202.572 7.13037 202.572 8.04883 202.341 9.29492H203.684V10.1328H194.875V9.29492H201.31C201.541 8.12402 201.557 7.25928 201.557 6.56641H195.981V5.73926H202.566ZM195.81 12.2705V11.4648H202.62V14.9346H201.6V12.2705H195.81Z" fill="#DF1486"/>
<path d="M231.829 13.6416V14.6572H221.419V13.6416H231.829ZM222.308 6.78613V5.7959H230.877V6.78613H229.138V10.582H230.839V11.5469H222.333V10.582H224.034V6.78613H222.308ZM225.228 10.582H227.957V6.78613H225.228V10.582ZM243.064 13.7051V14.7207H232.654V13.7051H237.237V11.7119H233.924V8.09375H240.602V6.49414H233.898V5.50391H241.795V9.05859H235.117V10.7217H242.062V11.7119H238.431V13.7051H243.064ZM252.903 5.85938V7.07812C252.903 8.55078 252.903 10.144 252.484 12.5752L251.253 12.4609C251.71 10.1821 251.71 8.5127 251.71 7.07812V6.84961H245.007V5.85938H252.903ZM243.89 14.4668V13.4639H254.262V14.4668H243.89ZM264.824 4.7168V11.4707H263.682V8.5127H262.285V11.3438H261.155V4.91992H262.285V7.52246H263.682V4.7168H264.824ZM255.607 6.39258V5.42773H259.924V8.62695H256.801V10.0488C258.21 10.0425 259.283 9.979 260.533 9.73145L260.66 10.6963C259.226 10.9629 258.045 11.001 256.382 11.001H255.633V7.7002H258.769V6.39258H255.607ZM257.22 15.9395V11.9785H264.824V15.9395H257.22ZM258.426 14.9619H263.644V12.9434H258.426V14.9619Z" fill="black"/>
</svg>
