<svg width="360" height="38" viewBox="0 0 360 38" fill="none" xmlns="http://www.w3.org/2000/svg">
<path d="M37.1429 19C37.1429 19.1894 37.0827 19.3711 36.9755 19.5051C36.8683 19.639 36.723 19.7143 36.5714 19.7143H27.4286C27.277 19.7143 27.1317 19.639 27.0245 19.5051C26.9173 19.3711 26.8571 19.1894 26.8571 19C26.8571 18.8106 26.9173 18.6289 27.0245 18.4949C27.1317 18.361 27.277 18.2857 27.4286 18.2857H36.5714C36.723 18.2857 36.8683 18.361 36.9755 18.4949C37.0827 18.6289 37.1429 18.8106 37.1429 19ZM39.4286 14H24.5714C24.4199 14 24.2745 14.0753 24.1674 14.2092C24.0602 14.3432 24 14.5248 24 14.7143C24 14.9037 24.0602 15.0854 24.1674 15.2194C24.2745 15.3533 24.4199 15.4286 24.5714 15.4286H39.4286C39.5801 15.4286 39.7255 15.3533 39.8326 15.2194C39.9398 15.0854 40 14.9037 40 14.7143C40 14.5248 39.9398 14.3432 39.8326 14.2092C39.7255 14.0753 39.5801 14 39.4286 14ZM33.7143 22.5714H30.2857C30.1342 22.5714 29.9888 22.6467 29.8817 22.7806C29.7745 22.9146 29.7143 23.0963 29.7143 23.2857C29.7143 23.4752 29.7745 23.6568 29.8817 23.7908C29.9888 23.9247 30.1342 24 30.2857 24H33.7143C33.8658 24 34.0112 23.9247 34.1183 23.7908C34.2255 23.6568 34.2857 23.4752 34.2857 23.2857C34.2857 23.0963 34.2255 22.9146 34.1183 22.7806C34.0112 22.6467 33.8658 22.5714 33.7143 22.5714Z" fill="#8F8F8F"/>
<path d="M48.7354 21.7783C49.9922 21.7106 51.0713 21.609 51.9727 21.4736L52.0488 22.21C50.9782 22.4046 49.8737 22.5337 48.7354 22.5972C47.597 22.6606 46.3973 22.6924 45.1362 22.6924H44.6602L44.5205 21.8672C45.9255 21.8587 47.0046 21.8418 47.7578 21.8164V19.6963H48.7354V21.7783ZM44.8633 19.3027C45.4219 19.1377 45.9149 18.8965 46.3423 18.5791C46.7739 18.2575 47.1104 17.8809 47.3516 17.4492C47.597 17.0133 47.724 16.5479 47.7324 16.0527H45.1426V15.2275H47.7578V13.8311H48.7354V15.2275H51.3887V16.0527H48.7354C48.7438 16.5267 48.8729 16.9731 49.1226 17.3921C49.3722 17.8068 49.715 18.1686 50.1509 18.4775C50.5868 18.7822 51.084 19.015 51.6426 19.1758L51.1729 19.9629C50.4958 19.7598 49.9012 19.4487 49.3892 19.0298C48.8813 18.6066 48.5005 18.1115 48.2466 17.5444C48.0054 18.1453 47.6309 18.6637 47.123 19.0996C46.6195 19.5355 46.027 19.8571 45.3457 20.0645L44.8633 19.3027ZM52.7217 13.7422H53.7119V25.0537H52.7217V13.7422ZM65.0107 22.0322H64.0205V13.7549H65.0107V22.0322ZM55.8066 19.6201C56.3695 19.4001 56.8667 19.0806 57.2983 18.6616C57.7342 18.2427 58.0728 17.7624 58.314 17.2207C58.5552 16.6748 58.6758 16.1077 58.6758 15.5195V14.3896H59.6914V15.5195C59.6872 16.0824 59.8035 16.624 60.0405 17.1445C60.2817 17.6608 60.6182 18.1136 61.0498 18.5029C61.4814 18.8923 61.9766 19.1885 62.5352 19.3916L62.0146 20.1914C61.363 19.9417 60.7917 19.5736 60.3008 19.0869C59.8099 18.596 59.4396 18.0247 59.1899 17.373C58.9445 18.0671 58.5742 18.6785 58.0791 19.2075C57.584 19.7365 57.0085 20.1322 56.3525 20.3945L55.8066 19.6201ZM57.7236 21.2705H58.7139V23.9492H65.3662V24.7871H57.7236V21.2705ZM72.5898 14.6055C72.5898 15.0794 72.7824 15.5386 73.1675 15.9829C73.5568 16.423 74.0604 16.7996 74.6782 17.1128C75.3003 17.4217 75.9414 17.627 76.6016 17.7285L76.208 18.5156C75.6325 18.4183 75.0718 18.2511 74.5259 18.0142C73.9842 17.7729 73.4997 17.4767 73.0723 17.1255C72.6449 16.7743 72.3148 16.3849 72.082 15.9575C71.8535 16.3934 71.5234 16.7891 71.0918 17.1445C70.6644 17.4958 70.1777 17.7899 69.6318 18.0269C69.0859 18.2638 68.5231 18.431 67.9434 18.5283L67.5498 17.7412C68.2184 17.6396 68.8617 17.4365 69.4795 17.1318C70.0973 16.8229 70.5988 16.4463 70.9839 16.002C71.369 15.5576 71.5615 15.0921 71.5615 14.6055V14.0342H72.5898V14.6055ZM66.915 19.4932H77.249V20.3184H72.6533V22.6289H71.6631V20.3184H66.915V19.4932ZM68.2354 21.5244H69.2383V23.9492H76.0938V24.7871H68.2354V21.5244Z" fill="#8F8F8F"/>
<path d="M289.188 18.1188L289.881 18.8125L293.95 14.7438L293.256 14.05L289.188 18.1188ZM283.75 24.25H284.444L288.813 19.8813L288.119 19.1875L283.75 23.5563V24.25ZM290.406 20.4062L287.594 17.5938L290.725 14.4625L290.181 13.9188L286.075 18.025L285.025 16.975L289.113 12.8688C289.413 12.5688 289.766 12.4188 290.172 12.4188C290.578 12.4188 290.931 12.5688 291.231 12.8688L291.775 13.4125L292.713 12.475C292.863 12.325 293.041 12.25 293.247 12.25C293.453 12.25 293.631 12.325 293.781 12.475L295.525 14.2188C295.675 14.3688 295.75 14.5469 295.75 14.7531C295.75 14.9594 295.675 15.1375 295.525 15.2875L290.406 20.4062ZM285.062 25.75H282.25V22.9375L287.594 17.5938L290.406 20.4062L285.062 25.75Z" fill="#8F8F8F"/>
<path d="M311.433 14.2373V14.9609C311.433 15.729 311.433 16.6938 311.179 17.9697H312.791V18.7695H302.457V17.9697H310.176C310.43 16.7129 310.442 15.7861 310.442 15.0498H303.765V14.2373H311.433ZM311.471 19.9121V22.7559H304.704V24.0889H311.763V24.9014H303.701V21.9688H310.48V20.7119H303.688V19.9121H311.471ZM317.095 16.1035C317.095 17.1699 317.672 18.5537 318.847 19.3408C319.989 18.5791 320.573 17.2207 320.573 16.1035V14.6562H321.576V16.1035C321.563 17.4873 322.389 18.9219 323.874 19.5439L323.315 20.3057C322.211 19.8105 321.449 18.8838 321.068 17.792C320.7 18.8901 319.97 19.9058 318.834 20.4326C317.685 19.8994 316.942 18.8394 316.587 17.7285C316.187 18.814 315.419 19.7979 314.34 20.3057L313.807 19.5439C315.241 18.8838 316.092 17.3604 316.104 16.1035V14.6562H317.095V16.1035ZM324.014 22.6797V23.5049H313.692V22.6797H324.014ZM334.259 13.7422V25.0283H333.256V13.7422H334.259ZM330.92 14.9736C330.907 18.2236 329.396 21.0928 325.613 22.9082L325.067 22.0957C328.121 20.6484 329.676 18.4839 329.904 15.7861H325.588V14.9736H330.92Z" fill="#8F8F8F"/>
</svg>
