<svg width="25" height="24" viewBox="0 0 25 24" fill="none" xmlns="http://www.w3.org/2000/svg">
<g id="ChartPieSlice">
<path id="Vector" d="M10.125 10.9153C10.2391 10.8495 10.3337 10.7548 10.3996 10.6407C10.4654 10.5267 10.5 10.3973 10.5 10.2656V3.51562C10.4993 3.39605 10.4701 3.27837 10.4147 3.1724C10.3593 3.06643 10.2794 2.97523 10.1816 2.90643C10.0838 2.83762 9.97096 2.7932 9.85251 2.77686C9.73406 2.76052 9.61341 2.77274 9.50064 2.8125C7.31156 3.58726 5.47063 5.11748 4.30878 7.12807C3.14694 9.13865 2.74038 11.4977 3.1622 13.7812C3.18407 13.8993 3.23397 14.0104 3.30771 14.1052C3.38145 14.2 3.47687 14.2757 3.58595 14.3259C3.68425 14.3719 3.7915 14.3956 3.90002 14.3953C4.03165 14.3954 4.16098 14.3608 4.27502 14.295L10.125 10.9153ZM9.00002 4.65188V9.8325L4.51127 12.4228C4.50002 12.2812 4.50002 12.1388 4.50002 12C4.50135 10.4797 4.92216 8.98928 5.71613 7.69279C6.51011 6.3963 7.64644 5.34404 9.00002 4.65188ZM12.75 2.25C12.5511 2.25 12.3603 2.32902 12.2197 2.46967C12.079 2.61032 12 2.80109 12 3V11.6081L4.61158 15.9122C4.52584 15.9619 4.4508 16.0281 4.3908 16.107C4.3308 16.1858 4.28703 16.2758 4.26201 16.3717C4.23699 16.4676 4.23122 16.5675 4.24504 16.6656C4.25886 16.7638 4.29199 16.8582 4.34252 16.9434C5.20849 18.4156 6.44599 19.6344 7.93113 20.478C9.41627 21.3215 11.0969 21.7601 12.8049 21.7498C14.5128 21.7396 16.1881 21.2809 17.663 20.4196C19.1379 19.5583 20.3607 18.3247 21.209 16.8422C22.0572 15.3598 22.5011 13.6805 22.4963 11.9726C22.4915 10.2646 22.0382 8.58787 21.1816 7.11022C20.325 5.63257 19.0953 4.40586 17.6156 3.55289C16.1358 2.69993 14.458 2.25064 12.75 2.25ZM12.75 20.25C11.4407 20.2465 10.1509 19.9331 8.98601 19.3354C7.82112 18.7377 6.81427 17.8727 6.04783 16.8113L13.1278 12.6863C13.2417 12.6205 13.3363 12.5259 13.4022 12.4121C13.468 12.2982 13.5027 12.169 13.5028 12.0375V3.78375C15.6182 3.97567 17.5781 4.9761 18.9744 6.57675C20.3707 8.1774 21.0958 10.2549 20.9988 12.3768C20.9018 14.4987 19.9901 16.5013 18.4536 17.9679C16.9171 19.4345 14.8741 20.2519 12.75 20.25Z" fill="#89BD42"/>
</g>
</svg>
