<svg width="25" height="25" viewBox="0 0 25 25" fill="none" xmlns="http://www.w3.org/2000/svg">
<path d="M20 3.02881H17.75V2.27881C17.75 2.0799 17.671 1.88913 17.5303 1.74848C17.3897 1.60783 17.1989 1.52881 17 1.52881C16.8011 1.52881 16.6103 1.60783 16.4697 1.74848C16.329 1.88913 16.25 2.0799 16.25 2.27881V3.02881H8.75V2.27881C8.75 2.0799 8.67098 1.88913 8.53033 1.74848C8.38968 1.60783 8.19891 1.52881 8 1.52881C7.80109 1.52881 7.61032 1.60783 7.46967 1.74848C7.32902 1.88913 7.25 2.0799 7.25 2.27881V3.02881H5C4.60218 3.02881 4.22064 3.18684 3.93934 3.46815C3.65804 3.74945 3.5 4.13098 3.5 4.52881V19.5288C3.5 19.9266 3.65804 20.3082 3.93934 20.5895C4.22064 20.8708 4.60218 21.0288 5 21.0288H20C20.3978 21.0288 20.7794 20.8708 21.0607 20.5895C21.342 20.3082 21.5 19.9266 21.5 19.5288V4.52881C21.5 4.13098 21.342 3.74945 21.0607 3.46815C20.7794 3.18684 20.3978 3.02881 20 3.02881ZM20 19.5288H5V4.52881H7.25V5.27881C7.25 5.47772 7.32902 5.66849 7.46967 5.80914C7.61032 5.94979 7.80109 6.02881 8 6.02881C8.19891 6.02881 8.38968 5.94979 8.53033 5.80914C8.67098 5.66849 8.75 5.47772 8.75 5.27881V4.52881H16.25V5.27881C16.25 5.47772 16.329 5.66849 16.4697 5.80914C16.6103 5.94979 16.8011 6.02881 17 6.02881C17.1989 6.02881 17.3897 5.94979 17.5303 5.80914C17.671 5.66849 17.75 5.47772 17.75 5.27881V4.52881H20V19.5288ZM14.75 8.27881C14.3241 8.27857 13.9031 8.36928 13.515 8.54486C13.127 8.72044 12.781 8.97685 12.5 9.29693C12.0971 8.84007 11.5646 8.51668 10.9734 8.36978C10.3823 8.22288 9.76038 8.25943 9.19048 8.47457C8.62058 8.68971 8.12967 9.07324 7.78305 9.57416C7.43642 10.0751 7.25049 10.6697 7.25 11.2788C7.25 14.7026 11.9637 17.0988 12.1644 17.2001C12.2686 17.2522 12.3835 17.2793 12.5 17.2793C12.6165 17.2793 12.7314 17.2522 12.8356 17.2001C13.0363 17.0988 17.75 14.7026 17.75 11.2788C17.75 10.4832 17.4339 9.7201 16.8713 9.15749C16.3087 8.59488 15.5456 8.27881 14.75 8.27881ZM12.5 15.6785C11.2072 14.9482 8.75 13.1707 8.75 11.2788C8.75 10.881 8.90804 10.4995 9.18934 10.2181C9.47064 9.93684 9.85218 9.77881 10.25 9.77881C10.6478 9.77881 11.0294 9.93684 11.3107 10.2181C11.592 10.4995 11.75 10.881 11.75 11.2788C11.75 11.4777 11.829 11.6685 11.9697 11.8091C12.1103 11.9498 12.3011 12.0288 12.5 12.0288C12.6989 12.0288 12.8897 11.9498 13.0303 11.8091C13.171 11.6685 13.25 11.4777 13.25 11.2788C13.25 10.881 13.408 10.4995 13.6893 10.2181C13.9706 9.93684 14.3522 9.77881 14.75 9.77881C15.1478 9.77881 15.5294 9.93684 15.8107 10.2181C16.092 10.4995 16.25 10.881 16.25 11.2788C16.25 13.1716 13.7928 14.9491 12.5 15.6785Z" fill="#E31482"/>
</svg>
