<svg width="25" height="24" viewBox="0 0 25 24" fill="none" xmlns="http://www.w3.org/2000/svg">
<g id="Pill">
<path id="Vector" d="M21.0393 3.71253C20.1029 2.77616 18.8329 2.25012 17.5087 2.25012C16.1845 2.25012 14.9145 2.77616 13.9781 3.71253L4.46244 13.2272C3.54565 14.1676 3.03627 15.4313 3.04466 16.7446C3.05304 18.0579 3.57852 19.3151 4.50724 20.2437C5.43597 21.1723 6.69316 21.6976 8.00646 21.7058C9.31977 21.714 10.5834 21.2044 11.5237 20.2875L21.0403 10.7728C21.9751 9.83576 22.5 8.56611 22.4998 7.24249C22.4996 5.91886 21.9744 4.64936 21.0393 3.71253ZM10.4634 19.2272C9.80834 19.8824 8.91986 20.2505 7.9934 20.2506C7.06694 20.2507 6.17839 19.8827 5.52322 19.2277C4.86806 18.5726 4.49994 17.6842 4.49985 16.7577C4.49976 15.8312 4.86771 14.9427 5.52275 14.2875L9.74994 10.0603L14.6906 15L10.4634 19.2272ZM19.979 9.71253L15.7499 13.9397L10.8112 9.00003L15.0393 4.77284C15.697 4.13039 16.5814 3.77311 17.5007 3.77848C18.4201 3.78385 19.3002 4.15144 19.9503 4.80153C20.6004 5.45162 20.968 6.33179 20.9734 7.25114C20.9787 8.17048 20.6215 9.05489 19.979 9.71253ZM18.5324 7.7194C18.6022 7.78906 18.6575 7.87177 18.6952 7.96282C18.733 8.05387 18.7524 8.15146 18.7524 8.25003C18.7524 8.34859 18.733 8.44618 18.6952 8.53723C18.6575 8.62828 18.6022 8.711 18.5324 8.78065L16.2824 11.0307C16.2128 11.1003 16.13 11.1555 16.039 11.1931C15.948 11.2308 15.8505 11.2502 15.752 11.2501C15.6535 11.2501 15.5559 11.2306 15.4649 11.1929C15.3739 11.1552 15.2913 11.0999 15.2217 11.0302C15.152 10.9605 15.0968 10.8778 15.0592 10.7868C15.0215 10.6957 15.0022 10.5982 15.0022 10.4997C15.0022 10.4012 15.0217 10.3037 15.0594 10.2127C15.0972 10.1217 15.1524 10.039 15.2221 9.9694L17.4721 7.7194C17.6128 7.57886 17.8035 7.49991 18.0023 7.49991C18.2011 7.49991 18.3918 7.57886 18.5324 7.7194Z" fill="black" fill-opacity="0.25"/>
</g>
</svg>
