<svg width="25" height="24" viewBox="0 0 25 24" fill="none" xmlns="http://www.w3.org/2000/svg">
<g id="DotsThreeCircle">
<path id="Vector" d="M14.3333 12C14.3333 12.3956 14.216 12.7822 13.9963 13.1111C13.7765 13.44 13.4641 13.6964 13.0987 13.8478C12.7332 13.9991 12.3311 14.0387 11.9431 13.9616C11.5552 13.8844 11.1988 13.6939 10.9191 13.4142C10.6394 13.1345 10.4489 12.7781 10.3718 12.3902C10.2946 12.0022 10.3342 11.6001 10.4856 11.2346C10.6369 10.8692 10.8933 10.5568 11.2222 10.3371C11.5511 10.1173 11.9378 10 12.3333 10C12.8638 10 13.3725 10.2107 13.7475 10.5858C14.1226 10.9609 14.3333 11.4696 14.3333 12ZM21.6667 12C21.6667 12.3956 21.5494 12.7822 21.3296 13.1111C21.1098 13.44 20.7975 13.6964 20.432 13.8478C20.0666 13.9991 19.6644 14.0387 19.2765 13.9616C18.8885 13.8844 18.5322 13.6939 18.2524 13.4142C17.9727 13.1345 17.7823 12.7781 17.7051 12.3902C17.6279 12.0022 17.6675 11.6001 17.8189 11.2346C17.9703 10.8692 18.2266 10.5568 18.5555 10.3371C18.8844 10.1173 19.2711 10 19.6667 10C20.1971 10 20.7058 10.2107 21.0809 10.5858C21.4559 10.9609 21.6667 11.4696 21.6667 12ZM7 12C7 12.3956 6.8827 12.7822 6.66294 13.1111C6.44318 13.44 6.13082 13.6964 5.76537 13.8478C5.39991 13.9991 4.99778 14.0387 4.60982 13.9616C4.22186 13.8844 3.86549 13.6939 3.58579 13.4142C3.30608 13.1345 3.1156 12.7781 3.03843 12.3902C2.96126 12.0022 3.00087 11.6001 3.15224 11.2346C3.30362 10.8692 3.55996 10.5568 3.88886 10.3371C4.21776 10.1173 4.60444 10 5 10C5.53043 10 6.03914 10.2107 6.41421 10.5858C6.78929 10.9609 7 11.4696 7 12Z" fill="black" fill-opacity="0.25"/>
</g>
</svg>
