<svg width="25" height="24" viewBox="0 0 25 24" fill="none" xmlns="http://www.w3.org/2000/svg">
<g id="Users" clip-path="url(#clip0_13_839)">
<path id="Vector" d="M11.7421 14.805C12.7473 14.1358 13.5105 13.1609 13.9187 12.0244C14.327 10.8879 14.3587 9.65024 14.0091 8.49437C13.6595 7.3385 12.9473 6.32581 11.9776 5.60605C11.008 4.88629 9.8325 4.49768 8.62492 4.49768C7.41735 4.49768 6.24184 4.88629 5.27221 5.60605C4.30258 6.32581 3.59032 7.3385 3.24076 8.49437C2.8912 9.65024 2.92288 10.8879 3.33114 12.0244C3.7394 13.1609 4.50255 14.1358 5.50774 14.805C3.68945 15.4751 2.13659 16.7152 1.08086 18.3403C1.02538 18.4227 0.986837 18.5154 0.967482 18.6129C0.948127 18.7104 0.948344 18.8108 0.968119 18.9082C0.987895 19.0056 1.02683 19.0981 1.08268 19.1803C1.13852 19.2625 1.21014 19.3328 1.2934 19.3871C1.37665 19.4414 1.46986 19.4787 1.56762 19.4966C1.66538 19.5146 1.76573 19.5129 1.86285 19.4917C1.95996 19.4706 2.0519 19.4303 2.13332 19.3733C2.21473 19.3163 2.28401 19.2437 2.33711 19.1597C3.0181 18.1123 3.94995 17.2516 5.04802 16.6558C6.1461 16.0599 7.37562 15.7479 8.62492 15.7479C9.87423 15.7479 11.1038 16.0599 12.2018 16.6558C13.2999 17.2516 14.2317 18.1123 14.9127 19.1597C15.0227 19.3231 15.1927 19.4368 15.3858 19.476C15.5789 19.5152 15.7797 19.4768 15.9447 19.3692C16.1098 19.2615 16.2258 19.0932 16.2678 18.9007C16.3098 18.7082 16.2743 18.5068 16.169 18.3403C15.1133 16.7152 13.5604 15.4751 11.7421 14.805ZM4.49992 10.125C4.49992 9.30911 4.74185 8.51159 5.19511 7.83324C5.64837 7.15488 6.29261 6.62617 7.04636 6.31396C7.8001 6.00175 8.6295 5.92006 9.42967 6.07922C10.2298 6.23839 10.9648 6.63126 11.5417 7.20815C12.1186 7.78504 12.5115 8.52004 12.6707 9.32022C12.8298 10.1204 12.7481 10.9498 12.4359 11.7035C12.1237 12.4573 11.595 13.1015 10.9167 13.5548C10.2383 14.008 9.44077 14.25 8.62492 14.25C7.53129 14.2487 6.4828 13.8137 5.70948 13.0404C4.93616 12.2671 4.50117 11.2186 4.49992 10.125ZM24.2006 19.3781C24.034 19.4867 23.831 19.5247 23.6364 19.4838C23.4418 19.4428 23.2714 19.3262 23.1627 19.1597C22.4826 18.1116 21.5508 17.2506 20.4525 16.655C19.3542 16.0594 18.1243 15.7483 16.8749 15.75C16.676 15.75 16.4852 15.6709 16.3446 15.5303C16.2039 15.3896 16.1249 15.1989 16.1249 15C16.1249 14.8011 16.2039 14.6103 16.3446 14.4696C16.4852 14.329 16.676 14.25 16.8749 14.25C17.4824 14.2494 18.0822 14.1147 18.6316 13.8554C19.181 13.5961 19.6663 13.2187 20.0529 12.7501C20.4395 12.2815 20.7178 11.7334 20.868 11.1448C21.0182 10.5561 21.0365 9.94162 20.9216 9.3451C20.8068 8.74859 20.5616 8.1848 20.2036 7.69402C19.8456 7.20325 19.3837 6.7976 18.8507 6.50606C18.3178 6.21452 17.727 6.04429 17.1207 6.00752C16.5143 5.97076 15.9073 6.06838 15.3431 6.2934C15.251 6.33317 15.152 6.3541 15.0518 6.35495C14.9516 6.35579 14.8522 6.33654 14.7595 6.29833C14.6669 6.26012 14.5828 6.20373 14.5123 6.13248C14.4418 6.06123 14.3863 5.97658 14.3491 5.88352C14.3119 5.79046 14.2937 5.69088 14.2956 5.59067C14.2975 5.49046 14.3195 5.39165 14.3602 5.30007C14.401 5.2085 14.4597 5.12602 14.5328 5.05752C14.606 4.98901 14.6921 4.93586 14.7862 4.90121C16.0775 4.3862 17.5139 4.36767 18.8181 4.84919C20.1223 5.33071 21.202 6.27817 21.8489 7.50879C22.4958 8.73941 22.664 10.166 22.3211 11.5133C21.9783 12.8607 21.1486 14.0333 19.9921 14.805C21.8104 15.4751 23.3633 16.7152 24.419 18.3403C24.5276 18.5069 24.5656 18.7098 24.5247 18.9044C24.4837 19.099 24.3671 19.2694 24.2006 19.3781Z" fill="black" fill-opacity="0.25"/>
</g>
<defs>
<clipPath id="clip0_13_839">
<rect width="24" height="24" fill="white" transform="translate(0.75)"/>
</clipPath>
</defs>
</svg>
