<svg width="25" height="25" viewBox="0 0 25 25" fill="none" xmlns="http://www.w3.org/2000/svg">
<path d="M9.98083 11.6539C9.75833 11.6539 9.54082 11.588 9.35582 11.4643C9.17081 11.3407 9.02662 11.165 8.94147 10.9594C8.85632 10.7539 8.83404 10.5277 8.87745 10.3095C8.92086 10.0912 9.02801 9.89077 9.18534 9.73344C9.34267 9.5761 9.54313 9.46896 9.76136 9.42555C9.97959 9.38214 10.2058 9.40442 10.4114 9.48957C10.6169 9.57471 10.7926 9.71891 10.9162 9.90391C11.0399 10.0889 11.1058 10.3064 11.1058 10.5289C11.1058 10.8273 10.9873 11.1134 10.7763 11.3244C10.5654 11.5354 10.2792 11.6539 9.98083 11.6539ZM15.2308 9.40393C15.0083 9.40393 14.7908 9.46991 14.6058 9.59353C14.4208 9.71714 14.2766 9.89285 14.1915 10.0984C14.1063 10.304 14.084 10.5302 14.1275 10.7484C14.1709 10.9666 14.278 11.1671 14.4353 11.3244C14.5927 11.4818 14.7931 11.5889 15.0114 11.6323C15.2296 11.6757 15.4558 11.6534 15.6614 11.5683C15.8669 11.4831 16.0426 11.339 16.1662 11.1539C16.2899 10.9689 16.3558 10.7514 16.3558 10.5289C16.3558 10.2306 16.2373 9.94441 16.0263 9.73344C15.8154 9.52246 15.5292 9.40393 15.2308 9.40393ZM14.8305 13.6442C14.1625 14.0588 13.392 14.2785 12.6058 14.2785C11.8197 14.2785 11.0491 14.0588 10.3811 13.6442C10.2128 13.5381 10.0092 13.5031 9.81511 13.5471C9.62101 13.591 9.45232 13.7103 9.34615 13.8786C9.23998 14.0469 9.20503 14.2506 9.24898 14.4447C9.29293 14.6388 9.41219 14.8074 9.58052 14.9136C10.4882 15.4794 11.5363 15.7794 12.6058 15.7794C13.6754 15.7794 14.7235 15.4794 15.6311 14.9136C15.7145 14.861 15.7867 14.7926 15.8436 14.7121C15.9004 14.6316 15.9409 14.5408 15.9627 14.4447C15.9845 14.3485 15.9871 14.2491 15.9704 14.152C15.9537 14.0549 15.9181 13.962 15.8655 13.8786C15.813 13.7953 15.7445 13.7231 15.664 13.6662C15.5836 13.6093 15.4927 13.5688 15.3966 13.5471C15.3005 13.5253 15.201 13.5227 15.1039 13.5394C15.0068 13.556 14.9139 13.5917 14.8305 13.6442ZM20.8558 7.52893V16.5289C20.8552 17.194 20.634 17.8401 20.2268 18.3661C19.8197 18.892 19.2496 19.268 18.6058 19.4352V21.0289C18.6058 21.4268 18.4478 21.8083 18.1665 22.0896C17.8852 22.3709 17.5037 22.5289 17.1058 22.5289H8.10583C7.70801 22.5289 7.32648 22.3709 7.04518 22.0896C6.76387 21.8083 6.60583 21.4268 6.60583 21.0289V19.4352C5.96209 19.268 5.392 18.892 4.98484 18.3661C4.57768 17.8401 4.35646 17.194 4.35583 16.5289V7.52893C4.35583 6.73328 4.67191 5.97022 5.23451 5.40761C5.79712 4.845 6.56019 4.52893 7.35583 4.52893H8.85583V3.02893C8.85583 2.63111 9.01387 2.24957 9.29518 1.96827C9.57648 1.68697 9.95801 1.52893 10.3558 1.52893H14.8558C15.2537 1.52893 15.6352 1.68697 15.9165 1.96827C16.1978 2.24957 16.3558 2.63111 16.3558 3.02893V4.52893H17.8558C18.6515 4.52893 19.4145 4.845 19.9772 5.40761C20.5398 5.97022 20.8558 6.73328 20.8558 7.52893ZM10.3558 4.52893H14.8558V3.02893H10.3558V4.52893ZM17.1058 21.0289V19.5289H8.10583V21.0289H17.1058ZM19.3558 7.52893C19.3558 7.13111 19.1978 6.74958 18.9165 6.46827C18.6352 6.18697 18.2537 6.02893 17.8558 6.02893H7.35583C6.95801 6.02893 6.57648 6.18697 6.29517 6.46827C6.01387 6.74958 5.85583 7.13111 5.85583 7.52893V16.5289C5.85583 16.9268 6.01387 17.3083 6.29517 17.5896C6.57648 17.8709 6.95801 18.0289 7.35583 18.0289H17.8558C18.2537 18.0289 18.6352 17.8709 18.9165 17.5896C19.1978 17.3083 19.3558 16.9268 19.3558 16.5289V7.52893Z" fill="#BBBBBB"/>
</svg>
