<svg width="50" height="50" viewBox="0 0 50 50" fill="none" xmlns="http://www.w3.org/2000/svg">
<path d="M30.1875 17C28.2516 17 26.5566 17.8325 25.5 19.2397C24.4434 17.8325 22.7484 17 20.8125 17C19.2715 17.0017 17.794 17.6147 16.7044 18.7044C15.6147 19.794 15.0017 21.2715 15 22.8125C15 29.375 24.7303 34.6869 25.1447 34.9062C25.2539 34.965 25.376 34.9958 25.5 34.9958C25.624 34.9958 25.7461 34.965 25.8553 34.9062C26.2697 34.6869 36 29.375 36 22.8125C35.9983 21.2715 35.3853 19.794 34.2956 18.7044C33.206 17.6147 31.7285 17.0017 30.1875 17ZM25.5 33.3875C23.7881 32.39 16.5 27.8459 16.5 22.8125C16.5015 21.6692 16.9563 20.5732 17.7647 19.7647C18.5732 18.9563 19.6692 18.5015 20.8125 18.5C22.6359 18.5 24.1669 19.4713 24.8062 21.0312C24.8628 21.1688 24.9589 21.2865 25.0824 21.3693C25.2059 21.4521 25.3513 21.4963 25.5 21.4963C25.6487 21.4963 25.7941 21.4521 25.9176 21.3693C26.0411 21.2865 26.1372 21.1688 26.1937 21.0312C26.8331 19.4684 28.3641 18.5 30.1875 18.5C31.3308 18.5015 32.4268 18.9563 33.2353 19.7647C34.0437 20.5732 34.4985 21.6692 34.5 22.8125C34.5 27.8384 27.21 32.3891 25.5 33.3875Z" fill="#1C9B69"/>
<circle cx="21.5" cy="23.75" r="5.5" fill="#1C9B69"/>
<circle cx="29.5" cy="23.75" r="5.5" fill="#1C9B69"/>
<path d="M32 27.75C32 30.7876 28.5376 33.75 25.5 33.75C22.4624 33.75 19 30.7876 19 27.75C19 24.7124 22.4624 22.25 25.5 22.25C28.5376 22.25 32 24.7124 32 27.75Z" fill="#1C9B69"/>
</svg>
