<svg width="25" height="24" viewBox="0 0 25 24" fill="none" xmlns="http://www.w3.org/2000/svg">
<path d="M18 10.5C18 10.6989 17.921 10.8897 17.7803 11.0303C17.6397 11.171 17.4489 11.25 17.25 11.25H11.25C11.0511 11.25 10.8603 11.171 10.7197 11.0303C10.579 10.8897 10.5 10.6989 10.5 10.5C10.5 10.3011 10.579 10.1103 10.7197 9.96967C10.8603 9.82902 11.0511 9.75 11.25 9.75H17.25C17.4489 9.75 17.6397 9.82902 17.7803 9.96967C17.921 10.1103 18 10.3011 18 10.5ZM17.25 12.75H11.25C11.0511 12.75 10.8603 12.829 10.7197 12.9697C10.579 13.1103 10.5 13.3011 10.5 13.5C10.5 13.6989 10.579 13.8897 10.7197 14.0303C10.8603 14.171 11.0511 14.25 11.25 14.25H17.25C17.4489 14.25 17.6397 14.171 17.7803 14.0303C17.921 13.8897 18 13.6989 18 13.5C18 13.3011 17.921 13.1103 17.7803 12.9697C17.6397 12.829 17.4489 12.75 17.25 12.75ZM21.75 4.5V19.5C21.75 19.8978 21.592 20.2794 21.3107 20.5607C21.0294 20.842 20.6478 21 20.25 21H5.25C4.85218 21 4.47064 20.842 4.18934 20.5607C3.90804 20.2794 3.75 19.8978 3.75 19.5V4.5C3.75 4.10218 3.90804 3.72064 4.18934 3.43934C4.47064 3.15804 4.85218 3 5.25 3H20.25C20.6478 3 21.0294 3.15804 21.3107 3.43934C21.592 3.72064 21.75 4.10218 21.75 4.5ZM5.25 19.5H7.5V4.5H5.25V19.5ZM20.25 19.5V4.5H9V19.5H20.25Z" fill="#8F8F8F"/>
</svg>
