<svg width="25" height="26" viewBox="0 0 25 26" fill="none" xmlns="http://www.w3.org/2000/svg">
<mask id="path-1-inside-1_6_99" fill="white">
<path d="M19 7.16663V18.8329C19 19.1423 18.8771 19.4391 18.6583 19.6578C18.4395 19.8766 18.1428 19.9995 17.8334 19.9995H12.5835C12.4288 19.9995 12.2804 19.9381 12.171 19.8287C12.0616 19.7193 12.0002 19.5709 12.0002 19.4162C12.0002 19.2615 12.0616 19.1132 12.171 19.0038C12.2804 18.8944 12.4288 18.8329 12.5835 18.8329H17.8334V7.16663H6.16696V14.1664C6.16696 14.3211 6.10551 14.4695 5.99611 14.5789C5.88672 14.6883 5.73835 14.7497 5.58364 14.7497C5.42894 14.7497 5.28057 14.6883 5.17117 14.5789C5.06178 14.4695 5.00032 14.3211 5.00032 14.1664V7.16663C5.00032 6.85722 5.12324 6.56048 5.34203 6.3417C5.56081 6.12291 5.85755 6 6.16696 6H17.8334C18.1428 6 18.4395 6.12291 18.6583 6.3417C18.8771 6.56048 19 6.85722 19 7.16663ZM11.8295 14.9203C11.7754 14.8661 11.711 14.8231 11.6402 14.7937C11.5694 14.7644 11.4935 14.7493 11.4168 14.7493C11.3402 14.7493 11.2643 14.7644 11.1935 14.7937C11.1227 14.8231 11.0583 14.8661 11.0041 14.9203L7.3336 18.5916L5.99634 17.2536C5.94215 17.1994 5.87781 17.1564 5.807 17.1271C5.73618 17.0977 5.66029 17.0826 5.58364 17.0826C5.507 17.0826 5.4311 17.0977 5.36029 17.1271C5.28948 17.1564 5.22514 17.1994 5.17095 17.2536C5.11675 17.3078 5.07376 17.3721 5.04443 17.4429C5.0151 17.5137 5 17.5896 5 17.6663C5 17.7429 5.0151 17.8188 5.04443 17.8896C5.07376 17.9604 5.11675 18.0248 5.17095 18.079L6.9209 19.8289C6.97508 19.8832 7.03941 19.9262 7.11023 19.9555C7.18104 19.9849 7.25695 20 7.3336 20C7.41026 20 7.48617 19.9849 7.55698 19.9555C7.62779 19.9262 7.69213 19.8832 7.7463 19.8289L11.8295 15.7457C11.8838 15.6915 11.9268 15.6272 11.9562 15.5564C11.9855 15.4856 12.0006 15.4097 12.0006 15.333C12.0006 15.2564 11.9855 15.1805 11.9562 15.1097C11.9268 15.0388 11.8838 14.9745 11.8295 14.9203Z"/>
</mask>
<path d="M19 7.16663V18.8329C19 19.1423 18.8771 19.4391 18.6583 19.6578C18.4395 19.8766 18.1428 19.9995 17.8334 19.9995H12.5835C12.4288 19.9995 12.2804 19.9381 12.171 19.8287C12.0616 19.7193 12.0002 19.5709 12.0002 19.4162C12.0002 19.2615 12.0616 19.1132 12.171 19.0038C12.2804 18.8944 12.4288 18.8329 12.5835 18.8329H17.8334V7.16663H6.16696V14.1664C6.16696 14.3211 6.10551 14.4695 5.99611 14.5789C5.88672 14.6883 5.73835 14.7497 5.58364 14.7497C5.42894 14.7497 5.28057 14.6883 5.17117 14.5789C5.06178 14.4695 5.00032 14.3211 5.00032 14.1664V7.16663C5.00032 6.85722 5.12324 6.56048 5.34203 6.3417C5.56081 6.12291 5.85755 6 6.16696 6H17.8334C18.1428 6 18.4395 6.12291 18.6583 6.3417C18.8771 6.56048 19 6.85722 19 7.16663ZM11.8295 14.9203C11.7754 14.8661 11.711 14.8231 11.6402 14.7937C11.5694 14.7644 11.4935 14.7493 11.4168 14.7493C11.3402 14.7493 11.2643 14.7644 11.1935 14.7937C11.1227 14.8231 11.0583 14.8661 11.0041 14.9203L7.3336 18.5916L5.99634 17.2536C5.94215 17.1994 5.87781 17.1564 5.807 17.1271C5.73618 17.0977 5.66029 17.0826 5.58364 17.0826C5.507 17.0826 5.4311 17.0977 5.36029 17.1271C5.28948 17.1564 5.22514 17.1994 5.17095 17.2536C5.11675 17.3078 5.07376 17.3721 5.04443 17.4429C5.0151 17.5137 5 17.5896 5 17.6663C5 17.7429 5.0151 17.8188 5.04443 17.8896C5.07376 17.9604 5.11675 18.0248 5.17095 18.079L6.9209 19.8289C6.97508 19.8832 7.03941 19.9262 7.11023 19.9555C7.18104 19.9849 7.25695 20 7.3336 20C7.41026 20 7.48617 19.9849 7.55698 19.9555C7.62779 19.9262 7.69213 19.8832 7.7463 19.8289L11.8295 15.7457C11.8838 15.6915 11.9268 15.6272 11.9562 15.5564C11.9855 15.4856 12.0006 15.4097 12.0006 15.333C12.0006 15.2564 11.9855 15.1805 11.9562 15.1097C11.9268 15.0388 11.8838 14.9745 11.8295 14.9203Z" fill="white"/>
<path d="M17.8334 18.8329V27.8329H26.8334V18.8329H17.8334ZM17.8334 7.16663H26.8334V-1.83337H17.8334V7.16663ZM6.16696 7.16663V-1.83337H-2.83304V7.16663H6.16696ZM6.16696 6V-3V6ZM17.8334 6V-3V6ZM11.8295 14.9203L5.46207 21.2808L5.46915 21.2879L11.8295 14.9203ZM11.0041 14.9203L17.3687 21.2837L17.3716 21.2808L11.0041 14.9203ZM7.3336 18.5916L0.967937 24.9538L7.3325 31.3218L13.6982 24.9549L7.3336 18.5916ZM5.99634 17.2536L12.362 10.8913L12.3603 10.8896L5.99634 17.2536ZM5.58364 17.0826V8.08265V17.0826ZM5 17.6663H-4H5ZM5.17095 18.079L-1.19299 24.443L5.17095 18.079ZM6.9209 19.8289L13.2884 13.4685L13.2848 13.4649L6.9209 19.8289ZM7.7463 19.8289L1.38237 13.4649L1.37883 13.4685L7.7463 19.8289ZM11.8295 15.7457L5.46915 9.37819L5.46561 9.38173L11.8295 15.7457ZM12.0006 15.333H3.00062H12.0006ZM10 7.16663V18.8329H28V7.16663H10ZM10 18.8329C10 16.7553 10.8253 14.7629 12.2944 13.2939L25.0222 26.0218C26.9288 24.1152 28 21.5293 28 18.8329H10ZM12.2944 13.2939C13.7634 11.8248 15.7558 10.9995 17.8334 10.9995V28.9995C20.5297 28.9995 23.1156 27.9284 25.0222 26.0218L12.2944 13.2939ZM17.8334 10.9995H12.5835V28.9995H17.8334V10.9995ZM12.5835 10.9995C14.8157 10.9995 16.9565 11.8863 18.5349 13.4647L5.80708 26.1927C7.60433 27.9899 10.0419 28.9995 12.5835 28.9995V10.9995ZM18.5349 13.4647C20.1134 15.0431 21.0002 17.184 21.0002 19.4162H3.00016C3.00016 21.9579 4.00983 24.3955 5.80708 26.1927L18.5349 13.4647ZM21.0002 19.4162C21.0002 21.6485 20.1134 23.7893 18.5349 25.3678L5.80708 12.6398C4.00983 14.437 3.00016 16.8746 3.00016 19.4162H21.0002ZM18.5349 25.3678C16.9565 26.9462 14.8157 27.8329 12.5835 27.8329V9.83291C10.0419 9.83291 7.60433 10.8425 5.80708 12.6398L18.5349 25.3678ZM12.5835 27.8329H17.8334V9.83291H12.5835V27.8329ZM26.8334 18.8329V7.16663H8.83336V18.8329H26.8334ZM17.8334 -1.83337H6.16696V16.1666H17.8334V-1.83337ZM-2.83304 7.16663V14.1664H15.167V7.16663H-2.83304ZM-2.83304 14.1664C-2.83304 11.9341 -1.94626 9.7933 -0.367817 8.21487L12.36 20.9429C14.1573 19.1456 15.167 16.7081 15.167 14.1664H-2.83304ZM-0.367817 8.21487C1.21063 6.63644 3.35144 5.74971 5.58364 5.74971V23.7497C8.12526 23.7497 10.5628 22.7401 12.36 20.9429L-0.367817 8.21487ZM5.58364 5.74971C7.81584 5.74971 9.95665 6.63644 11.5351 8.21487L-1.19276 20.9429C0.604483 22.7401 3.04203 23.7497 5.58364 23.7497V5.74971ZM11.5351 8.21487C13.1136 9.7933 14.0003 11.9341 14.0003 14.1664H-3.99968C-3.99968 16.7081 -2.98999 19.1456 -1.19276 20.9429L11.5351 8.21487ZM14.0003 14.1664V7.16663H-3.99968V14.1664H14.0003ZM14.0003 7.16663C14.0003 9.24419 13.175 11.2367 11.706 12.7057L-1.02191 -0.0222936C-2.92853 1.88431 -3.99968 4.47024 -3.99968 7.16663H14.0003ZM11.706 12.7057C10.2369 14.1747 8.24447 15 6.16696 15V-3C3.47063 -3 0.884717 -1.9289 -1.02191 -0.0222936L11.706 12.7057ZM6.16696 15H17.8334V-3H6.16696V15ZM17.8334 15C15.7558 15 13.7634 14.1747 12.2944 12.7057L25.0222 -0.0222936C23.1156 -1.92889 20.5297 -3 17.8334 -3V15ZM12.2944 12.7057C10.8253 11.2367 10 9.24422 10 7.16663H28C28 4.47022 26.9288 1.88429 25.0222 -0.0222936L12.2944 12.7057ZM18.197 8.55988C17.307 7.66886 16.25 6.96202 15.0867 6.47975L8.19378 23.1077C7.17202 22.6841 6.24376 22.0633 5.46207 21.2808L18.197 8.55988ZM15.0867 6.47975C13.9232 5.99745 12.6762 5.74926 11.4168 5.74926V23.7493C10.3108 23.7493 9.21562 23.5313 8.19378 23.1077L15.0867 6.47975ZM11.4168 5.74926C10.1575 5.74926 8.91049 5.99745 7.74703 6.47975L14.6399 23.1077C13.6181 23.5313 12.5228 23.7493 11.4168 23.7493V5.74926ZM7.74703 6.47975C6.58364 6.96202 5.52671 7.66886 4.63667 8.55988L17.3716 21.2808C16.5899 22.0633 15.6617 22.6841 14.6399 23.1077L7.74703 6.47975ZM4.63958 8.55697L0.96904 12.2282L13.6982 24.9549L17.3687 21.2837L4.63958 8.55697ZM13.6993 12.2293L12.362 10.8913L-0.369323 23.6158L0.967937 24.9538L13.6993 12.2293ZM12.3603 10.8896C11.4703 9.99965 10.4138 9.29375 9.25112 8.81215L2.36287 25.442C1.34179 25.0191 0.413972 24.3991 -0.367588 23.6176L12.3603 10.8896ZM9.25112 8.81215C8.08844 8.33055 6.84224 8.08265 5.58364 8.08265V26.0826C4.47834 26.0826 3.38393 25.8649 2.36287 25.442L9.25112 8.81215ZM5.58364 8.08265C4.32505 8.08265 3.07885 8.33055 1.91617 8.81215L8.80442 25.442C7.78336 25.8649 6.68895 26.0826 5.58364 26.0826V8.08265ZM1.91617 8.81215C0.753468 9.29375 -0.303032 9.99965 -1.19299 10.8896L11.5349 23.6176C10.7533 24.3991 9.8255 25.0191 8.80442 25.442L1.91617 8.81215ZM-1.19299 10.8896C-2.08292 11.7795 -2.78885 12.836 -3.27048 13.9988L13.3593 20.8871C12.9364 21.9082 12.3164 22.836 11.5349 23.6176L-1.19299 10.8896ZM-3.27048 13.9988C-3.75211 15.1615 -4 16.4077 -4 17.6663H14C14 18.7715 13.7823 19.866 13.3593 20.8871L-3.27048 13.9988ZM-4 17.6663C-4 18.9248 -3.75211 20.1711 -3.27048 21.3338L13.3593 14.4455C13.7823 15.4666 14 16.561 14 17.6663H-4ZM-3.27048 21.3338C-2.78885 22.4965 -2.08292 23.553 -1.19299 24.443L11.5349 11.715C12.3164 12.4965 12.9364 13.4243 13.3593 14.4455L-3.27048 21.3338ZM-1.19299 24.443L0.556974 26.1929L13.2848 13.4649L11.5349 11.715L-1.19299 24.443ZM0.553435 26.1894C1.44346 27.0804 2.50039 27.7872 3.66379 28.2695L10.5567 11.6416C11.5784 12.0651 12.5067 12.6859 13.2884 13.4685L0.553435 26.1894ZM3.66379 28.2695C4.82725 28.7518 6.07429 29 7.3336 29V11C8.4396 11 9.53483 11.218 10.5567 11.6416L3.66379 28.2695ZM7.3336 29C8.59291 29 9.83996 28.7518 11.0034 28.2695L4.11054 11.6416C5.13238 11.218 6.22761 11 7.3336 11V29ZM11.0034 28.2695C12.1668 27.7872 13.2237 27.0804 14.1138 26.1894L1.37883 13.4685C2.16052 12.6859 3.08878 12.0651 4.11054 11.6416L11.0034 28.2695ZM14.1102 26.1929L18.1935 22.1097L5.46561 9.38173L1.38237 13.4649L14.1102 26.1929ZM18.1899 22.1133C19.081 21.2232 19.7878 20.1663 20.2701 19.0029L3.64221 12.1099C4.06577 11.0882 4.68657 10.1599 5.46915 9.37819L18.1899 22.1133ZM20.2701 19.0029C20.7524 17.8395 21.0006 16.5924 21.0006 15.333H3.00062C3.00062 14.227 3.21863 13.1317 3.64221 12.1099L20.2701 19.0029ZM21.0006 15.333C21.0006 14.0737 20.7524 12.8266 20.2701 11.6632L3.64221 18.5561C3.21863 17.5343 3.00062 16.4391 3.00062 15.333H21.0006ZM20.2701 11.6632C19.7878 10.4998 19.081 9.44286 18.1899 8.5528L5.46915 21.2879C4.68657 20.5062 4.06577 19.5779 3.64221 18.5561L20.2701 11.6632Z" fill="white" mask="url(#path-1-inside-1_6_99)"/>
</svg>
