<svg width="25" height="24" viewBox="0 0 25 24" fill="none" xmlns="http://www.w3.org/2000/svg">
<g id="Heartbeat">
<path id="Vector" d="M7.5 13.5H3.75C3.55109 13.5 3.36032 13.421 3.21967 13.2803C3.07902 13.1397 3 12.9489 3 12.75C3 12.5511 3.07902 12.3603 3.21967 12.2197C3.36032 12.079 3.55109 12 3.75 12H7.09875L8.37562 10.0837C8.44409 9.98087 8.53691 9.89651 8.64584 9.83816C8.75477 9.7798 8.87643 9.74927 9 9.74927C9.12357 9.74927 9.24523 9.7798 9.35416 9.83816C9.46309 9.89651 9.55591 9.98087 9.62438 10.0837L12 13.6462L12.8756 12.3337C12.9442 12.231 13.037 12.1468 13.146 12.0886C13.2549 12.0303 13.3765 11.9999 13.5 12H15.75C15.9489 12 16.1397 12.079 16.2803 12.2197C16.421 12.3603 16.5 12.5511 16.5 12.75C16.5 12.9489 16.421 13.1397 16.2803 13.2803C16.1397 13.421 15.9489 13.5 15.75 13.5H13.9012L12.6244 15.4162C12.5559 15.5191 12.4631 15.6035 12.3542 15.6618C12.2452 15.7202 12.1236 15.7507 12 15.7507C11.8764 15.7507 11.7548 15.7202 11.6458 15.6618C11.5369 15.6035 11.4441 15.5191 11.3756 15.4162L9 11.8519L8.12438 13.1644C8.05604 13.2675 7.96328 13.3521 7.85434 13.4106C7.74541 13.4692 7.62368 13.4999 7.5 13.5ZM17.4375 3.75C15.5016 3.75 13.8066 4.5825 12.75 5.98969C11.6934 4.5825 9.99844 3.75 8.0625 3.75C6.52146 3.75174 5.04404 4.36468 3.95436 5.45436C2.86468 6.54404 2.25174 8.02146 2.25 9.5625C2.25 9.63281 2.25 9.70312 2.25 9.77344C2.25622 9.97235 2.3412 10.1606 2.48624 10.2969C2.63129 10.4332 2.82453 10.5062 3.02344 10.5C3.22235 10.4938 3.41065 10.4088 3.5469 10.2638C3.68316 10.1187 3.75622 9.92547 3.75 9.72656C3.75 9.67219 3.75 9.61687 3.75 9.5625C3.75149 8.41921 4.20632 7.32317 5.01475 6.51475C5.82317 5.70632 6.91921 5.25149 8.0625 5.25C9.88594 5.25 11.4169 6.22125 12.0562 7.78125C12.1128 7.91881 12.2089 8.03646 12.3324 8.11926C12.4559 8.20206 12.6013 8.24627 12.75 8.24627C12.8987 8.24627 13.0441 8.20206 13.1676 8.11926C13.2911 8.03646 13.3872 7.91881 13.4437 7.78125C14.0831 6.21844 15.6141 5.25 17.4375 5.25C18.5808 5.25149 19.6768 5.70632 20.4853 6.51475C21.2937 7.32317 21.7485 8.41921 21.75 9.5625C21.75 14.5884 14.46 19.1391 12.75 20.1375C11.7347 19.5459 8.75344 17.7 6.49875 15.2428C6.43215 15.1702 6.35189 15.1114 6.26255 15.0697C6.17322 15.0281 6.07657 15.0045 5.97811 15.0002C5.87965 14.996 5.78131 15.0111 5.68872 15.0449C5.59612 15.0786 5.51107 15.1303 5.43844 15.1969C5.3658 15.2635 5.30699 15.3437 5.26537 15.4331C5.22375 15.5224 5.20014 15.6191 5.19587 15.7175C5.19161 15.816 5.20677 15.9143 5.24051 16.0069C5.27425 16.0995 5.3259 16.1845 5.3925 16.2572C8.31469 19.4447 12.2297 21.5709 12.3947 21.66C12.5039 21.7188 12.626 21.7495 12.75 21.7495C12.874 21.7495 12.9961 21.7188 13.1053 21.66C13.5197 21.4369 23.25 16.125 23.25 9.5625C23.2483 8.02146 22.6353 6.54404 21.5456 5.45436C20.456 4.36468 18.9785 3.75174 17.4375 3.75Z" fill="#8F8F8F"/>
</g>
</svg>
