<svg width="16" height="10" viewBox="0 0 16 10" fill="none" xmlns="http://www.w3.org/2000/svg">
<path id="Vector" d="M13.1429 5C13.1429 5.18944 13.0827 5.37112 12.9755 5.50508C12.8683 5.63903 12.723 5.71429 12.5714 5.71429H3.42857C3.27702 5.71429 3.13167 5.63903 3.02451 5.50508C2.91735 5.37112 2.85714 5.18944 2.85714 5C2.85714 4.81056 2.91735 4.62888 3.02451 4.49492C3.13167 4.36097 3.27702 4.28571 3.42857 4.28571H12.5714C12.723 4.28571 12.8683 4.36097 12.9755 4.49492C13.0827 4.62888 13.1429 4.81056 13.1429 5ZM15.4286 0H0.571429C0.419876 0 0.274531 0.075255 0.167368 0.20921C0.0602039 0.343164 0 0.524845 0 0.714286C0 0.903726 0.0602039 1.08541 0.167368 1.21936C0.274531 1.35332 0.419876 1.42857 0.571429 1.42857H15.4286C15.5801 1.42857 15.7255 1.35332 15.8326 1.21936C15.9398 1.08541 16 0.903726 16 0.714286C16 0.524845 15.9398 0.343164 15.8326 0.20921C15.7255 0.075255 15.5801 0 15.4286 0ZM9.71429 8.57143H6.28571C6.13416 8.57143 5.98882 8.64668 5.88165 8.78064C5.77449 8.91459 5.71429 9.09627 5.71429 9.28571C5.71429 9.47515 5.77449 9.65684 5.88165 9.79079C5.98882 9.92475 6.13416 10 6.28571 10H9.71429C9.86584 10 10.0112 9.92475 10.1183 9.79079C10.2255 9.65684 10.2857 9.47515 10.2857 9.28571C10.2857 9.09627 10.2255 8.91459 10.1183 8.78064C10.0112 8.64668 9.86584 8.57143 9.71429 8.57143Z" fill="#8F8F8F"/>
</svg>
