<svg width="25" height="24" viewBox="0 0 25 24" fill="none" xmlns="http://www.w3.org/2000/svg">
<g id="BookBookmark">
<path id="Vector" d="M20.25 2.25H7.5C6.70435 2.25 5.94129 2.56607 5.37868 3.12868C4.81607 3.69129 4.5 4.45435 4.5 5.25V21C4.5 21.1989 4.57902 21.3897 4.71967 21.5303C4.86032 21.671 5.05109 21.75 5.25 21.75H18.75C18.9489 21.75 19.1397 21.671 19.2803 21.5303C19.421 21.3897 19.5 21.1989 19.5 21C19.5 20.8011 19.421 20.6103 19.2803 20.4697C19.1397 20.329 18.9489 20.25 18.75 20.25H6C6 19.8522 6.15804 19.4706 6.43934 19.1893C6.72064 18.908 7.10218 18.75 7.5 18.75H20.25C20.4489 18.75 20.6397 18.671 20.7803 18.5303C20.921 18.3897 21 18.1989 21 18V3C21 2.80109 20.921 2.61032 20.7803 2.46967C20.6397 2.32902 20.4489 2.25 20.25 2.25ZM12 3.75H16.5V10.5L14.6991 9.15C14.5692 9.05263 14.4113 9 14.2491 9C14.0868 9 13.9289 9.05263 13.7991 9.15L12 10.5V3.75ZM19.5 17.25H7.5C6.97326 17.2493 6.45572 17.388 6 17.6522V5.25C6 4.85218 6.15804 4.47064 6.43934 4.18934C6.72064 3.90804 7.10218 3.75 7.5 3.75H10.5V12C10.5 12.1393 10.5388 12.2758 10.612 12.3943C10.6852 12.5128 10.79 12.6085 10.9146 12.6708C11.0392 12.7331 11.1786 12.7595 11.3174 12.747C11.4561 12.7345 11.5886 12.6836 11.7 12.6L14.25 10.6875L16.8009 12.6C16.9305 12.6972 17.088 12.7498 17.25 12.75C17.4489 12.75 17.6397 12.671 17.7803 12.5303C17.921 12.3897 18 12.1989 18 12V3.75H19.5V17.25Z" fill="black" fill-opacity="0.25"/>
</g>
</svg>
