<svg width="25" height="24" viewBox="0 0 25 24" fill="none" xmlns="http://www.w3.org/2000/svg">
<g id="Pill">
<path id="Vector" d="M21.0393 3.7124C20.1029 2.77604 18.8329 2.25 17.5087 2.25C16.1845 2.25 14.9145 2.77604 13.9781 3.7124L4.46244 13.2271C3.54565 14.1675 3.03627 15.4312 3.04466 16.7445C3.05304 18.0578 3.57852 19.3149 4.50724 20.2435C5.43597 21.1721 6.69316 21.6974 8.00646 21.7057C9.31977 21.7139 10.5834 21.2043 11.5237 20.2874L21.0403 10.7727C21.9751 9.83563 22.5 8.56599 22.4998 7.24237C22.4996 5.91874 21.9744 4.64924 21.0393 3.7124ZM10.4634 19.2271C9.80834 19.8823 8.91986 20.2504 7.9934 20.2505C7.06694 20.2506 6.17839 19.8826 5.52322 19.2276C4.86806 18.5725 4.49994 17.684 4.49985 16.7576C4.49976 15.8311 4.86771 14.9426 5.52275 14.2874L9.74994 10.0602L14.6906 14.9999L10.4634 19.2271ZM19.979 9.7124L15.7499 13.9396L10.8112 8.9999L15.0393 4.77272C15.697 4.13027 16.5814 3.77299 17.5007 3.77836C18.4201 3.78373 19.3002 4.15132 19.9503 4.80141C20.6004 5.4515 20.968 6.33166 20.9734 7.25101C20.9787 8.17036 20.6215 9.05476 19.979 9.7124ZM18.5324 7.71928C18.6022 7.78893 18.6575 7.87165 18.6952 7.9627C18.733 8.05375 18.7524 8.15134 18.7524 8.2499C18.7524 8.34847 18.733 8.44606 18.6952 8.53711C18.6575 8.62816 18.6022 8.71088 18.5324 8.78053L16.2824 11.0305C16.2128 11.1002 16.13 11.1554 16.039 11.193C15.948 11.2307 15.8505 11.25 15.752 11.25C15.6535 11.2499 15.5559 11.2305 15.4649 11.1928C15.3739 11.155 15.2913 11.0997 15.2217 11.0301C15.152 10.9604 15.0968 10.8777 15.0592 10.7866C15.0215 10.6956 15.0022 10.5981 15.0022 10.4996C15.0022 10.4011 15.0217 10.3035 15.0594 10.2126C15.0972 10.1216 15.1524 10.0389 15.2221 9.96928L17.4721 7.71928C17.6128 7.57873 17.8035 7.49978 18.0023 7.49978C18.2011 7.49978 18.3918 7.57873 18.5324 7.71928Z" fill="#3D79A6"/>
</g>
</svg>
