<svg width="25" height="25" viewBox="0 0 25 25" fill="none" xmlns="http://www.w3.org/2000/svg">
<path d="M9.98083 11.6538C9.75833 11.6538 9.54082 11.5878 9.35582 11.4642C9.17081 11.3406 9.02662 11.1649 8.94147 10.9593C8.85632 10.7538 8.83404 10.5276 8.87745 10.3093C8.92086 10.0911 9.02801 9.89065 9.18534 9.73331C9.34267 9.57598 9.54313 9.46883 9.76136 9.42543C9.97959 9.38202 10.2058 9.4043 10.4114 9.48944C10.6169 9.57459 10.7926 9.71879 10.9162 9.90379C11.0399 10.0888 11.1058 10.3063 11.1058 10.5288C11.1058 10.8272 10.9873 11.1133 10.7763 11.3243C10.5654 11.5353 10.2792 11.6538 9.98083 11.6538ZM15.2308 9.40381C15.0083 9.40381 14.7908 9.46979 14.6058 9.5934C14.4208 9.71702 14.2766 9.89272 14.1915 10.0983C14.1063 10.3039 14.084 10.5301 14.1275 10.7483C14.1709 10.9665 14.278 11.167 14.4353 11.3243C14.5927 11.4816 14.7931 11.5888 15.0114 11.6322C15.2296 11.6756 15.4558 11.6533 15.6614 11.5682C15.8669 11.483 16.0426 11.3388 16.1662 11.1538C16.2899 10.9688 16.3558 10.7513 16.3558 10.5288C16.3558 10.2304 16.2373 9.94429 16.0263 9.73331C15.8154 9.52234 15.5292 9.40381 15.2308 9.40381ZM14.8305 13.6441C14.1625 14.0587 13.392 14.2784 12.6058 14.2784C11.8197 14.2784 11.0491 14.0587 10.3811 13.6441C10.2128 13.538 10.0092 13.503 9.81511 13.547C9.62101 13.5909 9.45232 13.7102 9.34615 13.8785C9.23998 14.0468 9.20503 14.2504 9.24898 14.4445C9.29293 14.6386 9.41219 14.8073 9.58052 14.9135C10.4882 15.4793 11.5363 15.7792 12.6058 15.7792C13.6754 15.7792 14.7235 15.4793 15.6311 14.9135C15.7145 14.8609 15.7867 14.7925 15.8436 14.712C15.9004 14.6315 15.9409 14.5406 15.9627 14.4445C15.9845 14.3484 15.9871 14.249 15.9704 14.1519C15.9537 14.0547 15.9181 13.9618 15.8655 13.8785C15.813 13.7951 15.7445 13.723 15.664 13.6661C15.5836 13.6092 15.4927 13.5687 15.3966 13.547C15.3005 13.5252 15.201 13.5226 15.1039 13.5392C15.0068 13.5559 14.9139 13.5916 14.8305 13.6441ZM20.8558 7.52881V16.5288C20.8552 17.1939 20.634 17.84 20.2268 18.3659C19.8197 18.8918 19.2496 19.2679 18.6058 19.4351V21.0288C18.6058 21.4266 18.4478 21.8082 18.1665 22.0895C17.8852 22.3708 17.5037 22.5288 17.1058 22.5288H8.10583C7.70801 22.5288 7.32648 22.3708 7.04518 22.0895C6.76387 21.8082 6.60583 21.4266 6.60583 21.0288V19.4351C5.96209 19.2679 5.392 18.8918 4.98484 18.3659C4.57768 17.84 4.35646 17.1939 4.35583 16.5288V7.52881C4.35583 6.73316 4.67191 5.9701 5.23451 5.40749C5.79712 4.84488 6.56019 4.52881 7.35583 4.52881H8.85583V3.02881C8.85583 2.63098 9.01387 2.24945 9.29518 1.96815C9.57648 1.68684 9.95801 1.52881 10.3558 1.52881H14.8558C15.2537 1.52881 15.6352 1.68684 15.9165 1.96815C16.1978 2.24945 16.3558 2.63098 16.3558 3.02881V4.52881H17.8558C18.6515 4.52881 19.4145 4.84488 19.9772 5.40749C20.5398 5.9701 20.8558 6.73316 20.8558 7.52881ZM10.3558 4.52881H14.8558V3.02881H10.3558V4.52881ZM17.1058 21.0288V19.5288H8.10583V21.0288H17.1058ZM19.3558 7.52881C19.3558 7.13098 19.1978 6.74945 18.9165 6.46815C18.6352 6.18684 18.2537 6.02881 17.8558 6.02881H7.35583C6.95801 6.02881 6.57648 6.18684 6.29517 6.46815C6.01387 6.74945 5.85583 7.13098 5.85583 7.52881V16.5288C5.85583 16.9266 6.01387 17.3082 6.29517 17.5895C6.57648 17.8708 6.95801 18.0288 7.35583 18.0288H17.8558C18.2537 18.0288 18.6352 17.8708 18.9165 17.5895C19.1978 17.3082 19.3558 16.9266 19.3558 16.5288V7.52881Z" fill="#E31482"/>
</svg>
