<svg width="25" height="24" viewBox="0 0 25 24" fill="none" xmlns="http://www.w3.org/2000/svg">
<g id="GameController">
<path id="Vector" d="M17.25 10.5H15C14.8011 10.5 14.6103 10.421 14.4696 10.2803C14.329 10.1397 14.25 9.94891 14.25 9.75C14.25 9.55109 14.329 9.36032 14.4696 9.21967C14.6103 9.07902 14.8011 9 15 9H17.25C17.4489 9 17.6397 9.07902 17.7803 9.21967C17.921 9.36032 18 9.55109 18 9.75C18 9.94891 17.921 10.1397 17.7803 10.2803C17.6397 10.421 17.4489 10.5 17.25 10.5ZM10.5 9H9.74997V8.25C9.74997 8.05109 9.67095 7.86032 9.5303 7.71967C9.38965 7.57902 9.19888 7.5 8.99997 7.5C8.80106 7.5 8.61029 7.57902 8.46964 7.71967C8.32899 7.86032 8.24997 8.05109 8.24997 8.25V9H7.49997C7.30106 9 7.11029 9.07902 6.96964 9.21967C6.82899 9.36032 6.74997 9.55109 6.74997 9.75C6.74997 9.94891 6.82899 10.1397 6.96964 10.2803C7.11029 10.421 7.30106 10.5 7.49997 10.5H8.24997V11.25C8.24997 11.4489 8.32899 11.6397 8.46964 11.7803C8.61029 11.921 8.80106 12 8.99997 12C9.19888 12 9.38965 11.921 9.5303 11.7803C9.67095 11.6397 9.74997 11.4489 9.74997 11.25V10.5H10.5C10.6989 10.5 10.8897 10.421 11.0303 10.2803C11.171 10.1397 11.25 9.94891 11.25 9.75C11.25 9.55109 11.171 9.36032 11.0303 9.21967C10.8897 9.07902 10.6989 9 10.5 9ZM23.3887 18.8109C23.1061 19.2146 22.7384 19.5514 22.3117 19.7978C21.8849 20.0442 21.4094 20.1941 20.9185 20.2371C20.4276 20.2801 19.9333 20.2151 19.4702 20.0466C19.0072 19.8781 18.5866 19.6103 18.2381 19.2619C18.2268 19.2506 18.2156 19.2394 18.2053 19.2272L14.4825 15H11.0137L7.29466 19.2272L7.26185 19.2619C6.62829 19.8941 5.76999 20.2494 4.87497 20.25C4.38226 20.2498 3.89556 20.1418 3.44906 19.9334C3.00257 19.7251 2.60711 19.4215 2.29046 19.044C1.97381 18.6665 1.74366 18.2242 1.61616 17.7483C1.48867 17.2724 1.46693 16.7743 1.55247 16.2891C1.55202 16.2847 1.55202 16.2803 1.55247 16.2759L3.08716 8.3925C3.31556 7.09225 3.9949 5.91409 5.00581 5.06504C6.01671 4.21599 7.2945 3.75037 8.61466 3.75H16.875C18.1911 3.7521 19.465 4.21506 20.4754 5.05849C21.4858 5.90193 22.169 7.07258 22.4062 8.36719C22.4062 8.37281 22.4062 8.37844 22.4062 8.38406L23.9409 16.275C23.9414 16.2794 23.9414 16.2838 23.9409 16.2881C24.0203 16.7243 24.0124 17.1718 23.9176 17.6049C23.8229 18.0379 23.6431 18.4479 23.3887 18.8109ZM16.875 13.5C17.969 13.5 19.0182 13.0654 19.7918 12.2918C20.5654 11.5182 21 10.469 21 9.375C21 8.28098 20.5654 7.23177 19.7918 6.45818C19.0182 5.6846 17.969 5.25 16.875 5.25H8.61466C7.64618 5.25087 6.70902 5.59325 5.96807 6.21691C5.22712 6.84057 4.72984 7.70556 4.56372 8.65969V8.67188L3.0281 16.5553C2.96022 16.9461 3.01805 17.3484 3.19326 17.7043C3.36848 18.0602 3.65206 18.3514 4.00321 18.5359C4.35436 18.7204 4.75498 18.7889 5.14747 18.7313C5.53996 18.6738 5.90408 18.4932 6.18747 18.2156L10.1175 13.7541C10.1878 13.6742 10.2744 13.6103 10.3714 13.5665C10.4684 13.5227 10.5736 13.5 10.68 13.5H16.875ZM22.4718 16.5553L21.6525 12.3366C21.1485 13.1503 20.4453 13.822 19.6093 14.2881C18.7732 14.7542 17.8321 14.9992 16.875 15H16.4812L19.3125 18.2166C19.5259 18.4242 19.7856 18.5783 20.0701 18.6661C20.3547 18.7539 20.656 18.773 20.9493 18.7219C21.4381 18.6356 21.8726 18.3591 22.1578 17.953C22.4431 17.5469 22.5556 17.0443 22.4709 16.5553H22.4718Z" fill="black" fill-opacity="0.25"/>
</g>
</svg>
