<svg width="25" height="25" viewBox="0 0 25 25" fill="none" xmlns="http://www.w3.org/2000/svg">
<path d="M17.7853 10.5289C17.7853 10.7278 17.7063 10.9186 17.5656 11.0593C17.425 11.1999 17.2342 11.2789 17.0353 11.2789H11.0353C10.8364 11.2789 10.6456 11.1999 10.5049 11.0593C10.3643 10.9186 10.2853 10.7278 10.2853 10.5289C10.2853 10.33 10.3643 10.1393 10.5049 9.9986C10.6456 9.85795 10.8364 9.77893 11.0353 9.77893H17.0353C17.2342 9.77893 17.425 9.85795 17.5656 9.9986C17.7063 10.1393 17.7853 10.33 17.7853 10.5289ZM17.0353 12.7789H11.0353C10.8364 12.7789 10.6456 12.8579 10.5049 12.9986C10.3643 13.1393 10.2853 13.33 10.2853 13.5289C10.2853 13.7278 10.3643 13.9186 10.5049 14.0593C10.6456 14.1999 10.8364 14.2789 11.0353 14.2789H17.0353C17.2342 14.2789 17.425 14.1999 17.5656 14.0593C17.7063 13.9186 17.7853 13.7278 17.7853 13.5289C17.7853 13.33 17.7063 13.1393 17.5656 12.9986C17.425 12.8579 17.2342 12.7789 17.0353 12.7789ZM21.5353 4.52893V19.5289C21.5353 19.9268 21.3772 20.3083 21.0959 20.5896C20.8146 20.8709 20.4331 21.0289 20.0353 21.0289H5.03528C4.63745 21.0289 4.25592 20.8709 3.97462 20.5896C3.69331 20.3083 3.53528 19.9268 3.53528 19.5289V4.52893C3.53528 4.13111 3.69331 3.74957 3.97462 3.46827C4.25592 3.18697 4.63745 3.02893 5.03528 3.02893H20.0353C20.4331 3.02893 20.8146 3.18697 21.0959 3.46827C21.3772 3.74957 21.5353 4.13111 21.5353 4.52893ZM5.03528 19.5289H7.28528V4.52893H5.03528V19.5289ZM20.0353 19.5289V4.52893H8.78528V19.5289H20.0353Z" fill="#BBBBBB"/>
</svg>
