<svg width="25" height="24" viewBox="0 0 25 24" fill="none" xmlns="http://www.w3.org/2000/svg">
<g id="ClipboardText" opacity="0.25">
<path id="Vector" d="M16.5 14.25C16.5 14.4489 16.421 14.6397 16.2803 14.7803C16.1397 14.921 15.9489 15 15.75 15H9.75C9.55109 15 9.36032 14.921 9.21967 14.7803C9.07902 14.6397 9 14.4489 9 14.25C9 14.0511 9.07902 13.8603 9.21967 13.7197C9.36032 13.579 9.55109 13.5 9.75 13.5H15.75C15.9489 13.5 16.1397 13.579 16.2803 13.7197C16.421 13.8603 16.5 14.0511 16.5 14.25ZM15.75 10.5H9.75C9.55109 10.5 9.36032 10.579 9.21967 10.7197C9.07902 10.8603 9 11.0511 9 11.25C9 11.4489 9.07902 11.6397 9.21967 11.7803C9.36032 11.921 9.55109 12 9.75 12H15.75C15.9489 12 16.1397 11.921 16.2803 11.7803C16.421 11.6397 16.5 11.4489 16.5 11.25C16.5 11.0511 16.421 10.8603 16.2803 10.7197C16.1397 10.579 15.9489 10.5 15.75 10.5ZM21 4.49999V20.25C21 20.6478 20.842 21.0293 20.5607 21.3106C20.2794 21.592 19.8978 21.75 19.5 21.75H6C5.60218 21.75 5.22064 21.592 4.93934 21.3106C4.65804 21.0293 4.5 20.6478 4.5 20.25V4.49999C4.5 4.10216 4.65804 3.72063 4.93934 3.43933C5.22064 3.15802 5.60218 2.99999 6 2.99999H9.39937C9.82079 2.52817 10.3371 2.15066 10.9145 1.8922C11.4919 1.63373 12.1174 1.50012 12.75 1.50012C13.3826 1.50012 14.0081 1.63373 14.5855 1.8922C15.1629 2.15066 15.6792 2.52817 16.1006 2.99999H19.5C19.8978 2.99999 20.2794 3.15802 20.5607 3.43933C20.842 3.72063 21 4.10216 21 4.49999ZM9.75 5.99999H15.75C15.75 5.20434 15.4339 4.44127 14.8713 3.87867C14.3087 3.31606 13.5456 2.99999 12.75 2.99999C11.9544 2.99999 11.1913 3.31606 10.6287 3.87867C10.0661 4.44127 9.75 5.20434 9.75 5.99999ZM19.5 4.49999H16.9922C17.1628 4.98169 17.25 5.48896 17.25 5.99999V6.74999C17.25 6.9489 17.171 7.13966 17.0303 7.28032C16.8897 7.42097 16.6989 7.49999 16.5 7.49999H9C8.80109 7.49999 8.61032 7.42097 8.46967 7.28032C8.32902 7.13966 8.25 6.9489 8.25 6.74999V5.99999C8.25002 5.48896 8.33721 4.98169 8.50781 4.49999H6V20.25H19.5V4.49999Z" fill="black"/>
</g>
</svg>
