<svg width="25" height="24" viewBox="0 0 25 24" fill="none" xmlns="http://www.w3.org/2000/svg">
<g id="Files">
<path id="Vector" d="M20.7806 6.21938L17.0306 2.46938C16.9609 2.39975 16.8782 2.34454 16.7871 2.3069C16.6961 2.26926 16.5985 2.24992 16.5 2.25H9C8.60218 2.25 8.22064 2.40804 7.93934 2.68934C7.65804 2.97064 7.5 3.35218 7.5 3.75V5.25H6C5.60218 5.25 5.22064 5.40804 4.93934 5.68934C4.65804 5.97064 4.5 6.35218 4.5 6.75V20.25C4.5 20.6478 4.65804 21.0294 4.93934 21.3107C5.22064 21.592 5.60218 21.75 6 21.75H16.5C16.8978 21.75 17.2794 21.592 17.5607 21.3107C17.842 21.0294 18 20.6478 18 20.25V18.75H19.5C19.8978 18.75 20.2794 18.592 20.5607 18.3107C20.842 18.0294 21 17.6478 21 17.25V6.75C21.0001 6.65148 20.9807 6.55391 20.9431 6.46286C20.9055 6.37182 20.8503 6.28908 20.7806 6.21938ZM16.5 20.25H6V6.75H13.1897L16.5 10.0603V17.985C16.5 17.9906 16.5 17.9953 16.5 18C16.5 18.0047 16.5 18.0094 16.5 18.015V20.25ZM19.5 17.25H18V9.75C18.0001 9.65148 17.9807 9.55391 17.9431 9.46286C17.9055 9.37182 17.8503 9.28908 17.7806 9.21937L14.0306 5.46938C13.9609 5.39975 13.8782 5.34454 13.7871 5.3069C13.6961 5.26926 13.5985 5.24992 13.5 5.25H9V3.75H16.1897L19.5 7.06031V17.25ZM14.25 14.25C14.25 14.4489 14.171 14.6397 14.0303 14.7803C13.8897 14.921 13.6989 15 13.5 15H9C8.80109 15 8.61032 14.921 8.46967 14.7803C8.32902 14.6397 8.25 14.4489 8.25 14.25C8.25 14.0511 8.32902 13.8603 8.46967 13.7197C8.61032 13.579 8.80109 13.5 9 13.5H13.5C13.6989 13.5 13.8897 13.579 14.0303 13.7197C14.171 13.8603 14.25 14.0511 14.25 14.25ZM14.25 17.25C14.25 17.4489 14.171 17.6397 14.0303 17.7803C13.8897 17.921 13.6989 18 13.5 18H9C8.80109 18 8.61032 17.921 8.46967 17.7803C8.32902 17.6397 8.25 17.4489 8.25 17.25C8.25 17.0511 8.32902 16.8603 8.46967 16.7197C8.61032 16.579 8.80109 16.5 9 16.5H13.5C13.6989 16.5 13.8897 16.579 14.0303 16.7197C14.171 16.8603 14.25 17.0511 14.25 17.25Z" fill="#4C3CD7"/>
</g>
</svg>
