<svg width="25" height="24" viewBox="0 0 25 24" fill="none" xmlns="http://www.w3.org/2000/svg">
<g id="ChartLine">
<path id="Vector" d="M22.5 19.5C22.5 19.6989 22.421 19.8897 22.2803 20.0303C22.1397 20.171 21.9489 20.25 21.75 20.25H3.75C3.55109 20.25 3.36032 20.171 3.21967 20.0303C3.07902 19.8897 3 19.6989 3 19.5V4.5C3 4.30109 3.07902 4.11032 3.21967 3.96967C3.36032 3.82902 3.55109 3.75 3.75 3.75C3.94891 3.75 4.13968 3.82902 4.28033 3.96967C4.42098 4.11032 4.5 4.30109 4.5 4.5V13.3472L9.25594 9.1875C9.38536 9.07421 9.54978 9.00885 9.72165 9.00236C9.89353 8.99587 10.0624 9.04866 10.2 9.15188L15.7134 13.2872L21.2559 8.4375C21.3286 8.36556 21.4152 8.30925 21.5105 8.27201C21.6057 8.23478 21.7075 8.21741 21.8097 8.22097C21.9119 8.22454 22.0123 8.24896 22.1047 8.29275C22.1971 8.33653 22.2796 8.39875 22.3471 8.47558C22.4145 8.5524 22.4656 8.64222 22.4971 8.7395C22.5286 8.83678 22.5399 8.93948 22.5302 9.04128C22.5206 9.14307 22.4902 9.24182 22.441 9.33146C22.3918 9.42109 22.3248 9.49972 22.2441 9.5625L16.2441 14.8125C16.1146 14.9258 15.9502 14.9912 15.7783 14.9976C15.6065 15.0041 15.4376 14.9513 15.3 14.8481L9.78656 10.7147L4.5 15.3403V18.75H21.75C21.9489 18.75 22.1397 18.829 22.2803 18.9697C22.421 19.1103 22.5 19.3011 22.5 19.5Z" fill="black" fill-opacity="0.25"/>
</g>
</svg>
