<svg width="50" height="50" viewBox="0 0 50 50" fill="none" xmlns="http://www.w3.org/2000/svg">
<g id="Heart">
<path id="Vector" d="M29.6875 16.75C27.7516 16.75 26.0566 17.5825 25 18.9897C23.9434 17.5825 22.2484 16.75 20.3125 16.75C18.7715 16.7517 17.294 17.3647 16.2044 18.4544C15.1147 19.544 14.5017 21.0215 14.5 22.5625C14.5 29.125 24.2303 34.4369 24.6447 34.6562C24.7539 34.715 24.876 34.7458 25 34.7458C25.124 34.7458 25.2461 34.715 25.3553 34.6562C25.7697 34.4369 35.5 29.125 35.5 22.5625C35.4983 21.0215 34.8853 19.544 33.7956 18.4544C32.706 17.3647 31.2285 16.7517 29.6875 16.75ZM25 33.1375C23.2881 32.14 16 27.5959 16 22.5625C16.0015 21.4192 16.4563 20.3232 17.2647 19.5147C18.0732 18.7063 19.1692 18.2515 20.3125 18.25C22.1359 18.25 23.6669 19.2213 24.3062 20.7812C24.3628 20.9188 24.4589 21.0365 24.5824 21.1193C24.7059 21.2021 24.8513 21.2463 25 21.2463C25.1487 21.2463 25.2941 21.2021 25.4176 21.1193C25.5411 21.0365 25.6372 20.9188 25.6937 20.7812C26.3331 19.2184 27.8641 18.25 29.6875 18.25C30.8308 18.2515 31.9268 18.7063 32.7353 19.5147C33.5437 20.3232 33.9985 21.4192 34 22.5625C34 27.5884 26.71 32.1391 25 33.1375Z" fill="#1C9B69"/>
</g>
</svg>
