<svg width="32" height="32" viewBox="0 0 32 32" fill="none" xmlns="http://www.w3.org/2000/svg">
<g clip-path="url(#clip0_32_1783)">
<path d="M26.6667 24.92L10.4534 8.18671L7.02671 4.65337L5.33337 6.34671L9.06671 10.08V10.0934C8.37337 11.4134 8.00004 12.9734 8.00004 14.6534V21.32L5.33337 23.9867V25.32H23.64L26.3067 27.9867L28 26.2934L26.6667 24.92ZM16 29.3334C17.48 29.3334 18.6667 28.1467 18.6667 26.6667H13.3334C13.3334 28.1467 14.52 29.3334 16 29.3334ZM24 19.5734V14.6667C24 10.56 21.8134 7.14671 18 6.24004V5.33337C18 4.22671 17.1067 3.33337 16 3.33337C14.8934 3.33337 14 4.22671 14 5.33337V6.24004C13.8 6.28004 13.6134 6.34671 13.44 6.40004C13.3067 6.44004 13.1734 6.49337 13.04 6.54671H13.0267C13.0134 6.54671 13.0134 6.54671 13 6.56004C12.6934 6.68004 12.3867 6.82671 12.0934 6.97337C12.0934 6.97337 12.08 6.97337 12.08 6.98671L24 19.5734Z" fill="black"/>
</g>
<defs>
<clipPath id="clip0_32_1783">
<rect width="32" height="32" fill="white"/>
</clipPath>
</defs>
</svg>
