<svg width="26" height="25" viewBox="0 0 26 25" fill="none" xmlns="http://www.w3.org/2000/svg">
<path d="M22.9277 21.3222L18.0381 16.4336C19.4553 14.7321 20.162 12.5498 20.0111 10.3405C19.8603 8.13131 18.8636 6.06527 17.2282 4.57222C15.5929 3.07917 13.4449 2.27405 11.2311 2.32437C9.01733 2.37468 6.90815 3.27654 5.34234 4.84234C3.77654 6.40815 2.87468 8.51733 2.82437 10.7311C2.77405 12.9449 3.57917 15.0929 5.07222 16.7282C6.56527 18.3636 8.63131 19.3603 10.8405 19.5111C13.0498 19.662 15.2321 18.9553 16.9336 17.5381L21.8222 22.4277C21.8948 22.5003 21.981 22.5579 22.0758 22.5972C22.1707 22.6364 22.2723 22.6567 22.375 22.6567C22.4776 22.6567 22.5793 22.6364 22.6741 22.5972C22.769 22.5579 22.8551 22.5003 22.9277 22.4277C23.0003 22.3551 23.0579 22.269 23.0972 22.1741C23.1364 22.0793 23.1567 21.9776 23.1567 21.875C23.1567 21.7723 23.1364 21.6707 23.0972 21.5758C23.0579 21.481 23.0003 21.3948 22.9277 21.3222ZM4.40623 10.9375C4.40623 9.54683 4.8186 8.18741 5.59121 7.03113C6.36381 5.87484 7.46194 4.97363 8.74674 4.44145C10.0315 3.90927 11.4453 3.77003 12.8092 4.04133C14.1731 4.31263 15.426 4.9823 16.4093 5.96563C17.3927 6.94897 18.0623 8.20182 18.3336 9.56575C18.6049 10.9297 18.4657 12.3434 17.9335 13.6282C17.4013 14.913 16.5001 16.0111 15.3438 16.7838C14.1875 17.5564 12.8281 17.9687 11.4375 17.9687C9.57331 17.9667 7.78609 17.2252 6.46792 15.907C5.14975 14.5889 4.4083 12.8016 4.40623 10.9375Z" fill="black"/>
</svg>
