<svg width="30" height="30" viewBox="0 0 30 30" fill="none" xmlns="http://www.w3.org/2000/svg">
<g id="ChatCircleDots">
<path id="Vector" d="M16.4062 15C16.4062 15.2781 16.3238 15.55 16.1693 15.7813C16.0147 16.0125 15.7951 16.1928 15.5381 16.2992C15.2812 16.4056 14.9984 16.4335 14.7257 16.3792C14.4529 16.325 14.2023 16.191 14.0056 15.9944C13.809 15.7977 13.675 15.5471 13.6208 15.2744C13.5665 15.0016 13.5944 14.7188 13.7008 14.4619C13.8072 14.2049 13.9875 13.9853 14.2187 13.8308C14.45 13.6762 14.7219 13.5938 15 13.5938C15.373 13.5938 15.7306 13.7419 15.9944 14.0056C16.2581 14.2694 16.4062 14.627 16.4062 15ZM9.84375 13.5938C9.56562 13.5938 9.29374 13.6762 9.06248 13.8308C8.83122 13.9853 8.65098 14.2049 8.54454 14.4619C8.43811 14.7188 8.41026 15.0016 8.46452 15.2744C8.51878 15.5471 8.65271 15.7977 8.84938 15.9944C9.04605 16.191 9.29662 16.325 9.5694 16.3792C9.84219 16.4335 10.1249 16.4056 10.3819 16.2992C10.6389 16.1928 10.8585 16.0125 11.013 15.7813C11.1675 15.55 11.25 15.2781 11.25 15C11.25 14.627 11.1018 14.2694 10.8381 14.0056C10.5744 13.7419 10.2167 13.5938 9.84375 13.5938ZM20.1562 13.5938C19.8781 13.5938 19.6062 13.6762 19.375 13.8308C19.1437 13.9853 18.9635 14.2049 18.857 14.4619C18.7506 14.7188 18.7228 15.0016 18.777 15.2744C18.8313 15.5471 18.9652 15.7977 19.1619 15.9944C19.3585 16.191 19.6091 16.325 19.8819 16.3792C20.1547 16.4335 20.4374 16.4056 20.6944 16.2992C20.9514 16.1928 21.171 16.0125 21.3255 15.7813C21.48 15.55 21.5625 15.2781 21.5625 15C21.5625 14.627 21.4143 14.2694 21.1506 14.0056C20.8869 13.7419 20.5292 13.5938 20.1562 13.5938ZM27.1875 15C27.188 17.1041 26.6436 19.1726 25.6075 21.0039C24.5714 22.8353 23.0788 24.3672 21.275 25.4506C19.4712 26.534 17.4177 27.1319 15.3142 27.1861C13.2108 27.2404 11.1291 26.7491 9.27187 25.7602L5.28164 27.0902C4.95127 27.2004 4.59675 27.2164 4.2578 27.1364C3.91886 27.0564 3.60889 26.8836 3.36264 26.6374C3.11638 26.3911 2.94358 26.0811 2.86359 25.7422C2.7836 25.4033 2.79959 25.0487 2.90977 24.7184L4.23984 20.7281C3.37049 19.0936 2.88492 17.2826 2.82 15.4324C2.75508 13.5822 3.11251 11.7416 3.86516 10.0502C4.61781 8.35875 5.7459 6.86104 7.16381 5.6707C8.58171 4.48036 10.2522 3.62869 12.0484 3.18033C13.8446 2.73197 15.7193 2.6987 17.5303 3.08305C19.3412 3.46741 21.0409 4.25928 22.5001 5.39856C23.9593 6.53785 25.1399 7.9946 25.952 9.65824C26.7642 11.3219 27.1867 13.1487 27.1875 15ZM25.3125 15C25.3121 13.4181 24.9477 11.8575 24.2476 10.439C23.5475 9.02047 22.5305 7.782 21.2752 6.81942C20.0199 5.85684 18.5599 5.19595 17.0083 4.88788C15.4567 4.57981 13.8551 4.63283 12.3272 5.04282C10.7994 5.45281 9.38636 6.20878 8.19744 7.25226C7.00853 8.29574 6.07561 9.59875 5.47085 11.0605C4.8661 12.5222 4.60572 14.1035 4.70988 15.6819C4.81403 17.2604 5.27991 18.7937 6.07148 20.1633C6.13792 20.2783 6.17917 20.4061 6.19251 20.5382C6.20584 20.6703 6.19095 20.8038 6.14883 20.9297L4.6875 25.3125L9.07031 23.8512C9.16577 23.8186 9.26594 23.802 9.3668 23.802C9.53145 23.8022 9.69312 23.8459 9.83555 23.9285C11.4033 24.8356 13.1823 25.3137 14.9935 25.3149C16.8047 25.316 18.5843 24.8401 20.1532 23.935C21.7221 23.03 23.0249 21.7277 23.9306 20.1591C24.8363 18.5906 25.3129 16.8112 25.3125 15Z" fill="black"/>
</g>
</svg>
