<svg width="25" height="24" viewBox="0 0 25 24" fill="none" xmlns="http://www.w3.org/2000/svg">
<g id="Barcode">
<path id="Vector" d="M22.5 4.5V8.25C22.5 8.44891 22.421 8.63968 22.2803 8.78033C22.1397 8.92098 21.9489 9 21.75 9C21.5511 9 21.3603 8.92098 21.2197 8.78033C21.079 8.63968 21 8.44891 21 8.25V5.25H18C17.8011 5.25 17.6103 5.17098 17.4697 5.03033C17.329 4.88968 17.25 4.69891 17.25 4.5C17.25 4.30109 17.329 4.11032 17.4697 3.96967C17.6103 3.82902 17.8011 3.75 18 3.75H21.75C21.9489 3.75 22.1397 3.82902 22.2803 3.96967C22.421 4.11032 22.5 4.30109 22.5 4.5ZM7.5 18.75H4.5V15.75C4.5 15.5511 4.42098 15.3603 4.28033 15.2197C4.13968 15.079 3.94891 15 3.75 15C3.55109 15 3.36032 15.079 3.21967 15.2197C3.07902 15.3603 3 15.5511 3 15.75V19.5C3 19.6989 3.07902 19.8897 3.21967 20.0303C3.36032 20.171 3.55109 20.25 3.75 20.25H7.5C7.69891 20.25 7.88968 20.171 8.03033 20.0303C8.17098 19.8897 8.25 19.6989 8.25 19.5C8.25 19.3011 8.17098 19.1103 8.03033 18.9697C7.88968 18.829 7.69891 18.75 7.5 18.75ZM21.75 15C21.5511 15 21.3603 15.079 21.2197 15.2197C21.079 15.3603 21 15.5511 21 15.75V18.75H18C17.8011 18.75 17.6103 18.829 17.4697 18.9697C17.329 19.1103 17.25 19.3011 17.25 19.5C17.25 19.6989 17.329 19.8897 17.4697 20.0303C17.6103 20.171 17.8011 20.25 18 20.25H21.75C21.9489 20.25 22.1397 20.171 22.2803 20.0303C22.421 19.8897 22.5 19.6989 22.5 19.5V15.75C22.5 15.5511 22.421 15.3603 22.2803 15.2197C22.1397 15.079 21.9489 15 21.75 15ZM3.75 9C3.94891 9 4.13968 8.92098 4.28033 8.78033C4.42098 8.63968 4.5 8.44891 4.5 8.25V5.25H7.5C7.69891 5.25 7.88968 5.17098 8.03033 5.03033C8.17098 4.88968 8.25 4.69891 8.25 4.5C8.25 4.30109 8.17098 4.11032 8.03033 3.96967C7.88968 3.82902 7.69891 3.75 7.5 3.75H3.75C3.55109 3.75 3.36032 3.82902 3.21967 3.96967C3.07902 4.11032 3 4.30109 3 4.5V8.25C3 8.44891 3.07902 8.63968 3.21967 8.78033C3.36032 8.92098 3.55109 9 3.75 9ZM8.25 7.5C8.05109 7.5 7.86032 7.57902 7.71967 7.71967C7.57902 7.86032 7.5 8.05109 7.5 8.25V15.75C7.5 15.9489 7.57902 16.1397 7.71967 16.2803C7.86032 16.421 8.05109 16.5 8.25 16.5C8.44891 16.5 8.63968 16.421 8.78033 16.2803C8.92098 16.1397 9 15.9489 9 15.75V8.25C9 8.05109 8.92098 7.86032 8.78033 7.71967C8.63968 7.57902 8.44891 7.5 8.25 7.5ZM18 15.75V8.25C18 8.05109 17.921 7.86032 17.7803 7.71967C17.6397 7.57902 17.4489 7.5 17.25 7.5C17.0511 7.5 16.8603 7.57902 16.7197 7.71967C16.579 7.86032 16.5 8.05109 16.5 8.25V15.75C16.5 15.9489 16.579 16.1397 16.7197 16.2803C16.8603 16.421 17.0511 16.5 17.25 16.5C17.4489 16.5 17.6397 16.421 17.7803 16.2803C17.921 16.1397 18 15.9489 18 15.75ZM14.25 7.5C14.0511 7.5 13.8603 7.57902 13.7197 7.71967C13.579 7.86032 13.5 8.05109 13.5 8.25V15.75C13.5 15.9489 13.579 16.1397 13.7197 16.2803C13.8603 16.421 14.0511 16.5 14.25 16.5C14.4489 16.5 14.6397 16.421 14.7803 16.2803C14.921 16.1397 15 15.9489 15 15.75V8.25C15 8.05109 14.921 7.86032 14.7803 7.71967C14.6397 7.57902 14.4489 7.5 14.25 7.5ZM11.25 7.5C11.0511 7.5 10.8603 7.57902 10.7197 7.71967C10.579 7.86032 10.5 8.05109 10.5 8.25V15.75C10.5 15.9489 10.579 16.1397 10.7197 16.2803C10.8603 16.421 11.0511 16.5 11.25 16.5C11.4489 16.5 11.6397 16.421 11.7803 16.2803C11.921 16.1397 12 15.9489 12 15.75V8.25C12 8.05109 11.921 7.86032 11.7803 7.71967C11.6397 7.57902 11.4489 7.5 11.25 7.5Z" fill="black" fill-opacity="0.25"/>
</g>
</svg>
