<svg width="25" height="24" viewBox="0 0 25 24" fill="none" xmlns="http://www.w3.org/2000/svg">
<g id="WechatLogo">
<path id="Vector" d="M14.25 13.125C14.25 13.3475 14.184 13.565 14.0604 13.75C13.9368 13.935 13.7611 14.0792 13.5555 14.1644C13.35 14.2495 13.1238 14.2718 12.9055 14.2284C12.6873 14.185 12.4869 14.0778 12.3295 13.9205C12.1722 13.7632 12.065 13.5627 12.0216 13.3445C11.9782 13.1262 12.0005 12.9 12.0857 12.6945C12.1708 12.4889 12.315 12.3132 12.5 12.1896C12.685 12.066 12.9025 12 13.125 12C13.4234 12 13.7095 12.1185 13.9205 12.3295C14.1315 12.5405 14.25 12.8266 14.25 13.125ZM18.375 12C18.1525 12 17.935 12.066 17.75 12.1896C17.565 12.3132 17.4208 12.4889 17.3357 12.6945C17.2505 12.9 17.2282 13.1262 17.2716 13.3445C17.315 13.5627 17.4222 13.7632 17.5795 13.9205C17.7369 14.0778 17.9373 14.185 18.1555 14.2284C18.3738 14.2718 18.6 14.2495 18.8055 14.1644C19.0111 14.0792 19.1868 13.935 19.3104 13.75C19.434 13.565 19.5 13.3475 19.5 13.125C19.5 12.8266 19.3815 12.5405 19.1705 12.3295C18.9595 12.1185 18.6734 12 18.375 12ZM23.1881 19.8253C23.2644 20.0839 23.2694 20.3583 23.2029 20.6195C23.1363 20.8808 23.0006 21.1193 22.81 21.3099C22.6193 21.5006 22.3808 21.6363 22.1196 21.7029C21.8583 21.7694 21.5839 21.7643 21.3253 21.6881L19.0088 21.0066C18.0955 21.447 17.1025 21.6977 16.0896 21.7435C15.0767 21.7894 14.0651 21.6293 13.1158 21.2731C12.1665 20.9169 11.2993 20.3719 10.5666 19.6711C9.83388 18.9702 9.25089 18.1281 8.85284 17.1956C8.03274 17.0992 7.23454 16.8663 6.49127 16.5066L4.17471 17.1881C3.9161 17.2643 3.64173 17.2694 3.38047 17.2029C3.11921 17.1363 2.88071 17.0006 2.69007 16.8099C2.49943 16.6193 2.3637 16.3808 2.29715 16.1195C2.2306 15.8583 2.23569 15.5839 2.3119 15.3253L2.99346 13.0087C2.56601 12.1094 2.32194 11.1339 2.27549 10.1391C2.22904 9.14444 2.38114 8.15043 2.72292 7.21513C3.0647 6.27983 3.58932 5.42195 4.26616 4.69154C4.943 3.96114 5.75853 3.37283 6.66514 2.96095C7.57176 2.54906 8.55133 2.32185 9.54669 2.29255C10.5421 2.26326 11.5333 2.43248 12.4626 2.79033C13.3918 3.14818 14.2405 3.68751 14.9592 4.37685C15.6778 5.06618 16.252 5.89172 16.6481 6.80531C17.8328 6.94806 18.9663 7.3714 19.9544 8.04016C20.9426 8.70892 21.757 9.60381 22.3298 10.6505C22.9027 11.6972 23.2176 12.8654 23.2484 14.0582C23.2791 15.251 23.0248 16.434 22.5066 17.5087L23.1881 19.8253ZM8.3719 15.5906C8.1864 14.5746 8.2129 13.5312 8.44975 12.526C8.68659 11.5207 9.12866 10.5752 9.74821 9.74886C10.3678 8.92253 11.1514 8.23317 12.05 7.72404C12.9486 7.21492 13.9427 6.89703 14.97 6.79031C14.5898 6.10007 14.0774 5.49147 13.4621 4.99926C12.8467 4.50705 12.1404 4.14086 11.3835 3.92161C9.85485 3.47882 8.21293 3.66141 6.81893 4.42921C5.42493 5.19702 4.39303 6.48714 3.95024 8.01576C3.50745 9.54439 3.69003 11.1863 4.45784 12.5803C4.55018 12.7529 4.57137 12.9548 4.5169 13.1428L3.75002 15.75L6.35252 14.9841C6.54055 14.9296 6.74242 14.9508 6.91502 15.0431C7.37458 15.2886 7.86439 15.4727 8.3719 15.5906ZM21.0422 17.0803C21.7207 15.8115 21.9206 14.3411 21.6055 12.9372C21.2904 11.5333 20.4813 10.2893 19.3257 9.43213C18.1701 8.57493 16.7449 8.16155 15.31 8.26734C13.875 8.37313 12.5259 8.99105 11.5085 10.0085C10.4911 11.0259 9.87316 12.375 9.76737 13.8099C9.66158 15.2449 10.075 16.6701 10.9322 17.8257C11.7894 18.9813 13.0333 19.7904 14.4372 20.1055C15.8411 20.4205 17.3115 20.2206 18.5803 19.5422C18.7529 19.4498 18.9548 19.4286 19.1428 19.4831L21.75 20.25L20.9841 17.6475C20.928 17.4582 20.9489 17.2543 21.0422 17.0803Z" fill="#8F8F8F"/>
</g>
</svg>
