<svg width="25" height="24" viewBox="0 0 25 24" fill="none" xmlns="http://www.w3.org/2000/svg">
<g id="MopedFront">
<path id="Vector" d="M20.25 3.74998H16.425C16.2529 2.90226 15.793 2.14012 15.1232 1.59269C14.4534 1.04526 13.615 0.746216 12.75 0.746216C11.885 0.746216 11.0466 1.04526 10.3768 1.59269C9.70705 2.14012 9.24714 2.90226 9.075 3.74998H5.25C5.05109 3.74998 4.86032 3.82899 4.71967 3.96965C4.57902 4.1103 4.5 4.30106 4.5 4.49998C4.5 4.69889 4.57902 4.88965 4.71967 5.0303C4.86032 5.17096 5.05109 5.24998 5.25 5.24998H9.075C9.23759 6.04106 9.65123 6.75851 10.2544 7.2956C9.20977 7.77439 8.3244 8.54273 7.70327 9.50949C7.08214 10.4763 6.7513 11.6009 6.75 12.75V18.75C6.75 19.1478 6.90804 19.5293 7.18934 19.8106C7.47064 20.0919 7.85218 20.25 8.25 20.25H9.75C9.75 21.0456 10.0661 21.8087 10.6287 22.3713C11.1913 22.9339 11.9544 23.25 12.75 23.25C13.5456 23.25 14.3087 22.9339 14.8713 22.3713C15.4339 21.8087 15.75 21.0456 15.75 20.25H17.25C17.6478 20.25 18.0294 20.0919 18.3107 19.8106C18.592 19.5293 18.75 19.1478 18.75 18.75V12.75C18.7487 11.6009 18.4179 10.4763 17.7967 9.50949C17.1756 8.54273 16.2902 7.77439 15.2456 7.2956C15.8488 6.75851 16.2624 6.04106 16.425 5.24998H20.25C20.4489 5.24998 20.6397 5.17096 20.7803 5.0303C20.921 4.88965 21 4.69889 21 4.49998C21 4.30106 20.921 4.1103 20.7803 3.96965C20.6397 3.82899 20.4489 3.74998 20.25 3.74998ZM14.25 20.25C14.25 20.6478 14.092 21.0293 13.8107 21.3106C13.5294 21.5919 13.1478 21.75 12.75 21.75C12.3522 21.75 11.9706 21.5919 11.6893 21.3106C11.408 21.0293 11.25 20.6478 11.25 20.25V15.75C11.25 15.3522 11.408 14.9706 11.6893 14.6893C11.9706 14.408 12.3522 14.25 12.75 14.25C13.1478 14.25 13.5294 14.408 13.8107 14.6893C14.092 14.9706 14.25 15.3522 14.25 15.75V20.25ZM17.25 12.75V18.75H15.75V15.75C15.75 14.9543 15.4339 14.1913 14.8713 13.6287C14.3087 13.066 13.5456 12.75 12.75 12.75C11.9544 12.75 11.1913 13.066 10.6287 13.6287C10.0661 14.1913 9.75 14.9543 9.75 15.75V18.75H8.25V12.75C8.25 11.5565 8.72411 10.4119 9.56802 9.568C10.4119 8.72408 11.5565 8.24998 12.75 8.24998C13.9435 8.24998 15.0881 8.72408 15.932 9.568C16.7759 10.4119 17.25 11.5565 17.25 12.75ZM10.5 4.49998C10.5 4.05497 10.632 3.61995 10.8792 3.24994C11.1264 2.87993 11.4778 2.59154 11.889 2.42125C12.3001 2.25095 12.7525 2.20639 13.189 2.29321C13.6254 2.38003 14.0263 2.59432 14.341 2.90899C14.6557 3.22365 14.87 3.62456 14.9568 4.06102C15.0436 4.49748 14.999 4.94988 14.8287 5.36101C14.6584 5.77215 14.37 6.12355 14 6.37078C13.63 6.61801 13.195 6.74998 12.75 6.74998C12.1533 6.74998 11.581 6.51292 11.159 6.09097C10.7371 5.66901 10.5 5.09671 10.5 4.49998Z" fill="black" fill-opacity="0.25"/>
</g>
</svg>
