<svg width="24" height="25" viewBox="0 0 24 25" fill="none" xmlns="http://www.w3.org/2000/svg">
<g id="solar:user-circle-bold" clip-path="url(#clip0_13_348)">
<path id="Vector" fill-rule="evenodd" clip-rule="evenodd" d="M23.5 13C23.5 19.3514 18.3514 24.5 12 24.5C5.64855 24.5 0.5 19.3514 0.5 13C0.5 6.64855 5.64855 1.5 12 1.5C18.3514 1.5 23.5 6.64855 23.5 13ZM15.45 9.55C15.45 10.465 15.0865 11.3425 14.4395 11.9895C13.7925 12.6365 12.915 13 12 13C11.085 13 10.2075 12.6365 9.56048 11.9895C8.91348 11.3425 8.55 10.465 8.55 9.55C8.55 8.635 8.91348 7.75748 9.56048 7.11048C10.2075 6.46348 11.085 6.1 12 6.1C12.915 6.1 13.7925 6.46348 14.4395 7.11048C15.0865 7.75748 15.45 8.635 15.45 9.55ZM12 22.775C13.9737 22.7782 15.9017 22.181 17.528 21.0626C18.2226 20.5854 18.5193 19.6769 18.1145 18.9375C17.2785 17.4045 15.5535 16.45 12 16.45C8.4465 16.45 6.7215 17.4045 5.8843 18.9375C5.48065 19.6769 5.77735 20.5854 6.47195 21.0626C8.09828 22.181 10.0263 22.7782 12 22.775Z" fill="#BBBBBB"/>
</g>
<defs>
<clipPath id="clip0_13_348">
<rect width="24" height="24" fill="white" transform="translate(0 0.5)"/>
</clipPath>
</defs>
</svg>
