<svg width="25" height="24" viewBox="0 0 25 24" fill="none" xmlns="http://www.w3.org/2000/svg">
<g id="Heart">
<path id="Vector" d="M17.4375 3.75C15.5016 3.75 13.8066 4.5825 12.75 5.98969C11.6934 4.5825 9.99844 3.75 8.0625 3.75C6.52146 3.75174 5.04404 4.36468 3.95436 5.45436C2.86468 6.54404 2.25174 8.02146 2.25 9.5625C2.25 16.125 11.9803 21.4369 12.3947 21.6562C12.5039 21.715 12.626 21.7458 12.75 21.7458C12.874 21.7458 12.9961 21.715 13.1053 21.6562C13.5197 21.4369 23.25 16.125 23.25 9.5625C23.2483 8.02146 22.6353 6.54404 21.5456 5.45436C20.456 4.36468 18.9785 3.75174 17.4375 3.75ZM12.75 20.1375C11.0381 19.14 3.75 14.5959 3.75 9.5625C3.75149 8.41921 4.20632 7.32317 5.01475 6.51475C5.82317 5.70632 6.91921 5.25149 8.0625 5.25C9.88594 5.25 11.4169 6.22125 12.0562 7.78125C12.1128 7.91881 12.2089 8.03646 12.3324 8.11926C12.4559 8.20207 12.6013 8.24627 12.75 8.24627C12.8987 8.24627 13.0441 8.20207 13.1676 8.11926C13.2911 8.03646 13.3872 7.91881 13.4437 7.78125C14.0831 6.21844 15.6141 5.25 17.4375 5.25C18.5808 5.25149 19.6768 5.70632 20.4853 6.51475C21.2937 7.32317 21.7485 8.41921 21.75 9.5625C21.75 14.5884 14.46 19.1391 12.75 20.1375Z" fill="black" fill-opacity="0.25"/>
</g>
</svg>
