<svg width="25" height="24" viewBox="0 0 25 24" fill="none" xmlns="http://www.w3.org/2000/svg">
<g id="FirstAid">
<path id="Vector" d="M21 8.25H16.5V3.75C16.5 3.35218 16.342 2.97064 16.0607 2.68934C15.7794 2.40804 15.3978 2.25 15 2.25H10.5C10.1022 2.25 9.72064 2.40804 9.43934 2.68934C9.15804 2.97064 9 3.35218 9 3.75V8.25H4.5C4.10218 8.25 3.72064 8.40804 3.43934 8.68934C3.15804 8.97064 3 9.35218 3 9.75V14.25C3 14.6478 3.15804 15.0294 3.43934 15.3107C3.72064 15.592 4.10218 15.75 4.5 15.75H9V20.25C9 20.6478 9.15804 21.0294 9.43934 21.3107C9.72064 21.592 10.1022 21.75 10.5 21.75H15C15.3978 21.75 15.7794 21.592 16.0607 21.3107C16.342 21.0294 16.5 20.6478 16.5 20.25V15.75H21C21.3978 15.75 21.7794 15.592 22.0607 15.3107C22.342 15.0294 22.5 14.6478 22.5 14.25V9.75C22.5 9.35218 22.342 8.97064 22.0607 8.68934C21.7794 8.40804 21.3978 8.25 21 8.25ZM21 14.25H15.75C15.5511 14.25 15.3603 14.329 15.2197 14.4697C15.079 14.6103 15 14.8011 15 15V20.25H10.5V15C10.5 14.8011 10.421 14.6103 10.2803 14.4697C10.1397 14.329 9.94891 14.25 9.75 14.25H4.5V9.75H9.75C9.94891 9.75 10.1397 9.67098 10.2803 9.53033C10.421 9.38968 10.5 9.19891 10.5 9V3.75H15V9C15 9.19891 15.079 9.38968 15.2197 9.53033C15.3603 9.67098 15.5511 9.75 15.75 9.75H21V14.25Z" fill="#8F8F8F"/>
</g>
</svg>
