<svg width="25" height="24" viewBox="0 0 25 24" fill="none" xmlns="http://www.w3.org/2000/svg">
<g id="MapPinArea">
<path id="Vector" d="M11.25 7.5C11.25 7.20333 11.338 6.91332 11.5028 6.66665C11.6676 6.41997 11.9019 6.22771 12.176 6.11418C12.4501 6.00065 12.7517 5.97094 13.0426 6.02882C13.3336 6.0867 13.6009 6.22956 13.8107 6.43934C14.0204 6.64912 14.1633 6.91639 14.2212 7.20736C14.2791 7.49834 14.2494 7.79994 14.1358 8.07403C14.0223 8.34811 13.83 8.58238 13.5834 8.7472C13.3367 8.91203 13.0467 9 12.75 9C12.3522 9 11.9706 8.84196 11.6893 8.56066C11.408 8.27936 11.25 7.89782 11.25 7.5ZM6.75 7.5C6.75 5.9087 7.38214 4.38258 8.50736 3.25736C9.63258 2.13214 11.1587 1.5 12.75 1.5C14.3413 1.5 15.8674 2.13214 16.9926 3.25736C18.1179 4.38258 18.75 5.9087 18.75 7.5C18.75 13.1203 13.3519 16.2694 13.125 16.4016C13.0117 16.4663 12.8834 16.5004 12.7528 16.5004C12.6223 16.5004 12.494 16.4663 12.3806 16.4016C12.1481 16.2694 6.75 13.125 6.75 7.5ZM8.25 7.5C8.25 11.4563 11.61 14.0822 12.75 14.8594C13.8891 14.0831 17.25 11.4563 17.25 7.5C17.25 6.30653 16.7759 5.16193 15.932 4.31802C15.0881 3.47411 13.9435 3 12.75 3C11.5565 3 10.4119 3.47411 9.56802 4.31802C8.72411 5.16193 8.25 6.30653 8.25 7.5ZM19.7597 13.8403C19.5751 13.7793 19.374 13.7924 19.1989 13.8768C19.0238 13.9612 18.8882 14.1102 18.8209 14.2926C18.7535 14.475 18.7596 14.6764 18.8379 14.8543C18.9161 15.0323 19.0604 15.1729 19.2403 15.2466C20.7881 15.8194 21.75 16.5863 21.75 17.25C21.75 18.5025 18.3263 20.25 12.75 20.25C7.17375 20.25 3.75 18.5025 3.75 17.25C3.75 16.5863 4.71187 15.8194 6.25969 15.2475C6.4396 15.1739 6.5839 15.0332 6.66215 14.8553C6.74039 14.6773 6.74648 14.4759 6.67913 14.2935C6.61178 14.1112 6.47624 13.9621 6.3011 13.8777C6.12596 13.7933 5.92491 13.7803 5.74031 13.8412C3.48937 14.6709 2.25 15.8822 2.25 17.25C2.25 20.1731 7.66031 21.75 12.75 21.75C17.8397 21.75 23.25 20.1731 23.25 17.25C23.25 15.8822 22.0106 14.6709 19.7597 13.8403Z" fill="black" fill-opacity="0.25"/>
</g>
</svg>
