<svg width="25" height="24" viewBox="0 0 25 24" fill="none" xmlns="http://www.w3.org/2000/svg">
<g id="CalendarHeart">
<path id="Vector" d="M20.25 3H18V2.25C18 2.05109 17.921 1.86032 17.7803 1.71967C17.6397 1.57902 17.4489 1.5 17.25 1.5C17.0511 1.5 16.8603 1.57902 16.7197 1.71967C16.579 1.86032 16.5 2.05109 16.5 2.25V3H9V2.25C9 2.05109 8.92098 1.86032 8.78033 1.71967C8.63968 1.57902 8.44891 1.5 8.25 1.5C8.05109 1.5 7.86032 1.57902 7.71967 1.71967C7.57902 1.86032 7.5 2.05109 7.5 2.25V3H5.25C4.85218 3 4.47064 3.15804 4.18934 3.43934C3.90804 3.72064 3.75 4.10218 3.75 4.5V19.5C3.75 19.8978 3.90804 20.2794 4.18934 20.5607C4.47064 20.842 4.85218 21 5.25 21H20.25C20.6478 21 21.0294 20.842 21.3107 20.5607C21.592 20.2794 21.75 19.8978 21.75 19.5V4.5C21.75 4.10218 21.592 3.72064 21.3107 3.43934C21.0294 3.15804 20.6478 3 20.25 3ZM20.25 19.5H5.25V4.5H7.5V5.25C7.5 5.44891 7.57902 5.63968 7.71967 5.78033C7.86032 5.92098 8.05109 6 8.25 6C8.44891 6 8.63968 5.92098 8.78033 5.78033C8.92098 5.63968 9 5.44891 9 5.25V4.5H16.5V5.25C16.5 5.44891 16.579 5.63968 16.7197 5.78033C16.8603 5.92098 17.0511 6 17.25 6C17.4489 6 17.6397 5.92098 17.7803 5.78033C17.921 5.63968 18 5.44891 18 5.25V4.5H20.25V19.5ZM15 8.25C14.5741 8.24976 14.1531 8.34047 13.765 8.51605C13.377 8.69163 13.031 8.94804 12.75 9.26813C12.3471 8.81126 11.8146 8.48787 11.2234 8.34097C10.6323 8.19408 10.0104 8.23063 9.44048 8.44576C8.87058 8.6609 8.37967 9.04443 8.03305 9.54535C7.68642 10.0463 7.50049 10.6408 7.5 11.25C7.5 14.6737 12.2137 17.07 12.4144 17.1713C12.5186 17.2234 12.6335 17.2505 12.75 17.2505C12.8665 17.2505 12.9814 17.2234 13.0856 17.1713C13.2863 17.07 18 14.6737 18 11.25C18 10.4544 17.6839 9.69129 17.1213 9.12868C16.5587 8.56607 15.7956 8.25 15 8.25ZM12.75 15.6497C11.4572 14.9194 9 13.1419 9 11.25C9 10.8522 9.15804 10.4706 9.43934 10.1893C9.72064 9.90804 10.1022 9.75 10.5 9.75C10.8978 9.75 11.2794 9.90804 11.5607 10.1893C11.842 10.4706 12 10.8522 12 11.25C12 11.4489 12.079 11.6397 12.2197 11.7803C12.3603 11.921 12.5511 12 12.75 12C12.9489 12 13.1397 11.921 13.2803 11.7803C13.421 11.6397 13.5 11.4489 13.5 11.25C13.5 10.8522 13.658 10.4706 13.9393 10.1893C14.2206 9.90804 14.6022 9.75 15 9.75C15.3978 9.75 15.7794 9.90804 16.0607 10.1893C16.342 10.4706 16.5 10.8522 16.5 11.25C16.5 13.1428 14.0428 14.9203 12.75 15.6497Z" fill="#4C3CD7"/>
</g>
</svg>
