<svg width="25" height="24" viewBox="0 0 25 24" fill="none" xmlns="http://www.w3.org/2000/svg">
<g id="ClipboardText">
<path id="Vector" d="M16.5 14.2499C16.5 14.4488 16.421 14.6395 16.2803 14.7802C16.1397 14.9208 15.9489 14.9999 15.75 14.9999H9.75C9.55109 14.9999 9.36032 14.9208 9.21967 14.7802C9.07902 14.6395 9 14.4488 9 14.2499C9 14.051 9.07902 13.8602 9.21967 13.7195C9.36032 13.5789 9.55109 13.4999 9.75 13.4999H15.75C15.9489 13.4999 16.1397 13.5789 16.2803 13.7195C16.421 13.8602 16.5 14.051 16.5 14.2499ZM15.75 10.4999H9.75C9.55109 10.4999 9.36032 10.5789 9.21967 10.7195C9.07902 10.8602 9 11.051 9 11.2499C9 11.4488 9.07902 11.6395 9.21967 11.7802C9.36032 11.9208 9.55109 11.9999 9.75 11.9999H15.75C15.9489 11.9999 16.1397 11.9208 16.2803 11.7802C16.421 11.6395 16.5 11.4488 16.5 11.2499C16.5 11.051 16.421 10.8602 16.2803 10.7195C16.1397 10.5789 15.9489 10.4999 15.75 10.4999ZM21 4.49986V20.2499C21 20.6477 20.842 21.0292 20.5607 21.3105C20.2794 21.5918 19.8978 21.7499 19.5 21.7499H6C5.60218 21.7499 5.22064 21.5918 4.93934 21.3105C4.65804 21.0292 4.5 20.6477 4.5 20.2499V4.49986C4.5 4.10204 4.65804 3.72051 4.93934 3.4392C5.22064 3.1579 5.60218 2.99986 6 2.99986H9.39937C9.82079 2.52804 10.3371 2.15054 10.9145 1.89207C11.4919 1.63361 12.1174 1.5 12.75 1.5C13.3826 1.5 14.0081 1.63361 14.5855 1.89207C15.1629 2.15054 15.6792 2.52804 16.1006 2.99986H19.5C19.8978 2.99986 20.2794 3.1579 20.5607 3.4392C20.842 3.72051 21 4.10204 21 4.49986ZM9.75 5.99986H15.75C15.75 5.20421 15.4339 4.44115 14.8713 3.87854C14.3087 3.31593 13.5456 2.99986 12.75 2.99986C11.9544 2.99986 11.1913 3.31593 10.6287 3.87854C10.0661 4.44115 9.75 5.20421 9.75 5.99986ZM19.5 4.49986H16.9922C17.1628 4.98157 17.25 5.48884 17.25 5.99986V6.74986C17.25 6.94878 17.171 7.13954 17.0303 7.28019C16.8897 7.42085 16.6989 7.49986 16.5 7.49986H9C8.80109 7.49986 8.61032 7.42085 8.46967 7.28019C8.32902 7.13954 8.25 6.94878 8.25 6.74986V5.99986C8.25002 5.48884 8.33721 4.98157 8.50781 4.49986H6V20.2499H19.5V4.49986Z" fill="#89BD42"/>
</g>
</svg>
