<svg width="241" height="241" viewBox="0 0 241 241" fill="none" xmlns="http://www.w3.org/2000/svg">
<g id="Group 6">
<path id="Subtract" fill-rule="evenodd" clip-rule="evenodd" d="M135.999 224.869C181.421 218.182 217.424 182.549 224.668 137.311C233.552 136.723 240.573 129.421 240.573 120.5C240.573 111.579 233.552 104.277 224.668 103.689C217.518 59.0351 182.345 23.739 137.753 16.4038C137.294 7.50352 129.84 0.426548 120.713 0.426548C111.61 0.426548 104.172 7.46651 103.678 16.3339C58.8814 23.5121 23.5053 58.8915 16.332 103.689C7.44828 104.277 0.426551 111.579 0.426551 120.5C0.426551 129.421 7.44828 136.723 16.332 137.311C23.5226 182.217 59.0525 217.659 104.002 224.718C104.001 224.812 104 224.906 104 225C104 233.741 111.009 240.845 119.714 240.997C53.5252 240.574 0 186.788 0 120.5C0 53.9497 53.9497 0 120.5 0C187.05 0 241 53.9497 241 120.5C241 187.05 187.05 241 120.5 241C120.378 241 120.256 241 120.133 240.999C128.909 240.928 136 233.792 136 225C136 224.956 136 224.913 135.999 224.869Z" fill="black"/>
<circle id="Ellipse 6" cx="121" cy="17" r="11" fill="#E52328"/>
<path id="Union" fill-rule="evenodd" clip-rule="evenodd" d="M140.852 92.1768C147.61 86.2357 151.874 77.5265 151.874 67.8212C151.874 49.9174 137.361 35.4035 119.457 35.4035C101.553 35.4035 87.0391 49.9174 87.0391 67.8212C87.0391 85.725 101.553 100.239 119.457 100.239V113.455C119.457 114.337 120.507 114.789 121.133 114.169C126.773 108.581 134.67 100.066 140.852 92.1768Z" fill="#E52328"/>
<path id="Union_2" fill-rule="evenodd" clip-rule="evenodd" d="M98.0617 150.596C91.3038 156.537 87.0389 165.247 87.0389 174.952C87.0389 192.856 101.553 207.37 119.457 207.37C137.36 207.37 151.874 192.856 151.874 174.952C151.874 157.048 137.36 142.534 119.457 142.534L119.457 129.318C119.457 128.436 118.407 127.984 117.78 128.604C112.141 134.192 104.243 142.707 98.0617 150.596Z" fill="#89BD42"/>
<path id="Union_3" fill-rule="evenodd" clip-rule="evenodd" d="M91.7728 99.5646C85.8317 92.807 77.1227 88.5423 67.4177 88.5423C49.5139 88.5423 35 103.056 35 120.96C35 138.864 49.5139 153.378 67.4177 153.378C85.3215 153.378 99.8354 138.864 99.8354 120.96L113.052 120.96C113.934 120.96 114.386 119.91 113.765 119.283C108.177 113.644 99.6618 105.746 91.7728 99.5646Z" fill="#2D9CD3"/>
<path id="Union_4" fill-rule="evenodd" clip-rule="evenodd" d="M150.619 142.355C156.56 149.113 165.27 153.378 174.975 153.378C192.879 153.378 207.393 138.864 207.393 120.96C207.393 103.056 192.879 88.5423 174.975 88.5423C157.071 88.5423 142.557 103.056 142.557 120.96L129.341 120.96C128.459 120.96 128.007 122.01 128.628 122.637C134.216 128.276 142.731 136.173 150.619 142.355Z" fill="#EF8424"/>
<ellipse id="Ellipse 8" cx="224" cy="121" rx="11" ry="11" transform="rotate(90 224 121)" fill="#EF8424"/>
<circle id="Ellipse 7" cx="120" cy="225" r="11" fill="#89BD42"/>
<ellipse id="Ellipse 9" cx="17" cy="120" rx="11" ry="11" transform="rotate(90 17 120)" fill="#2D9CD3"/>
<g id="Group 1">
<rect id="Rectangle 1" x="117.324" y="52.892" width="4.26549" height="30.7115" fill="white"/>
<rect id="Rectangle 2" x="134.812" y="66.1151" width="4.26549" height="30.7115" transform="rotate(90 134.812 66.1151)" fill="white"/>
</g>
<g id="Group 3">
<rect id="Rectangle 2_2" x="134.812" y="173.605" width="4.26549" height="30.7115" transform="rotate(90 134.812 173.605)" fill="white"/>
</g>
<g id="Group 4">
<rect id="Rectangle 2_3" x="191.543" y="111.756" width="4.26549" height="30.7115" transform="rotate(90 191.543 111.756)" fill="white"/>
</g>
<g id="Group 5">
<rect id="Rectangle 2_4" x="191.543" y="126.258" width="4.26549" height="30.7115" transform="rotate(90 191.543 126.258)" fill="white"/>
</g>
<g id="Group 2">
<rect id="Rectangle 1_2" x="76.7677" y="108.774" width="4.26549" height="30.7115" transform="rotate(45 76.7677 108.774)" fill="white"/>
<rect id="Rectangle 2_5" x="79.7839" y="130.49" width="4.26549" height="30.7115" transform="rotate(135 79.7839 130.49)" fill="white"/>
</g>
</g>
</svg>
